{
.appVersion = "895";
copyright = "Copyright 2016 The Montserrat and Sector Project Authors";
customParameters = (
{
name = fsType;
value = (
);
},
{
name = license;
value = "This Font Software is licensed under the SIL Open Font License Version 1.1.";
},
{
name = licenseURL;
value = "http://scripts.sil.org/OFL";
}
);
date = "2016-04-14 23:39:46 +0000";
designer = "Montserrat by Julieta Ulanovsky; Sector Gurmukhi by Gunnar Vilhjalmsson";
designerURL = "Montserrat http://www.zkysky.com.ar; Sector Gurmukhi http://universalthirst.com";
familyName = Sector;
fontMaster = (
{
alignmentZones = (
"{850, 18}",
"{688, 20}",
"{342, -2}",
"{-96, -18}"
);
ascender = 875;
capHeight = 688;
descender = -197;
id = "0684C2B6-4C69-4B0A-A52B-80982EBE3DDB";
weightValue = 110;
xHeight = 688;
}
);
glyphs = (
{
glyphname = A;
layers = (
{
anchors = (
{
name = ogonek;
position = "{768, 10}";
},
{
name = top;
position = "{369, 700}";
}
);
layerId = "0684C2B6-4C69-4B0A-A52B-80982EBE3DDB";
paths = (
{
closed = 1;
nodes = (
"310 700 LINE",
"1 0 LINE",
"124 0 LINE",
"368 574 LINE",
"611 0 LINE",
"738 0 LINE",
"432 700 LINE"
);
},
{
closed = 1;
nodes = (
"155 263 LINE",
"155 158 LINE SMOOTH",
"574 158 LINE",
"574 263 LINE"
);
}
);
width = 738;
}
);
leftKerningGroup = A;
rightKerningGroup = A;
unicode = 0041;
},
{
glyphname = Aogonek;
layers = (
{
layerId = "0684C2B6-4C69-4B0A-A52B-80982EBE3DDB";
paths = (
{
closed = 1;
nodes = (
"310 700 LINE",
"1 0 LINE",
"124 0 LINE",
"192 158 LINE",
"544 158 LINE",
"612 0 LINE",
"646 0 LINE",
"613 -47 OFFCURVE",
"594 -86 OFFCURVE",
"594 -123 CURVE SMOOTH",
"594 -178 OFFCURVE",
"635 -201 OFFCURVE",
"673 -201 CURVE SMOOTH",
"710 -201 OFFCURVE",
"746 -180 OFFCURVE",
"768 -144 CURVE",
"735 -105 LINE",
"720 -124 OFFCURVE",
"704 -137 OFFCURVE",
"686 -137 CURVE SMOOTH",
"668 -137 OFFCURVE",
"656 -125 OFFCURVE",
"656 -105 CURVE SMOOTH",
"656 -82 OFFCURVE",
"671 -48 OFFCURVE",
"705 0 CURVE",
"738 0 LINE",
"432 700 LINE"
);
},
{
closed = 1;
nodes = (
"502 262 LINE",
"234 262 LINE",
"368 574 LINE"
);
}
);
width = 738;
}
);
leftKerningGroup = A;
rightKerningGroup = A;
unicode = 0104;
},
{
glyphname = Aring;
layers = (
{
components = (
{
name = A;
}
);
layerId = "0684C2B6-4C69-4B0A-A52B-80982EBE3DDB";
paths = (
{
closed = 1;
nodes = (
"304 896 OFFCURVE",
"249 841 OFFCURVE",
"249 774 CURVE SMOOTH",
"249 708 OFFCURVE",
"304 653 OFFCURVE",
"371 653 CURVE SMOOTH",
"439 653 OFFCURVE",
"494 708 OFFCURVE",
"494 774 CURVE SMOOTH",
"494 841 OFFCURVE",
"439 896 OFFCURVE",
"371 896 CURVE SMOOTH"
);
},
{
closed = 1;
nodes = (
"409 840 OFFCURVE",
"440 810 OFFCURVE",
"440 774 CURVE SMOOTH",
"440 738 OFFCURVE",
"409 709 OFFCURVE",
"371 709 CURVE SMOOTH",
"333 709 OFFCURVE",
"302 738 OFFCURVE",
"302 774 CURVE SMOOTH",
"302 810 OFFCURVE",
"333 840 OFFCURVE",
"371 840 CURVE SMOOTH"
);
}
);
width = 738;
}
);
leftKerningGroup = A;
leftMetricsKey = A;
rightKerningGroup = A;
rightMetricsKey = A;
unicode = 00C5;
},
{
glyphname = AE;
layers = (
{
anchors = (
{
name = bottom;
position = "{727, 0}";
},
{
name = ogonek;
position = "{996, 10}";
},
{
name = top;
position = "{626, 700}";
}
);
layerId = "0684C2B6-4C69-4B0A-A52B-80982EBE3DDB";
paths = (
{
closed = 1;
nodes = (
"408 700 LINE",
"1 0 LINE",
"125 0 LINE",
"464 602 LINE",
"755 602 LINE",
"755 700 LINE"
);
},
{
closed = 1;
nodes = (
"189 265 LINE",
"186 173 LINE",
"550 173 LINE",
"553 265 LINE"
);
},
{
closed = 1;
nodes = (
"488 700 LINE",
"488 0 LINE",
"999 0 LINE",
"999 106 LINE",
"605 106 LINE",
"605 299 LINE",
"948 299 LINE",
"948 404 LINE",
"605 404 LINE",
"605 594 LINE",
"987 594 LINE",
"987 700 LINE"
);
}
);
width = 1051;
}
);
leftKerningGroup = A;
leftMetricsKey = A;
rightKerningGroup = E;
rightMetricsKey = E;
unicode = 00C6;
},
{
glyphname = B;
layers = (
{
layerId = "0684C2B6-4C69-4B0A-A52B-80982EBE3DDB";
paths = (
{
closed = 1;
nodes = (
"92 699.995 LINE",
"92 0 LINE",
"403 0 LINE SMOOTH",
"561 0 OFFCURVE",
"658 72 OFFCURVE",
"658 192 CURVE SMOOTH",
"658 286 OFFCURVE",
"602 353 OFFCURVE",
"508 369 CURVE",
"584 387 OFFCURVE",
"631 446 OFFCURVE",
"631 525 CURVE SMOOTH",
"631 634 OFFCURVE",
"541 700 OFFCURVE",
"396 700 CURVE SMOOTH"
);
},
{
closed = 1;
nodes = (
"483 306 OFFCURVE",
"537 269 OFFCURVE",
"537 207 CURVE SMOOTH",
"537 141 OFFCURVE",
"483 105 OFFCURVE",
"390 105 CURVE SMOOTH",
"210 105 LINE",
"210 306 LINE",
"390 306 LINE SMOOTH"
);
},
{
closed = 1;
nodes = (
"465 595 OFFCURVE",
"511 563 OFFCURVE",
"511 504 CURVE SMOOTH",
"511 445 OFFCURVE",
"465 410 OFFCURVE",
"390 410 CURVE SMOOTH",
"210 410 LINE",
"210 595 LINE",
"390 595 LINE SMOOTH"
);
}
);
width = 706;
}
);
leftKerningGroup = H;
rightKerningGroup = B;
unicode = 0042;
},
{
glyphname = C;
layers = (
{
anchors = (
{
name = bottom;
position = "{383, 0}";
},
{
name = top;
position = "{372, 700}";
}
);
layerId = "0684C2B6-4C69-4B0A-A52B-80982EBE3DDB";
paths = (
{
closed = 1;
nodes = (
"195 703 OFFCURVE",
"34 550 OFFCURVE",
"34 351 CURVE SMOOTH",
"34 150 OFFCURVE",
"193 -5 OFFCURVE",
"398 -5 CURVE SMOOTH",
"497 -5 OFFCURVE",
"598 40 OFFCURVE",
"669 110 CURVE",
"599 188 LINE",
"546 137 OFFCURVE",
"474 105 OFFCURVE",
"404 105 CURVE SMOOTH",
"264 105 OFFCURVE",
"154 214 OFFCURVE",
"154 352 CURVE SMOOTH",
"154 490 OFFCURVE",
"264 598 OFFCURVE",
"404 598 CURVE SMOOTH",
"475 598 OFFCURVE",
"548 564 OFFCURVE",
"599 509 CURVE",
"668 595 LINE",
"600 662 OFFCURVE",
"501 703 OFFCURVE",
"402 703 CURVE SMOOTH"
);
}
);
width = 697;
}
);
leftKerningGroup = O;
rightKerningGroup = C;
unicode = 0043;
},
{
glyphname = D;
layers = (
{
anchors = (
{
name = center;
position = "{385, 350}";
},
{
name = top;
position = "{365, 700}";
}
);
layerId = "0684C2B6-4C69-4B0A-A52B-80982EBE3DDB";
paths = (
{
closed = 1;
nodes = (
"92 699.995 LINE",
"92 0 LINE",
"376 0 LINE SMOOTH",
"588 0 OFFCURVE",
"741 148 OFFCURVE",
"741 350 CURVE SMOOTH",
"741 553 OFFCURVE",
"589 700 OFFCURVE",
"379 700 CURVE SMOOTH"
);
},
{
closed = 1;
nodes = (
"516 594 OFFCURVE",
"622 492 OFFCURVE",
"622 349 CURVE SMOOTH",
"622 207 OFFCURVE",
"518 106 OFFCURVE",
"383 106 CURVE SMOOTH",
"210 106 LINE",
"210 594 LINE",
"378 594 LINE SMOOTH"
);
}
);
width = 775;
}
);
leftKerningGroup = H;
rightKerningGroup = O;
unicode = 0044;
},
{
glyphname = Eth;
layers = (
{
components = (
{
name = D;
transform = "{1, 0, 0, 1, 20, 0}";
}
);
layerId = "0684C2B6-4C69-4B0A-A52B-80982EBE3DDB";
paths = (
{
closed = 1;
nodes = (
"0 386 LINE",
"0 317 LINE",
"428 317 LINE",
"428 386 LINE"
);
}
);
width = 795;
}
);
leftKerningGroup = H;
rightKerningGroup = O;
rightMetricsKey = D;
unicode = 00D0;
},
{
glyphname = E;
layers = (
{
anchors = (
{
name = bottom;
position = "{331, 0}";
},
{
name = ogonek;
position = "{600, 10}";
},
{
name = top;
position = "{344, 700}";
}
);
layerId = "0684C2B6-4C69-4B0A-A52B-80982EBE3DDB";
paths = (
{
closed = 1;
nodes = (
"92 700 LINE",
"92 0 LINE",
"604 0 LINE",
"604 106 LINE",
"210 106 LINE",
"210 299 LINE",
"552 299 LINE",
"552 405 LINE",
"210 405 LINE",
"210 594 LINE",
"592 594 LINE",
"592 700 LINE"
);
}
);
width = 656;
}
);
leftKerningGroup = H;
rightKerningGroup = E;
unicode = 0045;
},
{
glyphname = Eogonek;
layers = (
{
layerId = "0684C2B6-4C69-4B0A-A52B-80982EBE3DDB";
paths = (
{
closed = 1;
nodes = (
"92 699.995 LINE",
"92 0 LINE",
"488 0 LINE",
"453 -49 OFFCURVE",
"436 -87 OFFCURVE",
"436 -123 CURVE SMOOTH",
"436 -178 OFFCURVE",
"476 -201 OFFCURVE",
"514 -201 CURVE SMOOTH",
"551 -201 OFFCURVE",
"586 -180 OFFCURVE",
"610 -144 CURVE",
"577 -105 LINE",
"562 -124 OFFCURVE",
"545 -137 OFFCURVE",
"527 -137 CURVE SMOOTH",
"510 -137 OFFCURVE",
"497 -125 OFFCURVE",
"497 -105 CURVE SMOOTH",
"497 -82 OFFCURVE",
"511 -50 OFFCURVE",
"547 0 CURVE",
"613 0 LINE",
"613 98 LINE",
"210 98 LINE",
"210 307 LINE",
"561 307 LINE",
"561 404 LINE",
"210 404 LINE",
"210 602 LINE",
"601 602 LINE",
"601 699.995 LINE"
);
}
);
width = 665;
}
);
leftKerningGroup = H;
rightKerningGroup = E;
unicode = 0118;
},
{
glyphname = F;
layers = (
{
layerId = "0684C2B6-4C69-4B0A-A52B-80982EBE3DDB";
paths = (
{
closed = 1;
nodes = (
"92 699.995 LINE",
"92 0 LINE",
"210 0 LINE",
"210 287 LINE",
"528 287 LINE",
"528 392 LINE",
"210 392 LINE",
"210 594 LINE",
"561 594 LINE",
"562 700 LINE"
);
}
);
width = 575;
}
);
leftKerningGroup = H;
rightKerningGroup = F;
unicode = 0046;
},
{
glyphname = G;
layers = (
{
anchors = (
{
name = bottom;
position = "{387, 0}";
},
{
name = top;
position = "{387, 700}";
}
);
layerId = "0684C2B6-4C69-4B0A-A52B-80982EBE3DDB";
paths = (
{
closed = 1;
nodes = (
"197 703 OFFCURVE",
"34 550 OFFCURVE",
"34 350 CURVE SMOOTH",
"34 150 OFFCURVE",
"195 -5 OFFCURVE",
"402 -5 CURVE SMOOTH",
"498 -5 OFFCURVE",
"603 32 OFFCURVE",
"674 86 CURVE",
"606 173 LINE",
"550 129 OFFCURVE",
"475 101 OFFCURVE",
"410 101 CURVE SMOOTH",
"267 101 OFFCURVE",
"154 210 OFFCURVE",
"154 350 CURVE SMOOTH",
"154 489 OFFCURVE",
"266 598 OFFCURVE",
"409 598 CURVE SMOOTH",
"482 598 OFFCURVE",
"557 568 OFFCURVE",
"611 518 CURVE",
"678 605 LINE",
"609 665 OFFCURVE",
"509 703 OFFCURVE",
"409 703 CURVE SMOOTH"
);
},
{
closed = 1;
nodes = (
"571 344 LINE",
"571 86 LINE",
"674 86 LINE",
"674 344 LINE"
);
}
);
width = 749;
}
);
leftKerningGroup = O;
rightKerningGroup = G;
unicode = 0047;
},
{
glyphname = H;
layers = (
{
anchors = (
{
name = center;
position = "{396, 350}";
},
{
name = top;
position = "{400, 700}";
}
);
layerId = "0684C2B6-4C69-4B0A-A52B-80982EBE3DDB";
paths = (
{
closed = 1;
nodes = (
"581 700 LINE",
"581 396 LINE",
"210 396 LINE",
"210 700 LINE",
"92 699.995 LINE",
"92 0 LINE",
"210 0 LINE",
"210 290 LINE",
"581 290 LINE",
"581 0 LINE",
"699 0 LINE",
"699 700 LINE"
);
}
);
width = 791;
}
);
leftKerningGroup = H;
rightKerningGroup = H;
unicode = 0048;
},
{
glyphname = Hbar;
layers = (
{
components = (
{
name = H;
transform = "{1, 0, 0, 1, 30, 0}";
}
);
layerId = "0684C2B6-4C69-4B0A-A52B-80982EBE3DDB";
paths = (
{
closed = 1;
nodes = (
"32 598 LINE",
"32 515 LINE",
"819 515 LINE",
"819 598 LINE"
);
}
);
width = 851;
}
);
leftKerningGroup = H;
rightKerningGroup = H;
unicode = 0126;
},
{
glyphname = I;
layers = (
{
anchors = (
{
name = ogonek;
position = "{249, 10}";
},
{
name = top;
position = "{151, 700}";
}
);
layerId = "0684C2B6-4C69-4B0A-A52B-80982EBE3DDB";
paths = (
{
closed = 1;
nodes = (
"92 699.995 LINE",
"92 0 LINE",
"210 0 LINE",
"210 700 LINE"
);
}
);
width = 302;
}
);
leftKerningGroup = H;
rightKerningGroup = H;
unicode = 0049;
},
{
glyphname = Iogonek;
layers = (
{
layerId = "0684C2B6-4C69-4B0A-A52B-80982EBE3DDB";
paths = (
{
closed = 1;
nodes = (
"216 -105 LINE",
"201 -124 OFFCURVE",
"185 -137 OFFCURVE",
"166 -137 CURVE SMOOTH",
"149 -137 OFFCURVE",
"137 -125 OFFCURVE",
"137 -105 CURVE SMOOTH",
"137 -82 OFFCURVE",
"152 -48 OFFCURVE",
"186 0 CURVE",
"210 0 LINE",
"210 700 LINE",
"92 700 LINE",
"92 0 LINE",
"127 0 LINE",
"94 -47 OFFCURVE",
"75 -86 OFFCURVE",
"75 -123 CURVE SMOOTH",
"75 -178 OFFCURVE",
"115 -201 OFFCURVE",
"154 -201 CURVE SMOOTH",
"191 -201 OFFCURVE",
"226 -180 OFFCURVE",
"249 -144 CURVE"
);
}
);
width = 302;
}
);
leftKerningGroup = H;
rightKerningGroup = H;
unicode = 012E;
},
{
glyphname = J;
layers = (
{
anchors = (
{
name = top;
position = "{238, 700}";
}
);
layerId = "0684C2B6-4C69-4B0A-A52B-80982EBE3DDB";
paths = (
{
closed = 1;
nodes = (
"61 700 LINE",
"61 594 LINE",
"303 594 LINE",
"303 220 LINE SMOOTH",
"303 148 OFFCURVE",
"266 109 OFFCURVE",
"203 109 CURVE SMOOTH",
"155 109 OFFCURVE",
"100 136 OFFCURVE",
"54 186 CURVE",
"-2 96 LINE",
"50 32 OFFCURVE",
"120 -5 OFFCURVE",
"204 -5 CURVE SMOOTH",
"339 -5 OFFCURVE",
"422 75 OFFCURVE",
"422 216 CURVE SMOOTH",
"422 700 LINE"
);
}
);
width = 499;
}
);
leftKerningGroup = J;
rightKerningGroup = U;
unicode = 004A;
},
{
glyphname = K;
layers = (
{
anchors = (
{
name = bottom;
position = "{353, 0}";
},
{
name = top;
position = "{353, 700}";
}
);
layerId = "0684C2B6-4C69-4B0A-A52B-80982EBE3DDB";
paths = (
{
closed = 1;
nodes = (
"544 700 LINE",
"210 338 LINE",
"210 700 LINE",
"92 699.995 LINE",
"92 0 LINE",
"210 0 LINE",
"210 178 LINE",
"683 700 LINE"
);
},
{
closed = 1;
nodes = (
"321 319 LINE",
"559 0 LINE",
"701 0 LINE",
"399 419 LINE"
);
}
);
width = 718;
}
);
leftKerningGroup = H;
rightKerningGroup = X;
unicode = 004B;
},
{
glyphname = L;
layers = (
{
anchors = (
{
name = bottom;
position = "{290, 0}";
},
{
name = top;
position = "{153, 700}";
}
);
layerId = "0684C2B6-4C69-4B0A-A52B-80982EBE3DDB";
paths = (
{
closed = 1;
nodes = (
"92 699.995 LINE",
"92 0 LINE",
"513 0 LINE",
"513 107 LINE",
"210 107 LINE",
"210 700 LINE"
);
}
);
width = 534;
}
);
leftKerningGroup = H;
rightKerningGroup = L;
unicode = 004C;
},
{
glyphname = Lslash;
layers = (
{
components = (
{
name = L;
transform = "{1, 0, 0, 1, 17, 0}";
}
);
layerId = "0684C2B6-4C69-4B0A-A52B-80982EBE3DDB";
paths = (
{
closed = 1;
nodes = (
"6 420 LINE",
"26 344 LINE",
"406 455 LINE",
"386 532 LINE"
);
}
);
width = 551;
}
);
leftKerningGroup = H;
rightKerningGroup = L;
rightMetricsKey = L;
unicode = 0141;
},
{
glyphname = M;
layers = (
{
layerId = "0684C2B6-4C69-4B0A-A52B-80982EBE3DDB";
paths = (
{
closed = 1;
nodes = (
"693 700 LINE",
"463 235 LINE",
"232 700 LINE",
"92 700 LINE",
"92 0 LINE",
"203 0 LINE",
"203 523 LINE",
"424 73 LINE",
"501 73 LINE",
"722 523 LINE",
"723 0 LINE",
"832 0 LINE",
"832 700 LINE"
);
}
);
width = 925;
}
);
leftKerningGroup = H;
rightKerningGroup = H;
unicode = 004D;
},
{
glyphname = N;
layers = (
{
anchors = (
{
name = bottom;
position = "{396, 0}";
},
{
name = top;
position = "{396, 700}";
}
);
layerId = "0684C2B6-4C69-4B0A-A52B-80982EBE3DDB";
paths = (
{
closed = 1;
nodes = (
"583 700 LINE",
"583 197 LINE",
"208 700 LINE",
"92 700 LINE",
"92 0 LINE",
"210 0 LINE",
"210 502 LINE",
"583 0 LINE",
"699 0 LINE",
"699 700 LINE"
);
}
);
width = 792;
}
);
leftKerningGroup = H;
rightKerningGroup = H;
unicode = 004E;
},
{
glyphname = Eng;
layers = (
{
anchors = (
{
name = bottom;
position = "{396, 0}";
},
{
name = top;
position = "{396, 700}";
}
);
layerId = "0684C2B6-4C69-4B0A-A52B-80982EBE3DDB";
paths = (
{
closed = 1;
nodes = (
"580 -51 OFFCURVE",
"540 -90 OFFCURVE",
"479 -90 CURVE SMOOTH",
"437 -90 OFFCURVE",
"385 -72 OFFCURVE",
"341 -35 CURVE",
"285 -127 LINE",
"334 -176 OFFCURVE",
"401 -204 OFFCURVE",
"481 -204 CURVE SMOOTH",
"614 -204 OFFCURVE",
"699 -124 OFFCURVE",
"699 1 CURVE",
"580 21 LINE"
);
},
{
closed = 1;
nodes = (
"583 700 LINE",
"583 197 LINE",
"208 700 LINE",
"92 700 LINE",
"92 0 LINE",
"210 0 LINE",
"210 502 LINE",
"583 0 LINE",
"699 0 LINE",
"699 700 LINE"
);
}
);
width = 792;
}
);
leftKerningGroup = H;
rightKerningGroup = H;
unicode = 014A;
},
{
glyphname = O;
layers = (
{
anchors = (
{
name = top;
position = "{400, 700}";
}
);
layerId = "0684C2B6-4C69-4B0A-A52B-80982EBE3DDB";
paths = (
{
closed = 1;
nodes = (
"196 703 OFFCURVE",
"34 551 OFFCURVE",
"34 350 CURVE SMOOTH",
"34 150 OFFCURVE",
"196 -5 OFFCURVE",
"405 -5 CURVE SMOOTH",
"614 -5 OFFCURVE",
"776 150 OFFCURVE",
"776 350 CURVE SMOOTH",
"776 550 OFFCURVE",
"614 703 OFFCURVE",
"405 703 CURVE SMOOTH"
);
},
{
closed = 1;
nodes = (
"543 597 OFFCURVE",
"655 489 OFFCURVE",
"655 350 CURVE SMOOTH",
"655 211 OFFCURVE",
"543 101 OFFCURVE",
"406 101 CURVE SMOOTH",
"269 101 OFFCURVE",
"154 211 OFFCURVE",
"154 350 CURVE SMOOTH",
"154 489 OFFCURVE",
"268 597 OFFCURVE",
"406 597 CURVE SMOOTH"
);
}
);
width = 810;
}
);
leftKerningGroup = O;
rightKerningGroup = O;
unicode = 004F;
},
{
glyphname = Oslash;
layers = (
{
anchors = (
{
name = top;
position = "{397, 700}";
}
);
components = (
{
name = O;
}
);
layerId = "0684C2B6-4C69-4B0A-A52B-80982EBE3DDB";
paths = (
{
closed = 1;
nodes = (
"517 811 LINE",
"201 -122 LINE",
"270 -122 LINE",
"587 811 LINE"
);
}
);
width = 810;
}
);
leftKerningGroup = O;
leftMetricsKey = O;
rightKerningGroup = O;
rightMetricsKey = O;
unicode = 00D8;
},
{
glyphname = OE;
layers = (
{
anchors = (
{
name = bottom;
position = "{772, 0}";
},
{
name = ogonek;
position = "{1041, 10}";
},
{
name = top;
position = "{551, 700}";
}
);
layerId = "0684C2B6-4C69-4B0A-A52B-80982EBE3DDB";
paths = (
{
closed = 1;
nodes = (
"404 700 LINE",
"195 700 OFFCURVE",
"34 546 OFFCURVE",
"34 350 CURVE SMOOTH",
"34 152 OFFCURVE",
"196 0 OFFCURVE",
"404 0 CURVE",
"568 0 LINE",
"569 106 LINE",
"405 106 LINE",
"264 106 OFFCURVE",
"154 210 OFFCURVE",
"154 349 CURVE SMOOTH",
"154 488 OFFCURVE",
"264 593 OFFCURVE",
"405 593 CURVE",
"560 593 LINE",
"561 700 LINE"
);
},
{
closed = 1;
nodes = (
"533 700 LINE",
"533 0 LINE",
"1045 0 LINE",
"1045 106 LINE",
"651 106 LINE",
"651 299 LINE",
"993 299 LINE",
"993 404 LINE",
"651 404 LINE",
"651 594 LINE",
"1033 594 LINE",
"1033 700 LINE"
);
}
);
width = 1097;
}
);
leftKerningGroup = O;
leftMetricsKey = O;
rightKerningGroup = E;
rightMetricsKey = E;
unicode = 0152;
},
{
glyphname = P;
layers = (
{
layerId = "0684C2B6-4C69-4B0A-A52B-80982EBE3DDB";
paths = (
{
closed = 1;
nodes = (
"92 699.995 LINE",
"92 0 LINE",
"210 0 LINE",
"210 211 LINE",
"371 211 LINE SMOOTH",
"547 211 OFFCURVE",
"648 303 OFFCURVE",
"648 461 CURVE SMOOTH",
"648 613 OFFCURVE",
"547 699.995 OFFCURVE",
"371 700 CURVE SMOOTH"
);
},
{
closed = 1;
nodes = (
"474 594 OFFCURVE",
"536 550 OFFCURVE",
"536 458 CURVE SMOOTH",
"536 363 OFFCURVE",
"474 317 OFFCURVE",
"366 317 CURVE SMOOTH",
"210 317 LINE",
"210 594 LINE",
"366 594 LINE SMOOTH"
);
}
);
width = 673;
}
);
leftKerningGroup = H;
rightKerningGroup = P;
unicode = 0050;
},
{
glyphname = Thorn;
layers = (
{
layerId = "0684C2B6-4C69-4B0A-A52B-80982EBE3DDB";
paths = (
{
closed = 1;
nodes = (
"185 601 LINE",
"201 503 LINE",
"352 503 LINE SMOOTH",
"471 503 OFFCURVE",
"533 455 OFFCURVE",
"533 364 CURVE SMOOTH",
"533 269 OFFCURVE",
"471 220 OFFCURVE",
"352 220 CURVE SMOOTH",
"202 220 LINE",
"202 122 LINE",
"357 122 LINE SMOOTH",
"547 122 OFFCURVE",
"654 211 OFFCURVE",
"654 367 CURVE SMOOTH",
"654 516 OFFCURVE",
"547 601 OFFCURVE",
"357 601 CURVE SMOOTH"
);
},
{
closed = 1;
nodes = (
"92 699.995 LINE",
"92 0 LINE",
"210 0 LINE",
"210 700 LINE"
);
}
);
width = 679;
}
);
leftKerningGroup = H;
leftMetricsKey = H;
rightKerningGroup = Thorn;
rightMetricsKey = P;
unicode = 00DE;
},
{
glyphname = Q;
layers = (
{
components = (
{
name = O;
}
);
layerId = "0684C2B6-4C69-4B0A-A52B-80982EBE3DDB";
paths = (
{
closed = 1;
nodes = (
"401 0 LINE",
"457 -97 OFFCURVE",
"537 -154 OFFCURVE",
"627 -154 CURVE SMOOTH",
"692 -154 OFFCURVE",
"763 -125 OFFCURVE",
"817 -77 CURVE",
"770 6 LINE",
"724 -30 OFFCURVE",
"678 -52 OFFCURVE",
"641 -52 CURVE SMOOTH",
"593 -52 OFFCURVE",
"547 -18 OFFCURVE",
"503 38 CURVE"
);
}
);
width = 825;
}
);
leftKerningGroup = O;
rightKerningGroup = O;
unicode = 0051;
},
{
glyphname = R;
layers = (
{
anchors = (
{
name = bottom;
position = "{360, 0}";
},
{
name = top;
position = "{355, 700}";
}
);
layerId = "0684C2B6-4C69-4B0A-A52B-80982EBE3DDB";
paths = (
{
closed = 1;
nodes = (
"92 699.995 LINE",
"92 0 LINE",
"210 0 LINE",
"210 211 LINE",
"376 211 LINE SMOOTH",
"555 211 OFFCURVE",
"658 303 OFFCURVE",
"658 461 CURVE SMOOTH",
"658 613 OFFCURVE",
"555 700 OFFCURVE",
"376 700 CURVE SMOOTH"
);
},
{
closed = 1;
nodes = (
"380 259 LINE",
"536 0 LINE",
"671 0 LINE",
"497 259 LINE"
);
},
{
closed = 1;
nodes = (
"485 594 OFFCURVE",
"546 550 OFFCURVE",
"546 458 CURVE SMOOTH",
"546 363 OFFCURVE",
"485 317 OFFCURVE",
"377 317 CURVE SMOOTH",
"210 317 LINE",
"210 594 LINE",
"377 594 LINE SMOOTH"
);
}
);
width = 723;
}
);
leftKerningGroup = H;
rightKerningGroup = R;
unicode = 0052;
},
{
glyphname = S;
layers = (
{
anchors = (
{
name = bottom;
position = "{316, 0}";
},
{
name = top;
position = "{319, 700}";
}
);
layerId = "0684C2B6-4C69-4B0A-A52B-80982EBE3DDB";
paths = (
{
closed = 1;
nodes = (
"170 705 OFFCURVE",
"67 630 OFFCURVE",
"67 510 CURVE SMOOTH",
"67 261 OFFCURVE",
"445 348 OFFCURVE",
"445 192 CURVE SMOOTH",
"445 138 OFFCURVE",
"396 107 OFFCURVE",
"314 107 CURVE SMOOTH",
"239 107 OFFCURVE",
"149 143 OFFCURVE",
"77 209 CURVE",
"26 107 LINE",
"98 41 OFFCURVE",
"202 -4 OFFCURVE",
"312 -4 CURVE SMOOTH",
"466 -4 OFFCURVE",
"576 73 OFFCURVE",
"576 198 CURVE SMOOTH",
"577 450 OFFCURVE",
"199 368 OFFCURVE",
"199 521 CURVE SMOOTH",
"199 568 OFFCURVE",
"244 594 OFFCURVE",
"313 594 CURVE SMOOTH",
"366 594 OFFCURVE",
"442 575 OFFCURVE",
"518 529 CURVE",
"567 633 LINE",
"502 676 OFFCURVE",
"413 705 OFFCURVE",
"322 705 CURVE SMOOTH"
);
}
);
width = 622;
}
);
leftKerningGroup = S;
rightKerningGroup = S;
unicode = 0053;
},
{
glyphname = T;
layers = (
{
anchors = (
{
name = bottom;
position = "{276, 0}";
},
{
name = center;
position = "{283, 350}";
},
{
name = top;
position = "{297, 700}";
}
);
layerId = "0684C2B6-4C69-4B0A-A52B-80982EBE3DDB";
paths = (
{
closed = 1;
nodes = (
"9 700 LINE",
"9 594 LINE",
"230 594 LINE",
"230 0 LINE",
"348 0 LINE",
"348 594 LINE",
"570 594 LINE",
"570 700 LINE"
);
}
);
width = 579;
}
);
leftKerningGroup = T;
rightKerningGroup = T;
unicode = 0054;
},
{
glyphname = U;
layers = (
{
anchors = (
{
name = ogonek;
position = "{543, 10}";
},
{
name = top;
position = "{382, 700}";
}
);
layerId = "0684C2B6-4C69-4B0A-A52B-80982EBE3DDB";
paths = (
{
closed = 1;
nodes = (
"569 700 LINE",
"569 290 LINE SMOOTH",
"569 171 OFFCURVE",
"498 101 OFFCURVE",
"384 101 CURVE SMOOTH",
"270 101 OFFCURVE",
"196 172 OFFCURVE",
"196 290 CURVE SMOOTH",
"196 700 LINE",
"78 700 LINE",
"78 290 LINE SMOOTH",
"78 107 OFFCURVE",
"195 -5 OFFCURVE",
"384 -5 CURVE SMOOTH",
"572 -5 OFFCURVE",
"687 107 OFFCURVE",
"687 290 CURVE SMOOTH",
"687 700 LINE"
);
}
);
width = 764;
}
);
leftKerningGroup = U;
rightKerningGroup = U;
unicode = 0055;
},
{
glyphname = Uogonek;
layers = (
{
layerId = "0684C2B6-4C69-4B0A-A52B-80982EBE3DDB";
paths = (
{
closed = 1;
nodes = (
"569 700 LINE",
"569 290 LINE SMOOTH",
"569 171 OFFCURVE",
"498 101 OFFCURVE",
"384 101 CURVE SMOOTH",
"269 101 OFFCURVE",
"195 172 OFFCURVE",
"195 290 CURVE SMOOTH",
"195 700 LINE",
"78 700 LINE",
"78 290 LINE SMOOTH",
"78 107 OFFCURVE",
"194 -5 OFFCURVE",
"383 -5 CURVE SMOOTH",
"571 -5 OFFCURVE",
"687 107 OFFCURVE",
"687 290 CURVE SMOOTH",
"687 700 LINE"
);
},
{
closed = 1;
nodes = (
"430 14 LINE",
"391 -39 OFFCURVE",
"369 -83 OFFCURVE",
"369 -123 CURVE SMOOTH",
"369 -178 OFFCURVE",
"409 -201 OFFCURVE",
"448 -201 CURVE SMOOTH",
"485 -201 OFFCURVE",
"520 -180 OFFCURVE",
"543 -144 CURVE",
"510 -105 LINE",
"495 -124 OFFCURVE",
"479 -137 OFFCURVE",
"460 -137 CURVE SMOOTH",
"443 -137 OFFCURVE",
"431 -125 OFFCURVE",
"431 -105 CURVE SMOOTH",
"431 -80 OFFCURVE",
"449 -42 OFFCURVE",
"489 14 CURVE"
);
}
);
width = 765;
}
);
leftKerningGroup = U;
rightKerningGroup = U;
unicode = 0172;
},
{
glyphname = V;
layers = (
{
layerId = "0684C2B6-4C69-4B0A-A52B-80982EBE3DDB";
paths = (
{
closed = 1;
nodes = (
"564 700 LINE",
"346 131 LINE",
"130 700 LINE",
"3 700 LINE",
"282 0 LINE",
"404 0 LINE",
"687 700 LINE"
);
}
);
width = 690;
}
);
leftKerningGroup = V;
rightKerningGroup = V;
unicode = 0056;
},
{
glyphname = W;
layers = (
{
anchors = (
{
name = top;
position = "{525, 700}";
}
);
layerId = "0684C2B6-4C69-4B0A-A52B-80982EBE3DDB";
paths = (
{
closed = 1;
nodes = (
"924 699.995 LINE",
"755 131 LINE",
"585 700 LINE",
"469 700 LINE",
"300 131 LINE",
"130 700 LINE",
"3 700 LINE",
"235 0 LINE",
"357 0 LINE",
"525 546 LINE",
"691 0 LINE",
"812 0 LINE",
"1046 700 LINE"
);
}
);
width = 1036;
}
);
leftKerningGroup = V;
rightKerningGroup = V;
unicode = 0057;
},
{
glyphname = X;
layers = (
{
layerId = "0684C2B6-4C69-4B0A-A52B-80982EBE3DDB";
paths = (
{
closed = 1;
nodes = (
"512 700 LINE",
"341 457 LINE",
"170 700 LINE",
"32 700 LINE",
"269 359 LINE",
"15 0 LINE",
"153 0 LINE",
"341 264 LINE",
"530 0 LINE",
"671 0 LINE",
"415 364 LINE",
"651 700 LINE"
);
}
);
width = 692;
}
);
leftKerningGroup = X;
rightKerningGroup = X;
unicode = 0058;
},
{
glyphname = Y;
layers = (
{
anchors = (
{
name = top;
position = "{318, 700}";
}
);
layerId = "0684C2B6-4C69-4B0A-A52B-80982EBE3DDB";
paths = (
{
closed = 1;
nodes = (
"516 700 LINE",
"320 359 LINE",
"120 700 LINE",
"1 700 LINE",
"312 140 LINE",
"328 140 LINE",
"636 700 LINE"
);
},
{
closed = 1;
nodes = (
"262 296 LINE",
"262 0 LINE",
"380 0 LINE",
"380 296 LINE"
);
}
);
width = 637;
}
);
leftKerningGroup = V;
rightKerningGroup = V;
unicode = 0059;
},
{
glyphname = Z;
layers = (
{
anchors = (
{
name = top;
position = "{342, 700}";
}
);
layerId = "0684C2B6-4C69-4B0A-A52B-80982EBE3DDB";
paths = (
{
closed = 1;
nodes = (
"50 700 LINE",
"50 594 LINE",
"464 594 LINE",
"37 85 LINE",
"37 0 LINE",
"628 0 LINE",
"628 106 LINE",
"197 106 LINE",
"623 615 LINE",
"623 700 LINE"
);
}
);
width = 666;
}
);
leftKerningGroup = Z;
rightKerningGroup = Z;
unicode = 005A;
},
{
glyphname = A.ss01;
layers = (
{
anchors = (
{
name = ogonek;
position = "{727, 10}";
},
{
name = top;
position = "{383, 700}";
}
);
layerId = "0684C2B6-4C69-4B0A-A52B-80982EBE3DDB";
paths = (
{
closed = 1;
nodes = (
"194 704 OFFCURVE",
"78 591 OFFCURVE",
"78 409 CURVE SMOOTH",
"78 0 LINE",
"196 0 LINE",
"196 187 LINE",
"572 187 LINE",
"572 0 LINE",
"690 0 LINE",
"690 409 LINE SMOOTH",
"690 591 OFFCURVE",
"573 704 OFFCURVE",
"383 704 CURVE SMOOTH"
);
},
{
closed = 1;
nodes = (
"500 598 OFFCURVE",
"571 526 OFFCURVE",
"571 409 CURVE SMOOTH",
"572 292 LINE",
"195 292 LINE",
"195 409 LINE SMOOTH",
"195 526 OFFCURVE",
"266 598 OFFCURVE",
"383 598 CURVE SMOOTH"
);
}
);
width = 767;
}
);
leftKerningGroup = A.ss01;
leftMetricsKey = U;
rightKerningGroup = A.ss01;
rightMetricsKey = U;
},
{
glyphname = Aogonek.ss01;
layers = (
{
layerId = "0684C2B6-4C69-4B0A-A52B-80982EBE3DDB";
paths = (
{
closed = 1;
nodes = (
"194 704 OFFCURVE",
"78 591 OFFCURVE",
"78 409 CURVE SMOOTH",
"78 0 LINE",
"196 0 LINE",
"196 187 LINE",
"572 187 LINE",
"572 0 LINE",
"607 0 LINE",
"574 -47 OFFCURVE",
"555 -86 OFFCURVE",
"555 -123 CURVE SMOOTH",
"555 -178 OFFCURVE",
"595 -201 OFFCURVE",
"634 -201 CURVE SMOOTH",
"671 -201 OFFCURVE",
"706 -180 OFFCURVE",
"729 -144 CURVE",
"696 -105 LINE",
"681 -124 OFFCURVE",
"665 -137 OFFCURVE",
"646 -137 CURVE SMOOTH",
"629 -137 OFFCURVE",
"617 -125 OFFCURVE",
"617 -105 CURVE SMOOTH",
"617 -82 OFFCURVE",
"632 -48 OFFCURVE",
"666 0 CURVE",
"690 0 LINE",
"690 409 LINE SMOOTH",
"690 591 OFFCURVE",
"573 704 OFFCURVE",
"383 704 CURVE SMOOTH"
);
},
{
closed = 1;
nodes = (
"500 598 OFFCURVE",
"571 526 OFFCURVE",
"571 409 CURVE SMOOTH",
"571 292 LINE",
"195 292 LINE",
"195 409 LINE SMOOTH",
"195 526 OFFCURVE",
"266 598 OFFCURVE",
"383 598 CURVE SMOOTH"
);
}
);
width = 774;
}
);
leftKerningGroup = Aogonek.ss01;
rightKerningGroup = Aogonek.ss01;
},
{
glyphname = E.ss01;
layers = (
{
anchors = (
{
name = bottom;
position = "{292, 0}";
},
{
name = ogonek;
position = "{525, 10}";
},
{
name = top;
position = "{292, 700}";
}
);
layerId = "0684C2B6-4C69-4B0A-A52B-80982EBE3DDB";
paths = (
{
closed = 1;
nodes = (
"181 705 OFFCURVE",
"79 631 OFFCURVE",
"79 526 CURVE SMOOTH",
"79 451 OFFCURVE",
"130 389 OFFCURVE",
"202 370 CURVE",
"106 348 OFFCURVE",
"44 274 OFFCURVE",
"44 190 CURVE SMOOTH",
"44 75 OFFCURVE",
"159 -5 OFFCURVE",
"317 -5 CURVE SMOOTH",
"407 -5 OFFCURVE",
"507 22 OFFCURVE",
"565 58 CURVE",
"519 150 LINE",
"476 125 OFFCURVE",
"391 99 OFFCURVE",
"322 99 CURVE SMOOTH",
"234 99 OFFCURVE",
"165 138 OFFCURVE",
"165 203 CURVE SMOOTH",
"165 265 OFFCURVE",
"230 311 OFFCURVE",
"321 311 CURVE SMOOTH",
"463 311 LINE",
"463 416 LINE",
"321 416 LINE SMOOTH",
"243 416 OFFCURVE",
"190 458 OFFCURVE",
"190 512 CURVE SMOOTH",
"190 571 OFFCURVE",
"252 601 OFFCURVE",
"335 601 CURVE SMOOTH",
"387 601 OFFCURVE",
"451 588 OFFCURVE",
"498 567 CURVE",
"537 660 LINE",
"487 687 OFFCURVE",
"399 705 OFFCURVE",
"329 705 CURVE SMOOTH"
);
}
);
width = 583;
}
);
leftKerningGroup = E.ss01;
leftMetricsKey = eight;
rightKerningGroup = E.ss01;
},
{
glyphname = Eogonek.ss01;
layers = (
{
layerId = "0684C2B6-4C69-4B0A-A52B-80982EBE3DDB";
paths = (
{
closed = 1;
nodes = (
"181 705 OFFCURVE",
"79 631 OFFCURVE",
"79 526 CURVE SMOOTH",
"79 451 OFFCURVE",
"130 389 OFFCURVE",
"202 370 CURVE",
"106 348 OFFCURVE",
"44 274 OFFCURVE",
"44 190 CURVE SMOOTH",
"44 75 OFFCURVE",
"159 -5 OFFCURVE",
"317 -5 CURVE SMOOTH",
"407 -5 OFFCURVE",
"507 22 OFFCURVE",
"565 58 CURVE",
"519 150 LINE",
"476 125 OFFCURVE",
"391 99 OFFCURVE",
"322 99 CURVE SMOOTH",
"234 99 OFFCURVE",
"165 138 OFFCURVE",
"165 203 CURVE SMOOTH",
"165 265 OFFCURVE",
"230 311 OFFCURVE",
"321 311 CURVE SMOOTH",
"463 311 LINE",
"463 416 LINE",
"321 416 LINE SMOOTH",
"243 416 OFFCURVE",
"190 458 OFFCURVE",
"190 512 CURVE SMOOTH",
"190 571 OFFCURVE",
"252 601 OFFCURVE",
"335 601 CURVE SMOOTH",
"387 601 OFFCURVE",
"451 588 OFFCURVE",
"498 567 CURVE",
"537 660 LINE",
"487 687 OFFCURVE",
"399 705 OFFCURVE",
"329 705 CURVE SMOOTH"
);
},
{
closed = 1;
nodes = (
"412 14 LINE",
"373 -38 OFFCURVE",
"351 -82 OFFCURVE",
"351 -123 CURVE SMOOTH",
"351 -178 OFFCURVE",
"391 -201 OFFCURVE",
"430 -201 CURVE SMOOTH",
"466 -201 OFFCURVE",
"502 -180 OFFCURVE",
"525 -144 CURVE",
"492 -105 LINE",
"477 -124 OFFCURVE",
"460 -137 OFFCURVE",
"442 -137 CURVE SMOOTH",
"425 -137 OFFCURVE",
"412 -125 OFFCURVE",
"412 -105 CURVE SMOOTH",
"412 -74 OFFCURVE",
"437 -28 OFFCURVE",
"491 39 CURVE"
);
}
);
width = 583;
}
);
leftKerningGroup = Eogonek.ss01;
rightKerningGroup = Eogonek.ss01;
},
{
glyphname = F.ss01;
layers = (
{
layerId = "0684C2B6-4C69-4B0A-A52B-80982EBE3DDB";
paths = (
{
closed = 1;
nodes = (
"196 0 LINE",
"196 476 LINE SMOOTH",
"196 550 OFFCURVE",
"245 599 OFFCURVE",
"321 599 CURVE SMOOTH",
"375 599 OFFCURVE",
"447 581 OFFCURVE",
"500 556 CURVE",
"528 661 LINE",
"472 687 OFFCURVE",
"389 705 OFFCURVE",
"311 705 CURVE SMOOTH",
"169 705 OFFCURVE",
"78 616 OFFCURVE",
"78 478 CURVE SMOOTH",
"78 0 LINE"
);
},
{
closed = 1;
nodes = (
"107 377 LINE",
"107 272 LINE SMOOTH",
"469 272 LINE",
"469 377 LINE"
);
}
);
width = 532;
}
);
leftKerningGroup = F.ss01;
leftMetricsKey = U;
rightKerningGroup = F.ss01;
},
{
glyphname = G.ss01;
layers = (
{
anchors = (
{
name = bottom;
position = "{376, 0}";
},
{
name = top;
position = "{376, 700}";
}
);
layerId = "0684C2B6-4C69-4B0A-A52B-80982EBE3DDB";
paths = (
{
closed = 1;
nodes = (
"197 703 OFFCURVE",
"34 550 OFFCURVE",
"34 350 CURVE SMOOTH",
"34 150 OFFCURVE",
"190 -5 OFFCURVE",
"391 -5 CURVE SMOOTH",
"490 -5 OFFCURVE",
"589 51 OFFCURVE",
"647 130 CURVE",
"589 198 LINE",
"548 139 OFFCURVE",
"478 101 OFFCURVE",
"403 101 CURVE SMOOTH",
"264 101 OFFCURVE",
"154 210 OFFCURVE",
"154 350 CURVE SMOOTH",
"154 489 OFFCURVE",
"267 598 OFFCURVE",
"409 598 CURVE SMOOTH",
"483 598 OFFCURVE",
"557 568 OFFCURVE",
"611 518 CURVE",
"679 605 LINE",
"609 665 OFFCURVE",
"508 703 OFFCURVE",
"408 703 CURVE SMOOTH"
);
},
{
closed = 1;
nodes = (
"571 356 LINE",
"571 105 LINE",
"585 91 LINE",
"585 0 LINE",
"674 0 LINE",
"674 356 LINE"
);
}
);
width = 750;
}
);
leftKerningGroup = O;
leftMetricsKey = O;
rightKerningGroup = G;
},
{
glyphname = I.ss01;
layers = (
{
anchors = (
{
name = ogonek;
position = "{435, 10}";
},
{
name = top;
position = "{242, 700}";
}
);
layerId = "0684C2B6-4C69-4B0A-A52B-80982EBE3DDB";
paths = (
{
closed = 1;
nodes = (
"51 594 LINE",
"433 594 LINE",
"433 700 LINE",
"51 700 LINE"
);
},
{
closed = 1;
nodes = (
"51 0 LINE",
"433 0 LINE",
"433 106 LINE",
"51 106 LINE"
);
},
{
closed = 1;
nodes = (
"183 700 LINE",
"183 0 LINE",
"301 0 LINE",
"301 700 LINE"
);
}
);
width = 484;
}
);
leftKerningGroup = I.ss01;
rightKerningGroup = I.ss01;
},
{
glyphname = J.ss01;
layers = (
{
anchors = (
{
name = top;
position = "{255, 700}";
}
);
layerId = "0684C2B6-4C69-4B0A-A52B-80982EBE3DDB";
paths = (
{
closed = 1;
nodes = (
"61 700 LINE",
"61 594 LINE",
"303 594 LINE",
"303 120 LINE SMOOTH",
"303 48 OFFCURVE",
"266 9 OFFCURVE",
"203 9 CURVE SMOOTH",
"155 9 OFFCURVE",
"100 36 OFFCURVE",
"54 86 CURVE",
"-2 -4 LINE",
"50 -68 OFFCURVE",
"120 -105 OFFCURVE",
"203 -105 CURVE SMOOTH",
"339 -105 OFFCURVE",
"422 -25 OFFCURVE",
"422 116 CURVE SMOOTH",
"422 700 LINE"
);
}
);
width = 499;
}
);
leftKerningGroup = J.ss01;
leftMetricsKey = J;
rightKerningGroup = J.ss01;
rightMetricsKey = J;
},
{
glyphname = M.ss01;
layers = (
{
anchors = (
{
name = ogonek;
position = "{249, 10}";
},
{
name = top;
position = "{151, 700}";
}
);
layerId = "0684C2B6-4C69-4B0A-A52B-80982EBE3DDB";
paths = (
{
closed = 1;
nodes = (
"267 698 OFFCURVE",
"157 579 OFFCURVE",
"157 406 CURVE",
"209 376 LINE",
"209 492 OFFCURVE",
"285 584 OFFCURVE",
"391 586 CURVE SMOOTH",
"482 586 OFFCURVE",
"544 516 OFFCURVE",
"544 416 CURVE SMOOTH",
"544 0 LINE",
"663 0 LINE",
"663 444 LINE SMOOTH",
"663 596 OFFCURVE",
"567 700 OFFCURVE",
"433 700 CURVE SMOOTH"
);
},
{
closed = 1;
nodes = (
"722 698 OFFCURVE",
"612 579 OFFCURVE",
"612 406 CURVE",
"664 376 LINE",
"664 492 OFFCURVE",
"740 584 OFFCURVE",
"846 586 CURVE SMOOTH",
"937 586 OFFCURVE",
"999 516 OFFCURVE",
"999 416 CURVE SMOOTH",
"999 0 LINE",
"1118 0 LINE",
"1118 444 LINE SMOOTH",
"1118 596 OFFCURVE",
"1021 700 OFFCURVE",
"887 700 CURVE SMOOTH"
);
},
{
closed = 1;
nodes = (
"92 699.995 LINE",
"92 0 LINE",
"210 0 LINE",
"210 700 LINE"
);
}
);
width = 1195;
}
);
leftKerningGroup = M.ss01;
leftMetricsKey = H;
rightKerningGroup = M.ss01;
rightMetricsKey = U;
},
{
glyphname = N.ss01;
layers = (
{
anchors = (
{
name = bottom;
position = "{385, 0}";
},
{
name = ogonek;
position = "{249, 10}";
},
{
name = top;
position = "{385, 700}";
}
);
layerId = "0684C2B6-4C69-4B0A-A52B-80982EBE3DDB";
paths = (
{
closed = 1;
nodes = (
"274 698 OFFCURVE",
"156 579 OFFCURVE",
"156 406 CURVE",
"209 376 LINE",
"209 492 OFFCURVE",
"291 584 OFFCURVE",
"407 586 CURVE SMOOTH",
"505 586 OFFCURVE",
"572 517 OFFCURVE",
"572 416 CURVE SMOOTH",
"572 0 LINE",
"692 0 LINE",
"692 444 LINE SMOOTH",
"692 596 OFFCURVE",
"590 700 OFFCURVE",
"448 700 CURVE SMOOTH"
);
},
{
closed = 1;
nodes = (
"92 699.995 LINE",
"92 0 LINE",
"210 0 LINE",
"210 700 LINE"
);
}
);
width = 769;
}
);
leftKerningGroup = N.ss01;
leftMetricsKey = H;
rightKerningGroup = N.ss01;
rightMetricsKey = U;
},
{
glyphname = Eng.ss01;
layers = (
{
anchors = (
{
name = bottom;
position = "{385, 0}";
},
{
name = ogonek;
position = "{249, 10}";
},
{
name = top;
position = "{385, 700}";
}
);
layerId = "0684C2B6-4C69-4B0A-A52B-80982EBE3DDB";
paths = (
{
closed = 1;
nodes = (
"573 -52 OFFCURVE",
"533 -90 OFFCURVE",
"472 -90 CURVE SMOOTH",
"430 -90 OFFCURVE",
"378 -72 OFFCURVE",
"334 -35 CURVE",
"278 -127 LINE",
"327 -176 OFFCURVE",
"394 -204 OFFCURVE",
"474 -204 CURVE SMOOTH",
"607 -204 OFFCURVE",
"692 -125 OFFCURVE",
"692 0 CURVE",
"573 19 LINE"
);
},
{
closed = 1;
nodes = (
"274 698 OFFCURVE",
"156 579 OFFCURVE",
"156 406 CURVE",
"209 376 LINE",
"209 492 OFFCURVE",
"291 584 OFFCURVE",
"407 586 CURVE SMOOTH",
"505 586 OFFCURVE",
"572 517 OFFCURVE",
"572 416 CURVE SMOOTH",
"572 0 LINE",
"692 0 LINE",
"692 444 LINE SMOOTH",
"692 596 OFFCURVE",
"590 700 OFFCURVE",
"448 700 CURVE SMOOTH"
);
},
{
closed = 1;
nodes = (
"92 699.995 LINE",
"92 0 LINE",
"210 0 LINE",
"210 700 LINE"
);
}
);
width = 770;
}
);
leftKerningGroup = H;
rightKerningGroup = H;
},
{
glyphname = Q.ss01;
layers = (
{
components = (
{
name = O;
}
);
layerId = "0684C2B6-4C69-4B0A-A52B-80982EBE3DDB";
paths = (
{
closed = 1;
nodes = (
"349 -125 LINE",
"450 -125 LINE",
"450 269 LINE",
"349 269 LINE"
);
}
);
width = 810;
}
);
leftKerningGroup = O;
leftMetricsKey = O;
rightKerningGroup = O;
rightMetricsKey = O;
},
{
glyphname = T.ss01;
layers = (
{
anchors = (
{
name = bottom;
position = "{313, 0}";
},
{
name = center;
position = "{327, 350}";
},
{
name = top;
position = "{327, 700}";
}
);
layerId = "0684C2B6-4C69-4B0A-A52B-80982EBE3DDB";
paths = (
{
closed = 1;
nodes = (
"218 705 OFFCURVE",
"113 679 OFFCURVE",
"27 632 CURVE",
"68 529 LINE",
"142 569 OFFCURVE",
"233 592 OFFCURVE",
"323 592 CURVE SMOOTH",
"414 592 OFFCURVE",
"504 569 OFFCURVE",
"580 529 CURVE",
"621 631 LINE",
"533 679 OFFCURVE",
"429 705 OFFCURVE",
"323 705 CURVE SMOOTH"
);
},
{
closed = 1;
nodes = (
"265 644 LINE",
"265 0 LINE",
"383 0 LINE",
"383 644 LINE"
);
}
);
width = 653;
}
);
leftKerningGroup = T;
rightKerningGroup = T;
},
{
glyphname = W.ss01;
layers = (
{
anchors = (
{
name = top;
position = "{590, 700}";
}
);
layerId = "0684C2B6-4C69-4B0A-A52B-80982EBE3DDB";
paths = (
{
closed = 1;
nodes = (
"985 700 LINE",
"985 260 LINE SMOOTH",
"985 165 OFFCURVE",
"920 101 OFFCURVE",
"820 101 CURVE SMOOTH",
"720 101 OFFCURVE",
"650 165 OFFCURVE",
"650 260 CURVE SMOOTH",
"650 700 LINE",
"532 700 LINE",
"532 260 LINE SMOOTH",
"531 165 OFFCURVE",
"464 101 OFFCURVE",
"362 101 CURVE SMOOTH",
"263 101 OFFCURVE",
"196 165 OFFCURVE",
"196 260 CURVE SMOOTH",
"196 700 LINE",
"78 700 LINE",
"78 260 LINE SMOOTH",
"78 103 OFFCURVE",
"187 -5 OFFCURVE",
"345 -5 CURVE SMOOTH",
"458 -5 OFFCURVE",
"554 51 OFFCURVE",
"591 132 CURVE",
"629 51 OFFCURVE",
"724 -5 OFFCURVE",
"837 -5 CURVE SMOOTH",
"994 -5 OFFCURVE",
"1102 103 OFFCURVE",
"1102 260 CURVE SMOOTH",
"1102 700 LINE"
);
}
);
width = 1179;
}
);
leftKerningGroup = W.ss01;
leftMetricsKey = U;
rightKerningGroup = W.ss01;
rightMetricsKey = U;
},
{
glyphname = Y.ss01;
layers = (
{
anchors = (
{
name = top;
position = "{370, 700}";
}
);
layerId = "0684C2B6-4C69-4B0A-A52B-80982EBE3DDB";
paths = (
{
closed = 1;
nodes = (
"492 158 OFFCURVE",
"597 280 OFFCURVE",
"597 459 CURVE",
"546 476 LINE",
"546 353 OFFCURVE",
"469 266 OFFCURVE",
"362 265 CURVE SMOOTH",
"264 265 OFFCURVE",
"196 333 OFFCURVE",
"196 429 CURVE SMOOTH",
"196 700 LINE",
"78 700 LINE",
"78 418 LINE SMOOTH",
"78 263 OFFCURVE",
"185 156 OFFCURVE",
"338 156 CURVE SMOOTH"
);
},
{
closed = 1;
nodes = (
"545 700 LINE",
"545 174 LINE SMOOTH",
"545 73 OFFCURVE",
"466 1 OFFCURVE",
"354 1 CURVE",
"277 1 OFFCURVE",
"190 39 OFFCURVE",
"141 92 CURVE",
"84 8 LINE",
"144 -59 OFFCURVE",
"259 -105 OFFCURVE",
"368 -105 CURVE SMOOTH",
"542 -105 OFFCURVE",
"662 7 OFFCURVE",
"662 172 CURVE SMOOTH",
"662 700 LINE"
);
}
);
width = 739;
}
);
leftKerningGroup = Y.ss01;
leftMetricsKey = U;
rightKerningGroup = Y.ss01;
rightMetricsKey = J;
},
{
glyphname = Z.ss01;
layers = (
{
anchors = (
{
name = top;
position = "{333, 700}";
}
);
layerId = "0684C2B6-4C69-4B0A-A52B-80982EBE3DDB";
paths = (
{
closed = 1;
nodes = (
"323 393 LINE",
"323 299 LINE",
"546 299 LINE",
"546 393 LINE"
);
},
{
closed = 1;
nodes = (
"107 397 LINE",
"107 302 LINE",
"327 302 LINE",
"327 397 LINE"
);
},
{
closed = 1;
nodes = (
"50 700 LINE",
"50 594 LINE",
"464 594 LINE",
"37 85 LINE",
"37 0 LINE",
"628 0 LINE",
"628 106 LINE",
"197 106 LINE",
"623 615 LINE",
"623 700 LINE"
);
}
);
width = 666;
}
);
leftKerningGroup = Z.ss01;
leftMetricsKey = Z;
rightKerningGroup = Z.ss01;
rightMetricsKey = Z;
},
{
glyphname = a;
layers = (
{
anchors = (
{
name = ogonek;
position = "{546, 10}";
},
{
name = top;
position = "{290, 532}";
}
);
layerId = "0684C2B6-4C69-4B0A-A52B-80982EBE3DDB";
paths = (
{
closed = 1;
nodes = (
"200 536 OFFCURVE",
"146 513 OFFCURVE",
"72 469 CURVE",
"119 389 LINE",
"172 425 OFFCURVE",
"225 443 OFFCURVE",
"276 443 CURVE SMOOTH",
"360 443 OFFCURVE",
"403 403 OFFCURVE",
"403 336 CURVE",
"404 0 LINE",
"517 0 LINE",
"516 349 LINE SMOOTH",
"515 466 OFFCURVE",
"438 536 OFFCURVE",
"301 536 CURVE SMOOTH"
);
},
{
closed = 1;
nodes = (
"242 320 LINE SMOOTH",
"114 319 OFFCURVE",
"41 257 OFFCURVE",
"41 160 CURVE SMOOTH",
"41 66 OFFCURVE",
"113 -5 OFFCURVE",
"228 -5 CURVE SMOOTH",
"323 -5 OFFCURVE",
"393 30 OFFCURVE",
"426 100 CURVE",
"404 195 LINE",
"402 133 OFFCURVE",
"337 86 OFFCURVE",
"252 86 CURVE SMOOTH",
"188 86 OFFCURVE",
"149 117 OFFCURVE",
"149 165 CURVE SMOOTH",
"149 216 OFFCURVE",
"184 236 OFFCURVE",
"259 236 CURVE SMOOTH",
"418 236 LINE",
"418 320 LINE"
);
}
);
width = 586;
}
);
leftKerningGroup = a;
rightKerningGroup = n;
unicode = 0061;
},
{
glyphname = aogonek;
layers = (
{
layerId = "0684C2B6-4C69-4B0A-A52B-80982EBE3DDB";
paths = (
{
closed = 1;
nodes = (
"199 536 OFFCURVE",
"146 513 OFFCURVE",
"72 469 CURVE",
"119 389 LINE",
"172 425 OFFCURVE",
"225 443 OFFCURVE",
"275 443 CURVE SMOOTH",
"360 443 OFFCURVE",
"402 403 OFFCURVE",
"403 336 CURVE",
"403 320 LINE",
"241 320 LINE SMOOTH",
"114 319 OFFCURVE",
"41 257 OFFCURVE",
"41 160 CURVE SMOOTH",
"41 66 OFFCURVE",
"112 -5 OFFCURVE",
"228 -5 CURVE SMOOTH",
"305 -5 OFFCURVE",
"366 18 OFFCURVE",
"404 65 CURVE",
"404 0 LINE",
"425 0 LINE",
"390 -46 OFFCURVE",
"371 -86 OFFCURVE",
"371 -123 CURVE SMOOTH",
"371 -178 OFFCURVE",
"411 -201 OFFCURVE",
"450 -201 CURVE SMOOTH",
"487 -201 OFFCURVE",
"522 -180 OFFCURVE",
"545 -144 CURVE",
"512 -105 LINE",
"497 -124 OFFCURVE",
"481 -137 OFFCURVE",
"463 -137 CURVE SMOOTH",
"445 -137 OFFCURVE",
"433 -125 OFFCURVE",
"433 -105 CURVE SMOOTH",
"433 -82 OFFCURVE",
"448 -48 OFFCURVE",
"483 0 CURVE",
"517 0 LINE",
"517 349 LINE SMOOTH",
"515 466 OFFCURVE",
"438 536 OFFCURVE",
"301 536 CURVE SMOOTH"
);
},
{
closed = 1;
nodes = (
"404 186 LINE",
"401 134 OFFCURVE",
"332 86 OFFCURVE",
"252 86 CURVE SMOOTH",
"188 86 OFFCURVE",
"149 117 OFFCURVE",
"149 165 CURVE SMOOTH",
"149 216 OFFCURVE",
"183 236 OFFCURVE",
"259 236 CURVE SMOOTH",
"404 236 LINE"
);
}
);
width = 590;
}
);
leftKerningGroup = a;
rightKerningGroup = n;
unicode = 0105;
},
{
glyphname = ae;
layers = (
{
anchors = (
{
name = top;
position = "{488, 532}";
}
);
layerId = "0684C2B6-4C69-4B0A-A52B-80982EBE3DDB";
paths = (
{
closed = 0;
nodes = (
"556 124 LINE"
);
},
{
closed = 1;
nodes = (
"224 536 OFFCURVE",
"147 513 OFFCURVE",
"72 472 CURVE",
"101 389 LINE",
"160 424 OFFCURVE",
"220 443 OFFCURVE",
"277 443 CURVE SMOOTH",
"361 443 OFFCURVE",
"405 403 OFFCURVE",
"405 336 CURVE",
"406 200 LINE",
"519 174 LINE",
"518 349 LINE SMOOTH",
"517 466 OFFCURVE",
"439 536 OFFCURVE",
"301 536 CURVE SMOOTH"
);
},
{
closed = 1;
nodes = (
"243 306 LINE SMOOTH",
"116 305 OFFCURVE",
"41 251 OFFCURVE",
"41 155 CURVE SMOOTH",
"41 61 OFFCURVE",
"113 -5 OFFCURVE",
"227 -5 CURVE SMOOTH",
"340 -5 OFFCURVE",
"423 45 OFFCURVE",
"463 144 CURVE",
"414 187 LINE",
"381 106 OFFCURVE",
"324 76 OFFCURVE",
"253 76 CURVE SMOOTH",
"190 76 OFFCURVE",
"149 112 OFFCURVE",
"149 165 CURVE SMOOTH",
"149 216 OFFCURVE",
"191 244 OFFCURVE",
"265 244 CURVE SMOOTH",
"420 244 LINE",
"420 306 LINE"
);
},
{
closed = 1;
nodes = (
"501 241 LINE",
"941 241 LINE",
"947 417 OFFCURVE",
"843 536 OFFCURVE",
"677 536 CURVE SMOOTH",
"524 536 OFFCURVE",
"422 426 OFFCURVE",
"422 265 CURVE SMOOTH",
"422 105 OFFCURVE",
"522 -4 OFFCURVE",
"680 -4 CURVE SMOOTH",
"772 -4 OFFCURVE",
"848 29 OFFCURVE",
"901 86 CURVE",
"839 151 LINE",
"800 111 OFFCURVE",
"747 89 OFFCURVE",
"689 89 CURVE SMOOTH",
"589 89 OFFCURVE",
"519 160 OFFCURVE",
"519 272 CURVE SMOOTH",
"519 375 OFFCURVE",
"583 452 OFFCURVE",
"678 452 CURVE SMOOTH",
"765 452 OFFCURVE",
"823 390 OFFCURVE",
"826 303 CURVE",
"501 303 LINE"
);
}
);
width = 975;
}
);
leftKerningGroup = a;
leftMetricsKey = a;
rightKerningGroup = e;
rightMetricsKey = e;
unicode = 00E6;
},
{
glyphname = b;
layers = (
{
layerId = "0684C2B6-4C69-4B0A-A52B-80982EBE3DDB";
paths = (
{
closed = 1;
nodes = (
"90 742 LINE",
"90 0 LINE",
"205 0 LINE",
"205 742 LINE"
);
},
{
closed = 1;
nodes = (
"248 536 OFFCURVE",
"162 436 OFFCURVE",
"163 264 CURVE",
"162 97 OFFCURVE",
"247 -4 OFFCURVE",
"393 -4 CURVE SMOOTH",
"545 -4 OFFCURVE",
"645 105 OFFCURVE",
"645 264 CURVE SMOOTH",
"645 426 OFFCURVE",
"542 536 OFFCURVE",
"391 536 CURVE SMOOTH"
);
},
{
closed = 1;
nodes = (
"462 440 OFFCURVE",
"529 367 OFFCURVE",
"529 268 CURVE SMOOTH",
"529 166 OFFCURVE",
"462 94 OFFCURVE",
"367 94 CURVE SMOOTH",
"272 94 OFFCURVE",
"205 165 OFFCURVE",
"205 268 CURVE SMOOTH",
"205 368 OFFCURVE",
"272 440 OFFCURVE",
"367 440 CURVE SMOOTH"
);
}
);
width = 680;
}
);
leftKerningGroup = h;
rightKerningGroup = o;
unicode = 0062;
},
{
glyphname = c;
layers = (
{
anchors = (
{
name = bottom;
position = "{289, 0}";
},
{
name = top;
position = "{288, 532}";
}
);
layerId = "0684C2B6-4C69-4B0A-A52B-80982EBE3DDB";
paths = (
{
closed = 1;
nodes = (
"145 536 OFFCURVE",
"35 426 OFFCURVE",
"35 265 CURVE SMOOTH",
"35 105 OFFCURVE",
"145 -4 OFFCURVE",
"303 -4 CURVE SMOOTH",
"404 -4 OFFCURVE",
"481 32 OFFCURVE",
"529 95 CURVE",
"465 159 LINE",
"429 117 OFFCURVE",
"375 95 OFFCURVE",
"308 95 CURVE SMOOTH",
"216 95 OFFCURVE",
"150 164 OFFCURVE",
"150 265 CURVE SMOOTH",
"150 366 OFFCURVE",
"216 435 OFFCURVE",
"308 435 CURVE SMOOTH",
"372 436 OFFCURVE",
"423 413 OFFCURVE",
"460 375 CURVE",
"523 449 LINE",
"474 505 OFFCURVE",
"399 536 OFFCURVE",
"304 536 CURVE SMOOTH"
);
}
);
width = 564;
}
);
leftKerningGroup = o;
rightKerningGroup = c;
unicode = 0063;
},
{
glyphname = d;
layers = (
{
anchors = (
{
name = center;
position = "{-12, 0}";
}
);
layerId = "0684C2B6-4C69-4B0A-A52B-80982EBE3DDB";
paths = (
{
closed = 0;
nodes = (
"424 264 LINE"
);
},
{
closed = 1;
nodes = (
"138 537 OFFCURVE",
"35 428 OFFCURVE",
"35 268 CURVE SMOOTH",
"35 106 OFFCURVE",
"137 -5 OFFCURVE",
"290 -5 CURVE SMOOTH",
"436 -5 OFFCURVE",
"520 97 OFFCURVE",
"519 267 CURVE",
"520 435 OFFCURVE",
"435 537 OFFCURVE",
"288 537 CURVE SMOOTH"
);
},
{
closed = 1;
nodes = (
"410 439 OFFCURVE",
"477 367 OFFCURVE",
"477 264 CURVE SMOOTH",
"477 163 OFFCURVE",
"410 91 OFFCURVE",
"314 91 CURVE SMOOTH",
"217 91 OFFCURVE",
"151 163 OFFCURVE",
"150 264 CURVE SMOOTH",
"151 366 OFFCURVE",
"218 439 OFFCURVE",
"314 439 CURVE SMOOTH"
);
},
{
closed = 1;
nodes = (
"477 742 LINE",
"477 0 LINE",
"592 0 LINE",
"592 742 LINE"
);
}
);
width = 682;
}
);
leftKerningGroup = o;
rightKerningGroup = l;
unicode = 0064;
},
{
glyphname = eth;
layers = (
{
layerId = "0684C2B6-4C69-4B0A-A52B-80982EBE3DDB";
paths = (
{
closed = 1;
nodes = (
"122 694 LINE",
"276 619 OFFCURVE",
"402 488 OFFCURVE",
"441 362 CURVE",
"409 411 OFFCURVE",
"339 443 OFFCURVE",
"263 443 CURVE SMOOTH",
"125 443 OFFCURVE",
"36 357 OFFCURVE",
"36 224 CURVE SMOOTH",
"36 85 OFFCURVE",
"133 -5 OFFCURVE",
"282 -5 CURVE SMOOTH",
"448 -5 OFFCURVE",
"555 101 OFFCURVE",
"555 265 CURVE SMOOTH",
"555 459 OFFCURVE",
"415 648 OFFCURVE",
"198 747 CURVE"
);
},
{
closed = 1;
nodes = (
"377 359 OFFCURVE",
"433 307 OFFCURVE",
"433 226 CURVE SMOOTH",
"433 148 OFFCURVE",
"377 97 OFFCURVE",
"288 97 CURVE SMOOTH",
"202 97 OFFCURVE",
"146 149 OFFCURVE",
"146 231 CURVE SMOOTH",
"146 309 OFFCURVE",
"202 359 OFFCURVE",
"288 359 CURVE SMOOTH"
);
},
{
closed = 1;
nodes = (
"131 579 LINE",
"149 519 LINE",
"503 636 LINE",
"484 696 LINE"
);
}
);
width = 589;
}
);
leftKerningGroup = o;
rightKerningGroup = O;
rightMetricsKey = O;
unicode = 00F0;
},
{
glyphname = dcroat;
layers = (
{
components = (
{
name = d;
}
);
layerId = "0684C2B6-4C69-4B0A-A52B-80982EBE3DDB";
paths = (
{
closed = 1;
nodes = (
"378 682 LINE",
"378 616 LINE",
"661 616 LINE",
"661 682 LINE"
);
}
);
width = 681;
}
);
leftKerningGroup = o;
rightKerningGroup = l;
unicode = 0111;
},
{
glyphname = e;
layers = (
{
anchors = (
{
name = bottom;
position = "{301, 0}";
},
{
name = ogonek;
position = "{529, 10}";
},
{
name = top;
position = "{299, 532}";
}
);
layerId = "0684C2B6-4C69-4B0A-A52B-80982EBE3DDB";
paths = (
{
closed = 1;
nodes = (
"128 222 LINE",
"553 222 LINE",
"567 414 OFFCURVE",
"491 536 OFFCURVE",
"304 536 CURVE SMOOTH",
"146 535 OFFCURVE",
"35 426 OFFCURVE",
"35 265 CURVE SMOOTH",
"35 105 OFFCURVE",
"143 -4 OFFCURVE",
"307 -4 CURVE SMOOTH",
"399 -4 OFFCURVE",
"475 29.005 OFFCURVE",
"527 86 CURVE",
"466 151 LINE",
"427 111 OFFCURVE",
"374 89 OFFCURVE",
"316 89 CURVE SMOOTH",
"216 89 OFFCURVE",
"146 160 OFFCURVE",
"146 271 CURVE SMOOTH",
"146 376 OFFCURVE",
"210 444 OFFCURVE",
"305 444 CURVE SMOOTH",
"392 444 OFFCURVE",
"449 392 OFFCURVE",
"453 306 CURVE",
"128 306 LINE"
);
}
);
width = 588;
}
);
leftKerningGroup = o;
rightKerningGroup = o;
unicode = 0065;
},
{
glyphname = eogonek;
layers = (
{
layerId = "0684C2B6-4C69-4B0A-A52B-80982EBE3DDB";
paths = (
{
closed = 1;
nodes = (
"130 531 OFFCURVE",
"35 418 OFFCURVE",
"35 267 CURVE SMOOTH",
"35 105 OFFCURVE",
"145 -4 OFFCURVE",
"302 -4 CURVE SMOOTH",
"348 -4 OFFCURVE",
"385 5 OFFCURVE",
"424 28 CURVE",
"383 -27 OFFCURVE",
"361 -79 OFFCURVE",
"361 -122 CURVE SMOOTH",
"361 -179 OFFCURVE",
"401 -201 OFFCURVE",
"440 -201 CURVE SMOOTH",
"479 -201 OFFCURVE",
"512 -178 OFFCURVE",
"534 -144 CURVE",
"501 -105 LINE",
"488 -122 OFFCURVE",
"472 -137 OFFCURVE",
"453 -137 CURVE SMOOTH",
"435 -137 OFFCURVE",
"423 -126 OFFCURVE",
"423 -103 CURVE SMOOTH",
"423 -58 OFFCURVE",
"467 15 OFFCURVE",
"527 86 CURVE",
"466 151 LINE",
"427 111 OFFCURVE",
"372 88 OFFCURVE",
"316 88 CURVE SMOOTH",
"226 88 OFFCURVE",
"169 142 OFFCURVE",
"151 222 CURVE",
"554 222 LINE",
"567 418 OFFCURVE",
"481 540 OFFCURVE",
"304 535 CURVE SMOOTH"
);
},
{
closed = 1;
nodes = (
"392 444 OFFCURVE",
"449 388 OFFCURVE",
"453 306 CURVE",
"149 306 LINE",
"157 388 OFFCURVE",
"220 444 OFFCURVE",
"306 444 CURVE SMOOTH"
);
}
);
width = 588;
}
);
leftKerningGroup = o;
rightKerningGroup = e;
unicode = 0119;
},
{
glyphname = f;
layers = (
{
layerId = "0684C2B6-4C69-4B0A-A52B-80982EBE3DDB";
paths = (
{
closed = 1;
nodes = (
"198 747 OFFCURVE",
"107 688 OFFCURVE",
"107 564 CURVE SMOOTH",
"107 0 LINE",
"221 0 LINE",
"221 575 LINE",
"221 625 OFFCURVE",
"254 647 OFFCURVE",
"293 647 CURVE",
"317 647 OFFCURVE",
"344 638 OFFCURVE",
"366 622 CURVE",
"410 710 LINE",
"376 735 OFFCURVE",
"333 747 OFFCURVE",
"290 747 CURVE"
);
},
{
closed = 1;
nodes = (
"37 512 LINE",
"37 426 LINE",
"360 426 LINE",
"360 512 LINE"
);
}
);
width = 343;
}
);
leftKerningGroup = f;
rightKerningGroup = f;
unicode = 0066;
},
{
glyphname = g;
layers = (
{
anchors = (
{
name = top;
position = "{320, 532}";
}
);
layerId = "0684C2B6-4C69-4B0A-A52B-80982EBE3DDB";
paths = (
{
closed = 1;
nodes = (
"451 532 LINE",
"451 49 LINE SMOOTH",
"451 -43 OFFCURVE",
"385 -102 OFFCURVE",
"284 -102 CURVE SMOOTH",
"219 -102 OFFCURVE",
"167 -81 OFFCURVE",
"117 -44 CURVE",
"68 -127 LINE",
"133 -171 OFFCURVE",
"206 -197 OFFCURVE",
"289 -197 CURVE SMOOTH",
"456 -197 OFFCURVE",
"565 -101 OFFCURVE",
"565 52 CURVE SMOOTH",
"565 532 LINE"
);
},
{
closed = 1;
nodes = (
"130 535 OFFCURVE",
"35 433 OFFCURVE",
"35 283 CURVE SMOOTH",
"35 130 OFFCURVE",
"131 26 OFFCURVE",
"275 26 CURVE SMOOTH",
"413 26 OFFCURVE",
"492 122 OFFCURVE",
"491 282 CURVE",
"492 441 OFFCURVE",
"411 537 OFFCURVE",
"271 536 CURVE SMOOTH"
);
},
{
closed = 1;
nodes = (
"388 443 OFFCURVE",
"451 376 OFFCURVE",
"451 280 CURVE SMOOTH",
"451 184 OFFCURVE",
"388 116 OFFCURVE",
"298 116 CURVE SMOOTH",
"206 116 OFFCURVE",
"144 184 OFFCURVE",
"143 280 CURVE SMOOTH",
"144 375 OFFCURVE",
"207 443 OFFCURVE",
"298 443 CURVE SMOOTH"
);
}
);
width = 640;
}
);
leftKerningGroup = o;
rightKerningGroup = j;
unicode = 0067;
},
{
glyphname = h;
layers = (
{
anchors = (
{
name = bottom;
position = "{620, 0}";
},
{
name = center;
position = "{335, 267}";
},
{
name = top;
position = "{146, 742}";
},
{
name = topright;
position = "{261, 535}";
}
);
layerId = "0684C2B6-4C69-4B0A-A52B-80982EBE3DDB";
paths = (
{
closed = 1;
nodes = (
"600 0 LINE",
"600 331 LINE SMOOTH",
"600 458 OFFCURVE",
"526 536 OFFCURVE",
"402 536 CURVE SMOOTH",
"261 536 OFFCURVE",
"173 457 OFFCURVE",
"173 262 CURVE",
"205 262 LINE",
"205 356 OFFCURVE",
"262 427 OFFCURVE",
"357 428 CURVE SMOOTH",
"437 428 OFFCURVE",
"485 379 OFFCURVE",
"485 299 CURVE SMOOTH",
"485 0 LINE"
);
},
{
closed = 1;
nodes = (
"205 0 LINE",
"205 742 LINE",
"90 742 LINE",
"90 0 LINE"
);
}
);
width = 669;
}
);
leftKerningGroup = h;
rightKerningGroup = n;
unicode = 0068;
},
{
glyphname = hbar;
layers = (
{
components = (
{
name = h;
}
);
layerId = "0684C2B6-4C69-4B0A-A52B-80982EBE3DDB";
paths = (
{
closed = 1;
nodes = (
"6 658 LINE",
"6 589 LINE",
"346 589 LINE",
"346 658 LINE"
);
}
);
width = 815;
}
);
leftKerningGroup = h;
rightKerningGroup = n;
unicode = 0127;
},
{
glyphname = i;
layers = (
{
anchors = (
{
name = _top;
position = "{142, 532}";
},
{
name = ogonek;
position = "{249, 10}";
},
{
name = top;
position = "{142, 532}";
}
);
layerId = "0684C2B6-4C69-4B0A-A52B-80982EBE3DDB";
paths = (
{
closed = 1;
nodes = (
"85 532 LINE",
"85 0 LINE",
"199 0 LINE",
"199 532 LINE"
);
},
{
closed = 1;
nodes = (
"103 754 OFFCURVE",
"75 725 OFFCURVE",
"75 684 CURVE SMOOTH",
"75 644 OFFCURVE",
"103 615 OFFCURVE",
"142 615 CURVE SMOOTH",
"180 615 OFFCURVE",
"208 644 OFFCURVE",
"208 684 CURVE SMOOTH",
"208 725 OFFCURVE",
"180 754 OFFCURVE",
"142 754 CURVE SMOOTH"
);
}
);
width = 284;
}
);
leftKerningGroup = dotlessi;
rightKerningGroup = dotlessi;
unicode = 0069;
},
{
glyphname = idotless;
layers = (
{
anchors = (
{
name = ogonek;
position = "{249, 10}";
},
{
name = top;
position = "{142, 532}";
}
);
layerId = "0684C2B6-4C69-4B0A-A52B-80982EBE3DDB";
paths = (
{
closed = 1;
nodes = (
"85 532 LINE",
"85 0 LINE",
"199 0 LINE",
"199 532 LINE"
);
}
);
width = 284;
}
);
leftKerningGroup = i;
rightKerningGroup = i;
unicode = 0131;
},
{
glyphname = iogonek;
layers = (
{
layerId = "0684C2B6-4C69-4B0A-A52B-80982EBE3DDB";
paths = (
{
closed = 1;
nodes = (
"78 532 LINE",
"78 0 LINE",
"110 0 LINE",
"77 -47 OFFCURVE",
"58 -86 OFFCURVE",
"58 -123 CURVE SMOOTH",
"58 -178 OFFCURVE",
"98 -201 OFFCURVE",
"137 -201 CURVE SMOOTH",
"174 -201 OFFCURVE",
"209 -180 OFFCURVE",
"232 -144 CURVE",
"199 -105 LINE",
"184 -124 OFFCURVE",
"168 -137 OFFCURVE",
"150 -137 CURVE SMOOTH",
"132 -137 OFFCURVE",
"120 -125 OFFCURVE",
"120 -105 CURVE SMOOTH",
"120 -82 OFFCURVE",
"135 -48 OFFCURVE",
"169 0 CURVE",
"193 0 LINE",
"193 532 LINE"
);
},
{
closed = 1;
nodes = (
"97 754 OFFCURVE",
"68 725 OFFCURVE",
"68 684 CURVE SMOOTH",
"68 643 OFFCURVE",
"97 614 OFFCURVE",
"135 614 CURVE SMOOTH",
"174 614 OFFCURVE",
"202 643 OFFCURVE",
"202 684 CURVE SMOOTH",
"202 725 OFFCURVE",
"174 754 OFFCURVE",
"135 754 CURVE SMOOTH"
);
}
);
width = 267;
}
);
leftKerningGroup = i;
rightKerningGroup = i;
unicode = 012F;
},
{
glyphname = j;
layers = (
{
layerId = "0684C2B6-4C69-4B0A-A52B-80982EBE3DDB";
paths = (
{
closed = 1;
nodes = (
"84 532 LINE",
"84 -26 LINE",
"84 -77 OFFCURVE",
"56 -98 OFFCURVE",
"21 -98 CURVE",
"-1 -98 OFFCURVE",
"-26 -89 OFFCURVE",
"-47 -74 CURVE",
"-85 -163 LINE",
"-54 -186 OFFCURVE",
"-14 -199 OFFCURVE",
"26 -199 CURVE",
"111 -199 OFFCURVE",
"198 -141 OFFCURVE",
"198 -15 CURVE",
"198 532 LINE"
);
},
{
closed = 1;
nodes = (
"101 754 OFFCURVE",
"71 725 OFFCURVE",
"71 684 CURVE SMOOTH",
"71 644 OFFCURVE",
"101 614 OFFCURVE",
"141 614 CURVE SMOOTH",
"183 614 OFFCURVE",
"212 644 OFFCURVE",
"212 684 CURVE SMOOTH",
"212 725 OFFCURVE",
"183 754 OFFCURVE",
"141 754 CURVE SMOOTH"
);
}
);
width = 287;
}
);
leftKerningGroup = j;
rightKerningGroup = j;
unicode = 006A;
},
{
glyphname = jdotless;
layers = (
{
anchors = (
{
name = top;
position = "{137, 532}";
}
);
layerId = "0684C2B6-4C69-4B0A-A52B-80982EBE3DDB";
paths = (
{
closed = 1;
nodes = (
"84 532 LINE",
"84 -7 LINE",
"84 -70 OFFCURVE",
"59 -103 OFFCURVE",
"12 -102 CURVE",
"-14 -101 OFFCURVE",
"-39 -93 OFFCURVE",
"-62 -78 CURVE",
"-91 -162 LINE",
"-55 -185 OFFCURVE",
"-11 -197 OFFCURVE",
"36 -198 CURVE",
"138 -199 OFFCURVE",
"199 -136 OFFCURVE",
"199 -24 CURVE",
"199 532 LINE"
);
}
);
width = 275;
}
);
leftKerningGroup = j;
rightKerningGroup = j;
rightMetricsKey = i;
unicode = 0237;
},
{
glyphname = k;
layers = (
{
anchors = (
{
name = bottom;
position = "{123, 0}";
},
{
name = top;
position = "{148, 742}";
},
{
name = topright;
position = "{266, 532}";
}
);
layerId = "0684C2B6-4C69-4B0A-A52B-80982EBE3DDB";
paths = (
{
closed = 0;
nodes = (
"230 111 LINE"
);
},
{
closed = 1;
nodes = (
"90 742 LINE",
"90 0 LINE",
"205 0 LINE",
"205 742 LINE"
);
},
{
closed = 1;
nodes = (
"440 532 LINE",
"196 285 LINE",
"196 140 LINE",
"572 532 LINE"
);
},
{
closed = 1;
nodes = (
"279 269 LINE",
"451 0 LINE",
"587 0 LINE",
"364 343 LINE"
);
}
);
width = 595;
}
);
leftKerningGroup = h;
rightKerningGroup = x;
unicode = 006B;
},
{
glyphname = kgreenlandic;
layers = (
{
anchors = (
{
name = bottom;
position = "{293, 0}";
},
{
name = ogonek;
position = "{249, 10}";
},
{
name = top;
position = "{142, 532}";
}
);
layerId = "0684C2B6-4C69-4B0A-A52B-80982EBE3DDB";
paths = (
{
closed = 0;
nodes = (
"230 111 LINE"
);
},
{
closed = 1;
nodes = (
"85 532 LINE",
"85 0 LINE",
"199 0 LINE",
"199 532 LINE"
);
},
{
closed = 1;
nodes = (
"435 532 LINE",
"191 286 LINE",
"191 140 LINE",
"567 532 LINE"
);
},
{
closed = 1;
nodes = (
"274 270 LINE",
"446 0 LINE",
"582 0 LINE",
"359 343 LINE"
);
}
);
width = 590;
}
);
leftKerningGroup = h;
leftMetricsKey = n;
rightKerningGroup = k;
rightMetricsKey = k;
unicode = 0138;
},
{
glyphname = l;
layers = (
{
anchors = (
{
name = bottom;
position = "{148, 0}";
},
{
name = top;
position = "{148, 742}";
},
{
name = topright;
position = "{266, 532}";
}
);
layerId = "0684C2B6-4C69-4B0A-A52B-80982EBE3DDB";
paths = (
{
closed = 1;
nodes = (
"90 742 LINE",
"90 0 LINE",
"205 0 LINE",
"205 742 LINE"
);
}
);
width = 295;
}
);
leftKerningGroup = h;
rightKerningGroup = l;
unicode = 006C;
},
{
glyphname = ldot;
layers = (
{
components = (
{
name = l;
}
);
layerId = "0684C2B6-4C69-4B0A-A52B-80982EBE3DDB";
paths = (
{
closed = 1;
nodes = (
"265 374 OFFCURVE",
"239 347 OFFCURVE",
"239 309 CURVE SMOOTH",
"239 273 OFFCURVE",
"265 246 OFFCURVE",
"301 246 CURVE SMOOTH",
"336 246 OFFCURVE",
"362 273 OFFCURVE",
"362 309 CURVE SMOOTH",
"362 347 OFFCURVE",
"336 374 OFFCURVE",
"301 374 CURVE SMOOTH"
);
}
);
width = 330;
}
);
leftKerningGroup = h;
leftMetricsKey = l;
rightKerningGroup = l;
unicode = 0140;
},
{
glyphname = lslash;
layers = (
{
components = (
{
name = l;
transform = "{1, 0, 0, 1, 40, 0}";
}
);
layerId = "0684C2B6-4C69-4B0A-A52B-80982EBE3DDB";
paths = (
{
closed = 1;
nodes = (
"2 432 LINE",
"22 356 LINE",
"360 455 LINE",
"340 532 LINE"
);
}
);
width = 357;
}
);
leftKerningGroup = lslash;
rightKerningGroup = lslash;
unicode = 0142;
},
{
glyphname = m;
layers = (
{
layerId = "0684C2B6-4C69-4B0A-A52B-80982EBE3DDB";
paths = (
{
closed = 1;
nodes = (
"85 532 LINE",
"85 0 LINE",
"199 0 LINE",
"199 532 LINE"
);
},
{
closed = 1;
nodes = (
"254 536 OFFCURVE",
"167 457 OFFCURVE",
"167 263 CURVE",
"199 263 LINE",
"199 356 OFFCURVE",
"255 426 OFFCURVE",
"347 429 CURVE SMOOTH",
"425 429 OFFCURVE",
"472 380 OFFCURVE",
"472 299 CURVE SMOOTH",
"472 0 LINE",
"587 0 LINE",
"587 331 LINE SMOOTH",
"587 458 OFFCURVE",
"514 536 OFFCURVE",
"392 536 CURVE SMOOTH"
);
},
{
closed = 1;
nodes = (
"641 536 OFFCURVE",
"554 457 OFFCURVE",
"554 263 CURVE",
"587 263 LINE",
"587 356 OFFCURVE",
"642 426 OFFCURVE",
"733 429 CURVE SMOOTH",
"811 429 OFFCURVE",
"859 380 OFFCURVE",
"859 299 CURVE SMOOTH",
"859 0 LINE",
"974 0 LINE",
"974 331 LINE SMOOTH",
"974 458 OFFCURVE",
"901 536 OFFCURVE",
"779 536 CURVE SMOOTH"
);
}
);
width = 1043;
}
);
leftKerningGroup = n;
rightKerningGroup = n;
unicode = 006D;
},
{
glyphname = n;
layers = (
{
anchors = (
{
name = bottom;
position = "{336, 0}";
},
{
name = top;
position = "{346, 532}";
}
);
layerId = "0684C2B6-4C69-4B0A-A52B-80982EBE3DDB";
paths = (
{
closed = 1;
nodes = (
"85 532 LINE",
"85 0 LINE",
"200 0 LINE",
"200 532 LINE"
);
},
{
closed = 1;
nodes = (
"255 536 OFFCURVE",
"167 457 OFFCURVE",
"167 262 CURVE",
"199 262 LINE",
"199 356 OFFCURVE",
"256 427 OFFCURVE",
"351 428 CURVE SMOOTH",
"431 428 OFFCURVE",
"479 379 OFFCURVE",
"479 299 CURVE SMOOTH",
"479 0 LINE",
"594 0 LINE",
"594 331 LINE SMOOTH",
"594 458 OFFCURVE",
"520 536 OFFCURVE",
"396 536 CURVE SMOOTH"
);
}
);
width = 663;
}
);
leftKerningGroup = n;
rightKerningGroup = n;
unicode = 006E;
},
{
glyphname = eng;
layers = (
{
anchors = (
{
name = bottom;
position = "{336, 0}";
},
{
name = top;
position = "{346, 532}";
}
);
layerId = "0684C2B6-4C69-4B0A-A52B-80982EBE3DDB";
paths = (
{
closed = 1;
nodes = (
"255 536 OFFCURVE",
"167 457 OFFCURVE",
"167 262 CURVE",
"199 262 LINE",
"199 356 OFFCURVE",
"256 427 OFFCURVE",
"351 428 CURVE SMOOTH",
"431 428 OFFCURVE",
"479 379 OFFCURVE",
"479 299 CURVE SMOOTH",
"479 -26 LINE SMOOTH",
"479 -77 OFFCURVE",
"451 -98 OFFCURVE",
"416 -98 CURVE",
"394 -98 OFFCURVE",
"369 -89 OFFCURVE",
"348 -74 CURVE",
"310 -163 LINE",
"341 -186 OFFCURVE",
"381 -199 OFFCURVE",
"421 -199 CURVE SMOOTH",
"506 -199 OFFCURVE",
"594 -141 OFFCURVE",
"594 -16 CURVE SMOOTH",
"594 331 LINE SMOOTH",
"594 458 OFFCURVE",
"520 536 OFFCURVE",
"396 536 CURVE SMOOTH"
);
},
{
closed = 1;
nodes = (
"85 532 LINE",
"85 0 LINE",
"200 0 LINE",
"200 532 LINE"
);
}
);
width = 663;
}
);
leftKerningGroup = i;
rightKerningGroup = i;
unicode = 014B;
},
{
glyphname = o;
layers = (
{
anchors = (
{
name = top;
position = "{313, 532}";
}
);
layerId = "0684C2B6-4C69-4B0A-A52B-80982EBE3DDB";
paths = (
{
closed = 1;
nodes = (
"148 536 OFFCURVE",
"35 427 OFFCURVE",
"35 266 CURVE SMOOTH",
"35 106 OFFCURVE",
"148 -4 OFFCURVE",
"313 -4 CURVE SMOOTH",
"477 -4 OFFCURVE",
"591 106 OFFCURVE",
"591 266 CURVE SMOOTH",
"591 427 OFFCURVE",
"477 536 OFFCURVE",
"313 536 CURVE SMOOTH"
);
},
{
closed = 1;
nodes = (
"407 437 OFFCURVE",
"474 367 OFFCURVE",
"474 265 CURVE SMOOTH",
"474 162 OFFCURVE",
"407 92 OFFCURVE",
"312 92 CURVE SMOOTH",
"217 92 OFFCURVE",
"150 162 OFFCURVE",
"150 265 CURVE SMOOTH",
"150 367 OFFCURVE",
"217 437 OFFCURVE",
"312 437 CURVE SMOOTH"
);
}
);
width = 625;
}
);
leftKerningGroup = o;
rightKerningGroup = o;
unicode = 006F;
},
{
glyphname = oslash;
layers = (
{
anchors = (
{
name = top;
position = "{313, 532}";
}
);
layerId = "0684C2B6-4C69-4B0A-A52B-80982EBE3DDB";
paths = (
{
closed = 1;
nodes = (
"416 665 LINE",
"154 -146 LINE",
"206 -146 LINE",
"468 665 LINE"
);
},
{
closed = 1;
nodes = (
"148 536 OFFCURVE",
"35 427 OFFCURVE",
"35 266 CURVE SMOOTH",
"35 106 OFFCURVE",
"148 -4 OFFCURVE",
"313 -4 CURVE SMOOTH",
"477 -4 OFFCURVE",
"591 106 OFFCURVE",
"591 266 CURVE SMOOTH",
"591 427 OFFCURVE",
"477 536 OFFCURVE",
"313 536 CURVE SMOOTH"
);
},
{
closed = 1;
nodes = (
"413 447 OFFCURVE",
"482 373 OFFCURVE",
"482 265 CURVE SMOOTH",
"482 156 OFFCURVE",
"413 83 OFFCURVE",
"313 83 CURVE SMOOTH",
"214 83 OFFCURVE",
"144 156 OFFCURVE",
"144 265 CURVE SMOOTH",
"144 373 OFFCURVE",
"214 447 OFFCURVE",
"313 447 CURVE SMOOTH"
);
}
);
width = 625;
}
);
leftKerningGroup = o;
leftMetricsKey = o;
rightKerningGroup = o;
rightMetricsKey = o;
unicode = 00F8;
},
{
glyphname = oe;
layers = (
{
anchors = (
{
name = top;
position = "{523, 532}";
}
);
layerId = "0684C2B6-4C69-4B0A-A52B-80982EBE3DDB";
paths = (
{
closed = 0;
nodes = (
"359 221 LINE"
);
},
{
closed = 1;
nodes = (
"148 536 OFFCURVE",
"35 427 OFFCURVE",
"35 266 CURVE SMOOTH",
"35 106 OFFCURVE",
"148 -4 OFFCURVE",
"313 -4 CURVE SMOOTH",
"469 -4 OFFCURVE",
"567 106 OFFCURVE",
"567 266 CURVE SMOOTH",
"567 427 OFFCURVE",
"469 536 OFFCURVE",
"313 536 CURVE SMOOTH"
);
},
{
closed = 1;
nodes = (
"407 437 OFFCURVE",
"474 367 OFFCURVE",
"474 265 CURVE SMOOTH",
"474 162 OFFCURVE",
"407 92 OFFCURVE",
"312 92 CURVE SMOOTH",
"217 92 OFFCURVE",
"150 162 OFFCURVE",
"150 265 CURVE SMOOTH",
"150 367 OFFCURVE",
"217 437 OFFCURVE",
"312 437 CURVE SMOOTH"
);
},
{
closed = 1;
nodes = (
"565 241 LINE",
"1007 241 LINE",
"1012 417 OFFCURVE",
"908 536 OFFCURVE",
"742 536 CURVE SMOOTH",
"591 536 OFFCURVE",
"494 426 OFFCURVE",
"494 265 CURVE SMOOTH",
"494 105 OFFCURVE",
"589 -4 OFFCURVE",
"745 -4 CURVE SMOOTH",
"837 -4 OFFCURVE",
"913 29 OFFCURVE",
"967 86 CURVE",
"905 151 LINE",
"865 111 OFFCURVE",
"812 89 OFFCURVE",
"754 89 CURVE SMOOTH",
"653 89 OFFCURVE",
"582 160 OFFCURVE",
"582 271 CURVE SMOOTH",
"582 376 OFFCURVE",
"647 451 OFFCURVE",
"743 451 CURVE SMOOTH",
"830 451 OFFCURVE",
"889 390 OFFCURVE",
"892 303 CURVE",
"565 303 LINE"
);
}
);
width = 1041;
}
);
leftKerningGroup = o;
leftMetricsKey = o;
rightKerningGroup = e;
rightMetricsKey = e;
unicode = 0153;
},
{
glyphname = p;
layers = (
{
layerId = "0684C2B6-4C69-4B0A-A52B-80982EBE3DDB";
paths = (
{
closed = 1;
nodes = (
"90 532 LINE",
"90 -194 LINE",
"205 -194 LINE",
"205 532 LINE"
);
},
{
closed = 0;
nodes = (
"248 28 LINE"
);
},
{
closed = 1;
nodes = (
"248 536 OFFCURVE",
"162 436 OFFCURVE",
"163 264 CURVE",
"162 97 OFFCURVE",
"247 -4 OFFCURVE",
"393 -4 CURVE SMOOTH",
"545 -4 OFFCURVE",
"645 105 OFFCURVE",
"645 264 CURVE SMOOTH",
"645 426 OFFCURVE",
"542 536 OFFCURVE",
"391 536 CURVE SMOOTH"
);
},
{
closed = 1;
nodes = (
"462 440 OFFCURVE",
"529 367 OFFCURVE",
"529 268 CURVE SMOOTH",
"529 166 OFFCURVE",
"462 94 OFFCURVE",
"367 94 CURVE SMOOTH",
"272 94 OFFCURVE",
"205 165 OFFCURVE",
"205 268 CURVE SMOOTH",
"205 368 OFFCURVE",
"272 440 OFFCURVE",
"367 440 CURVE SMOOTH"
);
}
);
width = 680;
}
);
leftKerningGroup = p;
rightKerningGroup = o;
unicode = 0070;
},
{
glyphname = thorn;
layers = (
{
anchors = (
{
name = bottom;
position = "{148, 0}";
},
{
name = top;
position = "{148, 742}";
},
{
name = topright;
position = "{266, 532}";
}
);
layerId = "0684C2B6-4C69-4B0A-A52B-80982EBE3DDB";
paths = (
{
closed = 0;
nodes = (
"327 305 LINE"
);
},
{
closed = 1;
nodes = (
"90 532 LINE",
"90 -194 LINE",
"205 -194 LINE",
"205 532 LINE"
);
},
{
closed = 0;
nodes = (
"248 28 LINE"
);
},
{
closed = 1;
nodes = (
"248 536 OFFCURVE",
"162 436 OFFCURVE",
"163 264 CURVE",
"162 97 OFFCURVE",
"247 -4 OFFCURVE",
"393 -4 CURVE SMOOTH",
"545 -4 OFFCURVE",
"645 105 OFFCURVE",
"645 264 CURVE SMOOTH",
"645 426 OFFCURVE",
"542 536 OFFCURVE",
"391 536 CURVE SMOOTH"
);
},
{
closed = 1;
nodes = (
"462 440 OFFCURVE",
"529 367 OFFCURVE",
"529 268 CURVE SMOOTH",
"529 166 OFFCURVE",
"462 94 OFFCURVE",
"367 94 CURVE SMOOTH",
"272 94 OFFCURVE",
"205 165 OFFCURVE",
"205 268 CURVE SMOOTH",
"205 368 OFFCURVE",
"272 440 OFFCURVE",
"367 440 CURVE SMOOTH"
);
},
{
closed = 1;
nodes = (
"90 742 LINE",
"90 0 LINE",
"205 0 LINE",
"205 742 LINE"
);
}
);
width = 679;
}
);
leftKerningGroup = h;
leftMetricsKey = l;
rightKerningGroup = o;
rightMetricsKey = o;
unicode = 00FE;
},
{
glyphname = q;
layers = (
{
layerId = "0684C2B6-4C69-4B0A-A52B-80982EBE3DDB";
paths = (
{
closed = 1;
nodes = (
"477 532 LINE",
"477 -194 LINE",
"592 -194 LINE",
"592 532 LINE"
);
},
{
closed = 0;
nodes = (
"434 151 LINE"
);
},
{
closed = 1;
nodes = (
"138 537 OFFCURVE",
"35 428 OFFCURVE",
"35 268 CURVE SMOOTH",
"35 106 OFFCURVE",
"137 -5 OFFCURVE",
"290 -5 CURVE SMOOTH",
"436 -5 OFFCURVE",
"520 97 OFFCURVE",
"519 267 CURVE",
"520 435 OFFCURVE",
"435 537 OFFCURVE",
"288 537 CURVE SMOOTH"
);
},
{
closed = 1;
nodes = (
"410 439 OFFCURVE",
"477 367 OFFCURVE",
"477 264 CURVE SMOOTH",
"477 163 OFFCURVE",
"410 91 OFFCURVE",
"314 91 CURVE SMOOTH",
"217 91 OFFCURVE",
"151 163 OFFCURVE",
"150 264 CURVE SMOOTH",
"151 366 OFFCURVE",
"218 439 OFFCURVE",
"314 439 CURVE SMOOTH"
);
}
);
width = 682;
}
);
leftKerningGroup = o;
rightKerningGroup = q;
unicode = 0071;
},
{
glyphname = r;
layers = (
{
anchors = (
{
name = bottom;
position = "{140, 0}";
},
{
name = top;
position = "{203, 532}";
}
);
layerId = "0684C2B6-4C69-4B0A-A52B-80982EBE3DDB";
paths = (
{
closed = 1;
nodes = (
"85 532 LINE",
"85 0 LINE",
"200 0 LINE",
"200 532 LINE"
);
},
{
closed = 1;
nodes = (
"249 536 OFFCURVE",
"167 439 OFFCURVE",
"167 262 CURVE",
"199 257 LINE",
"199 359 OFFCURVE",
"269 432 OFFCURVE",
"384 426 CURVE",
"384 536 LINE"
);
}
);
width = 394;
}
);
leftKerningGroup = n;
rightKerningGroup = r;
unicode = 0072;
},
{
glyphname = s;
layers = (
{
anchors = (
{
name = bottom;
position = "{234, 0}";
},
{
name = top;
position = "{241, 532}";
}
);
layerId = "0684C2B6-4C69-4B0A-A52B-80982EBE3DDB";
paths = (
{
closed = 1;
nodes = (
"142 537 OFFCURVE",
"48 491 OFFCURVE",
"48 383 CURVE SMOOTH",
"47 191 OFFCURVE",
"327 252 OFFCURVE",
"327 143 CURVE SMOOTH",
"327 103 OFFCURVE",
"289 86 OFFCURVE",
"240 86 CURVE SMOOTH",
"182 86 OFFCURVE",
"108 111 OFFCURVE",
"62 152 CURVE",
"21 70 LINE",
"74 22 OFFCURVE",
"157 -4 OFFCURVE",
"235 -4 CURVE SMOOTH",
"342 -4 OFFCURVE",
"439 45 OFFCURVE",
"439 154 CURVE SMOOTH",
"440 347 OFFCURVE",
"157 294 OFFCURVE",
"157 392 CURVE SMOOTH",
"157 430 OFFCURVE",
"190 445 OFFCURVE",
"235 445 CURVE SMOOTH",
"282 445 OFFCURVE",
"341 427 OFFCURVE",
"388 398 CURVE",
"430 483 LINE",
"382 517 OFFCURVE",
"311 537 OFFCURVE",
"244 537 CURVE SMOOTH"
);
}
);
width = 470;
}
);
leftKerningGroup = s;
rightKerningGroup = s;
unicode = 0073;
},
{
glyphname = germandbls;
layers = (
{
layerId = "0684C2B6-4C69-4B0A-A52B-80982EBE3DDB";
paths = (
{
closed = 1;
nodes = (
"174 747 OFFCURVE",
"78 645 OFFCURVE",
"78 488 CURVE SMOOTH",
"78 0 LINE",
"192 0 LINE",
"192 496 LINE SMOOTH",
"192 593 OFFCURVE",
"245 654 OFFCURVE",
"331 654 CURVE SMOOTH",
"405 654 OFFCURVE",
"455 609 OFFCURVE",
"455 536 CURVE SMOOTH",
"455 461 OFFCURVE",
"400 413 OFFCURVE",
"314 413 CURVE",
"314 325 LINE",
"327 325 LINE SMOOTH",
"428 325 OFFCURVE",
"494 282 OFFCURVE",
"494 207 CURVE SMOOTH",
"494 138 OFFCURVE",
"438 89 OFFCURVE",
"352 89 CURVE SMOOTH",
"292 89 LINE",
"292 0 LINE",
"343 0 LINE SMOOTH",
"503 0 OFFCURVE",
"606 88 OFFCURVE",
"606 210 CURVE SMOOTH",
"606 306 OFFCURVE",
"540 363 OFFCURVE",
"450 381 CURVE",
"521 408 OFFCURVE",
"566 476 OFFCURVE",
"566 554 CURVE SMOOTH",
"566 671 OFFCURVE",
"470 747 OFFCURVE",
"333 747 CURVE SMOOTH"
);
}
);
width = 654;
}
);
leftKerningGroup = f;
leftMetricsKey = U;
rightKerningGroup = B;
rightMetricsKey = B;
unicode = 00DF;
},
{
glyphname = t;
layers = (
{
anchors = (
{
name = bottom;
position = "{245, 0}";
},
{
name = center;
position = "{204, 266}";
}
);
layerId = "0684C2B6-4C69-4B0A-A52B-80982EBE3DDB";
paths = (
{
closed = 1;
nodes = (
"106 658 LINE",
"106 150 LINE",
"106 41 OFFCURVE",
"175 -5 OFFCURVE",
"255 -5 CURVE",
"300 -5 OFFCURVE",
"344 9 OFFCURVE",
"386 34 CURVE",
"357 122 LINE",
"326 107 OFFCURVE",
"301 99 OFFCURVE",
"277 99 CURVE",
"241 99 OFFCURVE",
"220 116 OFFCURVE",
"220 171 CURVE",
"220 658 LINE"
);
},
{
closed = 1;
nodes = (
"31 512 LINE",
"31 426 LINE",
"377 426 LINE",
"377 512 LINE"
);
}
);
width = 407;
}
);
leftKerningGroup = u;
rightKerningGroup = t;
unicode = 0074;
},
{
glyphname = tbar;
layers = (
{
anchors = (
{
name = bottom;
position = "{245, 0}";
},
{
name = center;
position = "{204, 266}";
}
);
layerId = "0684C2B6-4C69-4B0A-A52B-80982EBE3DDB";
paths = (
{
closed = 1;
nodes = (
"106 658 LINE",
"106 150 LINE",
"106 41 OFFCURVE",
"175 -5 OFFCURVE",
"255 -5 CURVE",
"300 -5 OFFCURVE",
"344 9 OFFCURVE",
"386 34 CURVE",
"357 122 LINE",
"326 107 OFFCURVE",
"301 99 OFFCURVE",
"277 99 CURVE",
"241 99 OFFCURVE",
"220 116 OFFCURVE",
"220 171 CURVE",
"220 658 LINE"
);
},
{
closed = 1;
nodes = (
"31 512 LINE",
"31 428 LINE",
"377 428 LINE",
"377 512 LINE"
);
},
{
closed = 1;
nodes = (
"31 333 LINE",
"31 249 LINE",
"377 249 LINE",
"377 333 LINE"
);
}
);
width = 407;
}
);
leftKerningGroup = t;
rightKerningGroup = t;
unicode = 0167;
},
{
glyphname = u;
layers = (
{
anchors = (
{
name = ogonek;
position = "{594, 10}";
},
{
name = top;
position = "{323, 532}";
}
);
layerId = "0684C2B6-4C69-4B0A-A52B-80982EBE3DDB";
paths = (
{
closed = 1;
nodes = (
"568 0 LINE",
"568 532 LINE",
"453 532 LINE",
"453 0 LINE"
);
},
{
closed = 1;
nodes = (
"399 -3 OFFCURVE",
"484 76 OFFCURVE",
"484 270 CURVE",
"453 270 LINE",
"453 177 OFFCURVE",
"399 106 OFFCURVE",
"307 104 CURVE SMOOTH",
"230 104 OFFCURVE",
"183 153 OFFCURVE",
"183 233 CURVE SMOOTH",
"183 532 LINE",
"68 532 LINE",
"68 201 LINE SMOOTH",
"68 74 OFFCURVE",
"141 -4 OFFCURVE",
"263 -4 CURVE SMOOTH"
);
}
);
width = 653;
}
);
leftKerningGroup = u;
rightKerningGroup = i;
unicode = 0075;
},
{
glyphname = uogonek;
layers = (
{
layerId = "0684C2B6-4C69-4B0A-A52B-80982EBE3DDB";
paths = (
{
closed = 1;
nodes = (
"452 532 LINE",
"452 249 LINE SMOOTH",
"444 167 OFFCURVE",
"391 106 OFFCURVE",
"307 104 CURVE SMOOTH",
"230 104 OFFCURVE",
"182 153 OFFCURVE",
"182 233 CURVE SMOOTH",
"182 532 LINE",
"68 532 LINE",
"68 201 LINE SMOOTH",
"68 74 OFFCURVE",
"140 -4 OFFCURVE",
"262 -4 CURVE SMOOTH",
"349 -3 OFFCURVE",
"415 29 OFFCURVE",
"452 99 CURVE",
"452 0 LINE",
"481 0 LINE",
"448 -47 OFFCURVE",
"429 -86 OFFCURVE",
"429 -123 CURVE SMOOTH",
"429 -178 OFFCURVE",
"470 -201 OFFCURVE",
"508 -201 CURVE SMOOTH",
"545 -201 OFFCURVE",
"580 -180 OFFCURVE",
"603 -144 CURVE",
"570 -105 LINE",
"555 -124 OFFCURVE",
"539 -137 OFFCURVE",
"521 -137 CURVE SMOOTH",
"503 -137 OFFCURVE",
"491 -125 OFFCURVE",
"491 -105 CURVE SMOOTH",
"491 -82 OFFCURVE",
"505 -48 OFFCURVE",
"541 0 CURVE",
"566 0 LINE",
"566 532 LINE"
);
}
);
width = 647;
}
);
leftKerningGroup = u;
leftMetricsKey = u;
rightKerningGroup = u;
unicode = 0173;
},
{
glyphname = v;
layers = (
{
layerId = "0684C2B6-4C69-4B0A-A52B-80982EBE3DDB";
paths = (
{
closed = 1;
nodes = (
"415 532 LINE",
"269 113 LINE",
"121 532 LINE",
"1 532 LINE",
"207 0 LINE",
"326 0 LINE",
"530 532 LINE"
);
}
);
width = 525;
}
);
leftKerningGroup = v;
rightKerningGroup = v;
unicode = 0076;
},
{
glyphname = w;
layers = (
{
anchors = (
{
name = top;
position = "{447, 532}";
}
);
layerId = "0684C2B6-4C69-4B0A-A52B-80982EBE3DDB";
paths = (
{
closed = 1;
nodes = (
"781 532 LINE",
"646 114 LINE",
"510 532 LINE",
"391 532 LINE",
"257 114 LINE",
"119 532 LINE",
"1 532 LINE",
"197 0 LINE",
"315 0 LINE",
"450 394 LINE",
"585 0 LINE",
"704 0 LINE",
"898 532 LINE"
);
}
);
width = 893;
}
);
leftKerningGroup = v;
rightKerningGroup = v;
unicode = 0077;
},
{
glyphname = x;
layers = (
{
layerId = "0684C2B6-4C69-4B0A-A52B-80982EBE3DDB";
paths = (
{
closed = 1;
nodes = (
"27 532 LINE",
"202 273 LINE",
"14 0 LINE",
"142 0 LINE",
"278 195 LINE",
"405 0 LINE",
"537 0 LINE",
"354 273 LINE",
"525 532 LINE",
"399 532 LINE",
"278 350 LINE",
"159 532 LINE"
);
}
);
width = 554;
}
);
leftKerningGroup = x;
rightKerningGroup = x;
unicode = 0078;
},
{
glyphname = y;
layers = (
{
anchors = (
{
name = top;
position = "{267, 532}";
}
);
layerId = "0684C2B6-4C69-4B0A-A52B-80982EBE3DDB";
paths = (
{
closed = 1;
nodes = (
"421 532 LINE",
"273 129 LINE",
"114 532 LINE",
"-5 532 LINE",
"215 8 LINE",
"197 -32 LINE SMOOTH",
"179 -72 OFFCURVE",
"151 -91 OFFCURVE",
"116 -91 CURVE SMOOTH",
"92 -91 OFFCURVE",
"72 -83 OFFCURVE",
"47 -65 CURVE",
"-2 -154 LINE",
"35 -185 OFFCURVE",
"73 -199 OFFCURVE",
"121 -199 CURVE SMOOTH",
"201 -199 OFFCURVE",
"261 -157 OFFCURVE",
"294 -73 CURVE SMOOTH",
"536 532 LINE"
);
}
);
width = 531;
}
);
leftKerningGroup = v;
rightKerningGroup = v;
unicode = 0079;
},
{
glyphname = z;
layers = (
{
anchors = (
{
name = top;
position = "{268, 532}";
}
);
layerId = "0684C2B6-4C69-4B0A-A52B-80982EBE3DDB";
paths = (
{
closed = 1;
nodes = (
"54 532 LINE",
"54 438 LINE",
"349 438 LINE",
"45 78 LINE",
"45 0 LINE",
"500 -1 LINE",
"500 93 LINE",
"187 94 LINE",
"491 454 LINE",
"491 531 LINE"
);
}
);
width = 537;
}
);
leftKerningGroup = z;
rightKerningGroup = z;
unicode = 007A;
},
{
glyphname = a.ss01;
layers = (
{
anchors = (
{
name = ogonek;
position = "{627, 10}";
},
{
name = top;
position = "{333, 532}";
}
);
layerId = "0684C2B6-4C69-4B0A-A52B-80982EBE3DDB";
paths = (
{
closed = 1;
nodes = (
"476 532 LINE",
"476 0 LINE",
"590 0 LINE",
"590 532 LINE"
);
},
{
closed = 1;
nodes = (
"136 536 OFFCURVE",
"35 427 OFFCURVE",
"35 268 CURVE SMOOTH",
"35 106 OFFCURVE",
"137 -5 OFFCURVE",
"290 -5 CURVE SMOOTH",
"436 -5 OFFCURVE",
"520 97 OFFCURVE",
"519 267 CURVE",
"520 436 OFFCURVE",
"434 538 OFFCURVE",
"286 537 CURVE SMOOTH"
);
},
{
closed = 1;
nodes = (
"410 439 OFFCURVE",
"476 367 OFFCURVE",
"477 264 CURVE SMOOTH",
"476 163 OFFCURVE",
"410 91 OFFCURVE",
"314 91 CURVE SMOOTH",
"217 91 OFFCURVE",
"151 163 OFFCURVE",
"150 264 CURVE SMOOTH",
"151 366 OFFCURVE",
"218 439 OFFCURVE",
"314 439 CURVE SMOOTH"
);
}
);
width = 675;
}
);
leftKerningGroup = o;
leftMetricsKey = o;
rightKerningGroup = dotlessi;
rightMetricsKey = dotlessi;
},
{
glyphname = ae.ss01;
layers = (
{
anchors = (
{
name = top;
position = "{477, 532}";
}
);
layerId = "0684C2B6-4C69-4B0A-A52B-80982EBE3DDB";
paths = (
{
closed = 0;
nodes = (
"552 124 LINE"
);
},
{
closed = 1;
nodes = (
"241 320 LINE SMOOTH",
"114 319 OFFCURVE",
"41 257 OFFCURVE",
"41 160 CURVE SMOOTH",
"41 66 OFFCURVE",
"113 -5 OFFCURVE",
"228 -5 CURVE SMOOTH",
"344 -5 OFFCURVE",
"429 45 OFFCURVE",
"470 144 CURVE",
"405 196 LINE",
"403 133 OFFCURVE",
"337 86 OFFCURVE",
"252 86 CURVE SMOOTH",
"188 86 OFFCURVE",
"149 117 OFFCURVE",
"149 165 CURVE SMOOTH",
"149 216 OFFCURVE",
"184 236 OFFCURVE",
"259 236 CURVE SMOOTH",
"418 236 LINE",
"418 320 LINE"
);
},
{
closed = 1;
nodes = (
"119 389 LINE",
"172 425 OFFCURVE",
"225 443 OFFCURVE",
"275 443 CURVE SMOOTH",
"360 443 OFFCURVE",
"402 403 OFFCURVE",
"403 335 CURVE",
"404 151 LINE",
"517 148 LINE",
"516 349 LINE SMOOTH",
"515 466 OFFCURVE",
"438 536 OFFCURVE",
"301 536 CURVE SMOOTH",
"199 536 OFFCURVE",
"146 513 OFFCURVE",
"72 469 CURVE"
);
},
{
closed = 1;
nodes = (
"812 115 OFFCURVE",
"759 88 OFFCURVE",
"700 88 CURVE SMOOTH",
"600 88 OFFCURVE",
"530 162 OFFCURVE",
"530 272 CURVE SMOOTH",
"530 383 OFFCURVE",
"592 443 OFFCURVE",
"689 443 CURVE SMOOTH",
"753 443 OFFCURVE",
"798 418 OFFCURVE",
"823 358 CURVE",
"509 264 LINE",
"513 177 LINE",
"934 304 LINE",
"925 449 OFFCURVE",
"828 538 OFFCURVE",
"683 536 CURVE SMOOTH",
"519 534 OFFCURVE",
"416 422 OFFCURVE",
"416 267 CURVE SMOOTH",
"416 105 OFFCURVE",
"528 -4 OFFCURVE",
"692 -4 CURVE SMOOTH",
"785 -4 OFFCURVE",
"863 31 OFFCURVE",
"923 104 CURVE",
"856 165 LINE"
);
}
);
width = 967;
}
);
leftKerningGroup = ae.ss01;
leftMetricsKey = a;
rightKerningGroup = ae.ss01;
rightMetricsKey = e;
},
{
glyphname = e.ss01;
layers = (
{
anchors = (
{
name = bottom;
position = "{302, 0}";
},
{
name = ogonek;
position = "{543, 10}";
},
{
name = top;
position = "{302, 532}";
}
);
layerId = "0684C2B6-4C69-4B0A-A52B-80982EBE3DDB";
paths = (
{
closed = 1;
nodes = (
"133 178 LINE",
"553 304 LINE",
"544 449 OFFCURVE",
"447 538 OFFCURVE",
"302 536 CURVE SMOOTH",
"138 534 OFFCURVE",
"35 422 OFFCURVE",
"35 266 CURVE SMOOTH",
"35 105 OFFCURVE",
"148 -4 OFFCURVE",
"312 -4 CURVE SMOOTH",
"404 -4 OFFCURVE",
"482 31 OFFCURVE",
"542 104 CURVE",
"475 166 LINE",
"432 115 OFFCURVE",
"378 88 OFFCURVE",
"319 88 CURVE SMOOTH",
"219 88 OFFCURVE",
"150 162 OFFCURVE",
"150 272 CURVE SMOOTH",
"150 383 OFFCURVE",
"212 443 OFFCURVE",
"309 443 CURVE SMOOTH",
"372 443 OFFCURVE",
"417 418 OFFCURVE",
"442 358 CURVE",
"128 264 LINE"
);
}
);
width = 598;
}
);
leftKerningGroup = o;
leftMetricsKey = o;
rightKerningGroup = e;
},
{
glyphname = eogonek.ss01;
layers = (
{
layerId = "0684C2B6-4C69-4B0A-A52B-80982EBE3DDB";
paths = (
{
closed = 1;
nodes = (
"219 88 OFFCURVE",
"150 162 OFFCURVE",
"150 272 CURVE SMOOTH",
"150 383 OFFCURVE",
"212 443 OFFCURVE",
"309 443 CURVE SMOOTH",
"372 443 OFFCURVE",
"417 418 OFFCURVE",
"442 358 CURVE",
"128 264 LINE",
"133 178 LINE",
"553 304 LINE",
"544 449 OFFCURVE",
"447 538 OFFCURVE",
"302 536 CURVE SMOOTH",
"138 534 OFFCURVE",
"35 422 OFFCURVE",
"35 266 CURVE SMOOTH",
"35 105 OFFCURVE",
"148 -4 OFFCURVE",
"312 -4 CURVE",
"354 -4 OFFCURVE",
"394 8 OFFCURVE",
"429 28 CURVE",
"386 -30 OFFCURVE",
"366 -79 OFFCURVE",
"366 -123 CURVE SMOOTH",
"366 -178 OFFCURVE",
"406 -201 OFFCURVE",
"445 -201 CURVE SMOOTH",
"482 -201 OFFCURVE",
"516 -180 OFFCURVE",
"539 -144 CURVE",
"506 -105 LINE",
"492 -124 OFFCURVE",
"475 -137 OFFCURVE",
"458 -137 CURVE SMOOTH",
"441 -137 OFFCURVE",
"428 -125 OFFCURVE",
"428 -105 CURVE SMOOTH",
"428 -56 OFFCURVE",
"473 16 OFFCURVE",
"532 86 CURVE",
"471 151 LINE",
"432 111 OFFCURVE",
"377 88 OFFCURVE",
"319 88 CURVE"
);
}
);
width = 598;
}
);
leftKerningGroup = o;
rightKerningGroup = e;
},
{
glyphname = f.ss01;
layers = (
{
layerId = "0684C2B6-4C69-4B0A-A52B-80982EBE3DDB";
paths = (
{
closed = 1;
nodes = (
"165 747 OFFCURVE",
"74 688 OFFCURVE",
"74 564 CURVE",
"74 0 LINE",
"188 0 LINE",
"188 575 LINE",
"188 625 OFFCURVE",
"221 647 OFFCURVE",
"260 647 CURVE",
"284 647 OFFCURVE",
"311 638 OFFCURVE",
"333 622 CURVE",
"377 710 LINE",
"343 735 OFFCURVE",
"300 747 OFFCURVE",
"257 747 CURVE"
);
},
{
closed = 1;
nodes = (
"84 512 LINE",
"84 426 LINE",
"327 426 LINE",
"327 512 LINE"
);
}
);
width = 322;
}
);
leftKerningGroup = f.ss01;
rightKerningGroup = f.ss01;
},
{
glyphname = g.ss01;
layers = (
{
anchors = (
{
name = top;
position = "{315, 532}";
}
);
layerId = "0684C2B6-4C69-4B0A-A52B-80982EBE3DDB";
paths = (
{
closed = 1;
nodes = (
"451 532 LINE",
"451 49 LINE SMOOTH",
"451 -43 OFFCURVE",
"385 -103 OFFCURVE",
"284 -102 CURVE SMOOTH",
"216 -100 OFFCURVE",
"160 -60 OFFCURVE",
"125 -2 CURVE",
"63 -74 LINE",
"103 -150 OFFCURVE",
"192 -197 OFFCURVE",
"289 -198 CURVE SMOOTH",
"456 -199 OFFCURVE",
"565 -101 OFFCURVE",
"565 52 CURVE SMOOTH",
"565 532 LINE"
);
},
{
closed = 1;
nodes = (
"130 535 OFFCURVE",
"35 432 OFFCURVE",
"35 283 CURVE SMOOTH",
"35 130 OFFCURVE",
"131 26 OFFCURVE",
"275 26 CURVE SMOOTH",
"413 26 OFFCURVE",
"492 122 OFFCURVE",
"491 282 CURVE",
"492 441 OFFCURVE",
"411 537 OFFCURVE",
"271 536 CURVE SMOOTH"
);
},
{
closed = 1;
nodes = (
"388 443 OFFCURVE",
"450 376 OFFCURVE",
"451 280 CURVE SMOOTH",
"450 184 OFFCURVE",
"388 116 OFFCURVE",
"298 116 CURVE SMOOTH",
"206 116 OFFCURVE",
"144 184 OFFCURVE",
"143 280 CURVE SMOOTH",
"144 375 OFFCURVE",
"207 443 OFFCURVE",
"298 443 CURVE SMOOTH"
);
}
);
width = 640;
}
);
leftKerningGroup = o;
leftMetricsKey = o;
rightKerningGroup = j;
rightMetricsKey = j;
},
{
glyphname = l.ss01;
layers = (
{
anchors = (
{
name = bottom;
position = "{157, 0}";
},
{
name = top;
position = "{157, 532}";
},
{
name = topright;
position = "{293, 532}";
}
);
layerId = "0684C2B6-4C69-4B0A-A52B-80982EBE3DDB";
paths = (
{
closed = 1;
nodes = (
"76 150 LINE SMOOTH",
"76 48 OFFCURVE",
"134 -5 OFFCURVE",
"208 -5 CURVE SMOOTH",
"240 -5 OFFCURVE",
"274 4 OFFCURVE",
"308 23 CURVE",
"292 117 LINE",
"272 106 OFFCURVE",
"255 100 OFFCURVE",
"239 100 CURVE SMOOTH",
"209 100 OFFCURVE",
"190 119 OFFCURVE",
"190 162 CURVE SMOOTH",
"190 742 LINE",
"76 742 LINE"
);
}
);
width = 309;
}
);
leftKerningGroup = l.ss01;
rightKerningGroup = l.ss01;
},
{
glyphname = oe.ss01;
layers = (
{
anchors = (
{
name = bottom;
position = "{927, 0}";
},
{
name = ogonek;
position = "{1168, 10}";
},
{
name = top;
position = "{927, 532}";
}
);
layerId = "0684C2B6-4C69-4B0A-A52B-80982EBE3DDB";
paths = (
{
closed = 1;
nodes = (
"148 536 OFFCURVE",
"35 427 OFFCURVE",
"35 266 CURVE SMOOTH",
"35 106 OFFCURVE",
"148 -4 OFFCURVE",
"313 -4 CURVE SMOOTH",
"469 -4 OFFCURVE",
"567 106 OFFCURVE",
"567 266 CURVE SMOOTH",
"567 427 OFFCURVE",
"469 536 OFFCURVE",
"313 536 CURVE SMOOTH"
);
},
{
closed = 1;
nodes = (
"408 438 OFFCURVE",
"475 367 OFFCURVE",
"475 265 CURVE SMOOTH",
"475 162 OFFCURVE",
"408 92 OFFCURVE",
"313 92 CURVE SMOOTH",
"217 92 OFFCURVE",
"150 162 OFFCURVE",
"150 265 CURVE SMOOTH",
"150 367 OFFCURVE",
"217 438 OFFCURVE",
"313 438 CURVE SMOOTH"
);
},
{
closed = 1;
nodes = (
"584 534 OFFCURVE",
"495 422 OFFCURVE",
"495 266 CURVE SMOOTH",
"495 105 OFFCURVE",
"594 -4 OFFCURVE",
"752 -4 CURVE SMOOTH",
"844 -4 OFFCURVE",
"922 31 OFFCURVE",
"982 104 CURVE",
"915 166 LINE",
"872 115 OFFCURVE",
"818 88 OFFCURVE",
"759 88 CURVE SMOOTH",
"659 88 OFFCURVE",
"590 162 OFFCURVE",
"590 272 CURVE SMOOTH",
"590 383 OFFCURVE",
"652 443 OFFCURVE",
"749 443 CURVE SMOOTH",
"812 443 OFFCURVE",
"857 418 OFFCURVE",
"882 358 CURVE",
"568 264 LINE",
"573 178 LINE",
"993 304 LINE",
"984 449 OFFCURVE",
"887 538 OFFCURVE",
"742 536 CURVE SMOOTH"
);
}
);
width = 1038;
}
);
leftKerningGroup = o;
leftMetricsKey = "=o";
rightKerningGroup = o;
rightMetricsKey = e.ss01;
},
{
glyphname = t.ss01;
layers = (
{
anchors = (
{
name = bottom;
position = "{200, 0}";
},
{
name = center;
position = "{170, 267}";
}
);
layerId = "0684C2B6-4C69-4B0A-A52B-80982EBE3DDB";
paths = (
{
closed = 1;
nodes = (
"72 658 LINE",
"72 169 LINE",
"72 53 OFFCURVE",
"140 -5 OFFCURVE",
"224 -5 CURVE",
"265 -5 OFFCURVE",
"310 9 OFFCURVE",
"352 34 CURVE",
"323 122 LINE",
"292 107 OFFCURVE",
"266 99 OFFCURVE",
"245 99 CURVE",
"207 99 OFFCURVE",
"186 126 OFFCURVE",
"186 189 CURVE",
"186 658 LINE"
);
},
{
closed = 1;
nodes = (
"97 512 LINE",
"97 426 LINE",
"343 426 LINE",
"343 512 LINE"
);
}
);
width = 373;
}
);
leftKerningGroup = u;
rightKerningGroup = t;
rightMetricsKey = t;
},
{
glyphname = tbar.ss01;
layers = (
{
anchors = (
{
name = bottom;
position = "{200, 0}";
},
{
name = center;
position = "{170, 267}";
}
);
layerId = "0684C2B6-4C69-4B0A-A52B-80982EBE3DDB";
paths = (
{
closed = 1;
nodes = (
"72 658 LINE",
"72 169 LINE",
"72 53 OFFCURVE",
"140 -5 OFFCURVE",
"224 -5 CURVE",
"265 -5 OFFCURVE",
"310 9 OFFCURVE",
"352 34 CURVE",
"323 122 LINE",
"292 107 OFFCURVE",
"266 99 OFFCURVE",
"245 99 CURVE",
"207 99 OFFCURVE",
"186 126 OFFCURVE",
"186 189 CURVE",
"186 658 LINE"
);
},
{
closed = 1;
nodes = (
"97 512 LINE",
"97 428 LINE",
"343 428 LINE",
"343 512 LINE"
);
},
{
closed = 1;
nodes = (
"97 333 LINE",
"97 249 LINE",
"343 249 LINE",
"343 333 LINE"
);
}
);
width = 373;
}
);
leftKerningGroup = tbar.ss01;
rightKerningGroup = tbar.ss01;
},
{
glyphname = w.ss01;
layers = (
{
anchors = (
{
name = top;
position = "{485, 532}";
}
);
layerId = "0684C2B6-4C69-4B0A-A52B-80982EBE3DDB";
paths = (
{
closed = 1;
nodes = (
"789 532 LINE",
"789 225 LINE SMOOTH",
"789 151 OFFCURVE",
"741 104 OFFCURVE",
"669 104 CURVE SMOOTH",
"593 104 OFFCURVE",
"543 151 OFFCURVE",
"543 225 CURVE SMOOTH",
"543 532 LINE",
"428 532 LINE",
"428 225 LINE SMOOTH",
"428 151 OFFCURVE",
"380 104 OFFCURVE",
"305 104 CURVE SMOOTH",
"231 104 OFFCURVE",
"182 151 OFFCURVE",
"182 225 CURVE SMOOTH",
"182 532 LINE",
"67 532 LINE",
"67 220 LINE SMOOTH",
"67 85 OFFCURVE",
"155 -5 OFFCURVE",
"287 -5 CURVE SMOOTH",
"373 -5 OFFCURVE",
"454 40 OFFCURVE",
"486 110 CURVE",
"520 40 OFFCURVE",
"600 -5 OFFCURVE",
"686 -5 CURVE SMOOTH",
"817 -5 OFFCURVE",
"904 85 OFFCURVE",
"904 220 CURVE SMOOTH",
"904 532 LINE"
);
}
);
width = 970;
}
);
leftKerningGroup = u;
rightKerningGroup = w.ss01;
},
{
glyphname = y.ss01;
layers = (
{
anchors = (
{
name = top;
position = "{321, 532}";
}
);
layerId = "0684C2B6-4C69-4B0A-A52B-80982EBE3DDB";
paths = (
{
closed = 1;
nodes = (
"426 46 OFFCURVE",
"501 137 OFFCURVE",
"501 328 CURVE",
"462 328 LINE",
"462 221 OFFCURVE",
"406 154 OFFCURVE",
"311 153 CURVE SMOOTH",
"231 153 OFFCURVE",
"183 202 OFFCURVE",
"183 283 CURVE SMOOTH",
"183 532 LINE",
"68 532 LINE",
"68 250 LINE SMOOTH",
"68 123 OFFCURVE",
"143 44 OFFCURVE",
"265 44 CURVE SMOOTH"
);
},
{
closed = 1;
nodes = (
"462 532 LINE",
"462 59 LINE",
"462 -41 OFFCURVE",
"399 -102 OFFCURVE",
"298 -102 CURVE SMOOTH",
"235 -100 OFFCURVE",
"164 -73 OFFCURVE",
"115 -34 CURVE",
"84 -118 LINE",
"140 -165 OFFCURVE",
"230 -196 OFFCURVE",
"310 -198 CURVE",
"472 -199 OFFCURVE",
"576 -99 OFFCURVE",
"576 57 CURVE",
"576 532 LINE"
);
}
);
width = 651;
}
);
leftKerningGroup = u;
leftMetricsKey = u;
rightKerningGroup = j;
rightMetricsKey = g;
},
{
glyphname = z.ss01;
layers = (
{
anchors = (
{
name = top;
position = "{268, 532}";
}
);
layerId = "0684C2B6-4C69-4B0A-A52B-80982EBE3DDB";
paths = (
{
closed = 1;
nodes = (
"254 309 LINE",
"254 221 LINE",
"450 221 LINE",
"450 309 LINE"
);
},
{
closed = 1;
nodes = (
"83 315 LINE",
"83 227 LINE",
"260 227 LINE",
"260 315 LINE"
);
},
{
closed = 1;
nodes = (
"54 532 LINE",
"54 438 LINE",
"349 438 LINE",
"45 78 LINE",
"45 0 LINE",
"500 -1 LINE",
"500 93 LINE",
"187 94 LINE",
"491 454 LINE",
"491 531 LINE"
);
}
);
width = 537;
}
);
leftKerningGroup = z;
leftMetricsKey = z;
rightKerningGroup = z;
rightMetricsKey = z;
},
{
glyphname = fi;
layers = (
{
components = (
{
name = i;
transform = "{1, 0, 0, 1, 343, 0}";
}
);
layerId = "0684C2B6-4C69-4B0A-A52B-80982EBE3DDB";
paths = (
{
closed = 1;
nodes = (
"201 747 OFFCURVE",
"107 691 OFFCURVE",
"107 564 CURVE",
"107 0 LINE",
"221 0 LINE",
"221 575 LINE",
"221 627 OFFCURVE",
"252 646 OFFCURVE",
"293 646 CURVE",
"321 646 OFFCURVE",
"354 637 OFFCURVE",
"385 623 CURVE",
"389 723 LINE",
"361 739 OFFCURVE",
"326 747 OFFCURVE",
"290 747 CURVE"
);
},
{
closed = 1;
nodes = (
"37 513 LINE",
"37 427 LINE",
"360 427 LINE",
"360 513 LINE"
);
}
);
width = 627;
}
);
leftKerningGroup = f;
leftMetricsKey = f;
rightKerningGroup = dotlessi;
rightMetricsKey = i;
unicode = FB01;
},
{
glyphname = fl;
layers = (
{
components = (
{
name = l;
transform = "{1, 0, 0, 1, 356, 0}";
}
);
layerId = "0684C2B6-4C69-4B0A-A52B-80982EBE3DDB";
paths = (
{
closed = 1;
nodes = (
"183 753 OFFCURVE",
"107 681 OFFCURVE",
"107 578 CURVE",
"107 0 LINE",
"221 0 LINE",
"221 561 LINE",
"221 617 OFFCURVE",
"260 656 OFFCURVE",
"313 655 CURVE",
"338 655 OFFCURVE",
"365 646 OFFCURVE",
"387 629 CURVE",
"390 729 LINE",
"364 743 OFFCURVE",
"326 751 OFFCURVE",
"291 752 CURVE"
);
},
{
closed = 1;
nodes = (
"38 513 LINE",
"37 428 LINE",
"360 428 LINE",
"361 513 LINE"
);
}
);
width = 651;
}
);
leftKerningGroup = f;
leftMetricsKey = f;
rightKerningGroup = l;
rightMetricsKey = l;
unicode = FB02;
},
{
glyphname = fi.ss01;
layers = (
{
components = (
{
name = i;
transform = "{1, 0, 0, 1, 321, 0}";
}
);
layerId = "0684C2B6-4C69-4B0A-A52B-80982EBE3DDB";
paths = (
{
closed = 1;
nodes = (
"168 747 OFFCURVE",
"74 691 OFFCURVE",
"74 564 CURVE",
"74 0 LINE",
"188 0 LINE",
"188 575 LINE",
"188 627 OFFCURVE",
"219 646 OFFCURVE",
"260 646 CURVE",
"288 646 OFFCURVE",
"321 637 OFFCURVE",
"352 623 CURVE",
"356 723 LINE",
"328 739 OFFCURVE",
"293 747 OFFCURVE",
"257 747 CURVE"
);
},
{
closed = 1;
nodes = (
"104 512 LINE",
"104 426 LINE",
"327 426 LINE",
"327 512 LINE"
);
}
);
width = 605;
}
);
leftKerningGroup = f;
leftMetricsKey = f.ss01;
rightKerningGroup = dotlessi;
rightMetricsKey = i;
},
{
glyphname = fl.ss01;
layers = (
{
anchors = (
{
name = caret_1;
position = "{335, 0}";
}
);
layerId = "0684C2B6-4C69-4B0A-A52B-80982EBE3DDB";
paths = (
{
closed = 1;
nodes = (
"647 17 LINE",
"627 6 OFFCURVE",
"610 0 OFFCURVE",
"594 0 CURVE SMOOTH",
"564 0 OFFCURVE",
"545 19 OFFCURVE",
"545 62 CURVE SMOOTH",
"545 563 LINE SMOOTH",
"545 683 OFFCURVE",
"473 745 OFFCURVE",
"330 746 CURVE SMOOTH",
"183 747 OFFCURVE",
"108 688 OFFCURVE",
"107 573 CURVE SMOOTH",
"107 510 LINE",
"37 510 LINE",
"37 424 LINE",
"107 424 LINE",
"107 0 LINE",
"221 0 LINE",
"222 424 LINE",
"335 424 LINE",
"335 510 LINE",
"222 510 LINE",
"221 575 LINE SMOOTH",
"221 623 OFFCURVE",
"255 648 OFFCURVE",
"323 647 CURVE SMOOTH",
"395 646 OFFCURVE",
"431 615 OFFCURVE",
"431 554 CURVE SMOOTH",
"431 50 LINE SMOOTH",
"431 -52 OFFCURVE",
"489 -105 OFFCURVE",
"563 -105 CURVE SMOOTH",
"595 -105 OFFCURVE",
"629 -96 OFFCURVE",
"663 -77 CURVE"
);
}
);
width = 664;
}
);
leftKerningGroup = f;
leftMetricsKey = f;
rightKerningGroup = l;
rightMetricsKey = l.ss01;
},
{
glyphname = ordfeminine;
layers = (
{
layerId = "0684C2B6-4C69-4B0A-A52B-80982EBE3DDB";
paths = (
{
closed = 1;
nodes = (
"150 777 OFFCURVE",
"100 763 OFFCURVE",
"52 740 CURVE",
"73 684 LINE",
"110 703 OFFCURVE",
"147 714 OFFCURVE",
"180 714 CURVE",
"230 714 OFFCURVE",
"255 692 OFFCURVE",
"255 655 CURVE",
"256 458 LINE",
"336 458 LINE",
"335 664 LINE",
"335 735 OFFCURVE",
"285 777 OFFCURVE",
"198 777 CURVE"
);
},
{
closed = 1;
nodes = (
"265 641 LINE",
"159 641 LINE",
"79 640 OFFCURVE",
"33 608 OFFCURVE",
"33 550 CURVE",
"33 494 OFFCURVE",
"75 455 OFFCURVE",
"142 455 CURVE",
"204 455 OFFCURVE",
"249 482 OFFCURVE",
"270 534 CURVE",
"256 559 LINE",
"238 524 OFFCURVE",
"207 509 OFFCURVE",
"169 509 CURVE",
"132 509 OFFCURVE",
"110 528 OFFCURVE",
"110 557 CURVE",
"110 585 OFFCURVE",
"133 600 OFFCURVE",
"175 600 CURVE",
"265 600 LINE"
);
}
);
width = 385;
}
);
leftKerningGroup = asterisk;
rightKerningGroup = asterisk;
unicode = 00AA;
},
{
glyphname = ordmasculine;
layers = (
{
layerId = "0684C2B6-4C69-4B0A-A52B-80982EBE3DDB";
paths = (
{
closed = 1;
nodes = (
"100 776 OFFCURVE",
"30 712 OFFCURVE",
"30 616 CURVE SMOOTH",
"30 520 OFFCURVE",
"100 456 OFFCURVE",
"203 456 CURVE SMOOTH",
"307 456 OFFCURVE",
"377 520 OFFCURVE",
"377 616 CURVE SMOOTH",
"377 712 OFFCURVE",
"307 776 OFFCURVE",
"203 776 CURVE SMOOTH"
);
},
{
closed = 1;
nodes = (
"257 710 OFFCURVE",
"294 672 OFFCURVE",
"294 615 CURVE SMOOTH",
"294 558 OFFCURVE",
"257 520 OFFCURVE",
"203 520 CURVE SMOOTH",
"149 520 OFFCURVE",
"111 558 OFFCURVE",
"111 615 CURVE SMOOTH",
"111 672 OFFCURVE",
"149 710 OFFCURVE",
"203 710 CURVE SMOOTH"
);
}
);
width = 407;
}
);
leftKerningGroup = asterisk;
rightKerningGroup = asterisk;
unicode = 00BA;
},
{
glyphname = Delta;
layers = (
{
layerId = "0684C2B6-4C69-4B0A-A52B-80982EBE3DDB";
paths = (
{
closed = 1;
nodes = (
"310 700 LINE",
"1 0 LINE",
"124 0 LINE",
"368 574 LINE",
"611 0 LINE",
"738 0 LINE",
"432 700 LINE"
);
},
{
closed = 1;
nodes = (
"101 93 LINE",
"101 0 LINE SMOOTH",
"628 0 LINE",
"628 93 LINE"
);
}
);
width = 738;
}
);
leftKerningGroup = A;
rightKerningGroup = A;
unicode = 0394;
},
{
glyphname = Omega;
layers = (
{
anchors = (
{
name = topleft;
position = "{20, 700}";
}
);
layerId = "0684C2B6-4C69-4B0A-A52B-80982EBE3DDB";
paths = (
{
closed = 1;
nodes = (
"234 706 OFFCURVE",
"82 564 OFFCURVE",
"82 372 CURVE SMOOTH",
"82 271 OFFCURVE",
"139 160 OFFCURVE",
"219 100 CURVE",
"9 100 LINE",
"9 0 LINE",
"342 0 LINE",
"342 92 LINE",
"252 146 OFFCURVE",
"187 259 OFFCURVE",
"187 362 CURVE SMOOTH",
"187 501 OFFCURVE",
"294 601 OFFCURVE",
"441 601 CURVE SMOOTH",
"588 601 OFFCURVE",
"696 501 OFFCURVE",
"696 362 CURVE SMOOTH",
"696 259 OFFCURVE",
"631 146 OFFCURVE",
"541 93 CURVE",
"541 0 LINE",
"873 0 LINE",
"873 100 LINE",
"664 100 LINE",
"744 160 OFFCURVE",
"801 272 OFFCURVE",
"801 372 CURVE SMOOTH",
"801 564 OFFCURVE",
"648 706 OFFCURVE",
"441 706 CURVE SMOOTH"
);
}
);
width = 882;
}
);
leftMetricsKey = T;
rightMetricsKey = T;
unicode = 03A9;
},
{
glyphname = pi;
layers = (
{
layerId = "0684C2B6-4C69-4B0A-A52B-80982EBE3DDB";
paths = (
{
closed = 1;
nodes = (
"163 532 LINE",
"63 532 OFFCURVE",
"-11 466 OFFCURVE",
"-10 380 CURVE",
"-9 338 OFFCURVE",
"5 289 OFFCURVE",
"27 253 CURVE",
"107 284 LINE",
"91 308 OFFCURVE",
"81 337 OFFCURVE",
"81 360 CURVE",
"80 409 OFFCURVE",
"121 444 OFFCURVE",
"177 444 CURVE",
"715 444 LINE",
"715 532 LINE"
);
},
{
closed = 1;
nodes = (
"472 462 LINE",
"472 0 LINE",
"568 0 LINE",
"568 462 LINE"
);
},
{
closed = 1;
nodes = (
"230 462 LINE",
"179 0 LINE",
"275 0 LINE",
"327 462 LINE"
);
}
);
width = 725;
}
);
unicode = 03C0;
},
{
glyphname = "aaMatra-gurmukhi";
layers = (
{
anchors = (
{
name = bindu;
position = "{134, 680}";
},
{
name = candra;
position = "{134, 690}";
},
{
name = top;
position = "{134, 670}";
}
);
layerId = "0684C2B6-4C69-4B0A-A52B-80982EBE3DDB";
paths = (
{
closed = 1;
nodes = (
"191 276 LINE",
"191 590 LINE",
"277 590 LINE",
"277 688 LINE",
"0 688 LINE",
"0 590 LINE",
"78 590 LINE",
"78 276 LINE"
);
}
);
width = 277;
}
);
unicode = 0A3E;
},
{
glyphname = "iMatra-gurmukhi";
layers = (
{
anchors = (
{
name = bindu;
position = "{567, 670}";
},
{
name = candra;
position = "{697, 690}";
}
);
layerId = "0684C2B6-4C69-4B0A-A52B-80982EBE3DDB";
paths = (
{
closed = 1;
nodes = (
"193 590 LINE",
"193 741 LINE SMOOTH",
"193 807 OFFCURVE",
"226 839 OFFCURVE",
"278 839 CURVE SMOOTH",
"336 839 OFFCURVE",
"374 807 OFFCURVE",
"408 753 CURVE",
"482 797 LINE",
"428 897 OFFCURVE",
"347 934 OFFCURVE",
"264 934 CURVE SMOOTH",
"161 934 OFFCURVE",
"84 868 OFFCURVE",
"84 750 CURVE SMOOTH",
"84 688 LINE",
"0 688 LINE",
"0 590 LINE"
);
},
{
closed = 1;
nodes = (
"193 0 LINE",
"193 638 LINE",
"164 590 LINE",
"279 590 LINE",
"279 688 LINE",
"80 688 LINE",
"80 0 LINE"
);
}
);
width = 279;
}
);
unicode = 0A3F;
},
{
glyphname = "iiMatra-gurmukhi";
layers = (
{
anchors = (
{
name = bindu;
position = "{268, 670}";
},
{
name = candra;
position = "{406, 690}";
}
);
layerId = "0684C2B6-4C69-4B0A-A52B-80982EBE3DDB";
paths = (
{
closed = 1;
nodes = (
"183 590 LINE",
"183 723 LINE SMOOTH",
"183 844 OFFCURVE",
"101 934 OFFCURVE",
"-17 934 CURVE SMOOTH",
"-119 934 OFFCURVE",
"-175 879 OFFCURVE",
"-191 797 CURVE",
"-97 755 LINE",
"-84 798 OFFCURVE",
"-63 839 OFFCURVE",
"-8 839 CURVE SMOOTH",
"51 839 OFFCURVE",
"74 794 OFFCURVE",
"74 732 CURVE SMOOTH",
"74 635 LINE",
"123 688 LINE",
"-37 688 LINE",
"-37 590 LINE"
);
},
{
closed = 1;
nodes = (
"183 0 LINE",
"183 638 LINE",
"154 590 LINE",
"269 590 LINE",
"269 688 LINE",
"70 688 LINE",
"70 0 LINE"
);
}
);
width = 268;
}
);
rightMetricsKey = "STEM-GURM";
unicode = 0A40;
},
{
glyphname = "a-gurmukhi";
layers = (
{
anchors = (
{
name = bindu;
position = "{696, 688}";
},
{
name = candra;
position = "{696, 698}";
},
{
name = top;
position = "{696, 678}";
}
);
layerId = "0684C2B6-4C69-4B0A-A52B-80982EBE3DDB";
paths = (
{
closed = 1;
nodes = (
"495 185 OFFCURVE",
"525 275 OFFCURVE",
"525 368 CURVE SMOOTH",
"525 529 OFFCURVE",
"435 614 OFFCURVE",
"321 614 CURVE SMOOTH",
"256 614 OFFCURVE",
"210 586 OFFCURVE",
"176 534 CURVE",
"208 534 LINE",
"185 640 OFFCURVE",
"96 688 OFFCURVE",
"4 688 CURVE SMOOTH",
"-12 688 LINE",
"-12 590 LINE",
"12 590 LINE SMOOTH",
"98 590 OFFCURVE",
"142 507 OFFCURVE",
"135 428 CURVE",
"144 495 LINE",
"103 419 OFFCURVE",
"69 327 OFFCURVE",
"63 198 CURVE",
"156 174 LINE",
"208 283 OFFCURVE",
"231 353 OFFCURVE",
"229 436 CURVE",
"223 384 LINE",
"236 470 OFFCURVE",
"274 510 OFFCURVE",
"328 510 CURVE SMOOTH",
"393 510 OFFCURVE",
"431 453 OFFCURVE",
"427 353 CURVE",
"441 421 LINE",
"362 312 OFFCURVE",
"347 170 OFFCURVE",
"347 88 CURVE",
"440 75 LINE"
);
},
{
closed = 1;
nodes = (
"705 319 LINE",
"705 417 LINE",
"459 417 LINE",
"457 319 LINE"
);
},
{
closed = 1;
nodes = (
"767 0 LINE",
"767 638 LINE",
"738 590 LINE",
"853 590 LINE",
"853 688 LINE",
"654 688 LINE",
"654 0 LINE"
);
}
);
width = 852;
}
);
rightMetricsKey = "STEM-GURM";
unicode = 0A05;
},
{
glyphname = "ee-gurmukhi";
layers = (
{
anchors = (
{
name = _top;
position = "{472, 670}";
},
{
name = bindu;
position = "{621, 680}";
},
{
name = bottom;
position = "{380, 2}";
},
{
name = candra;
position = "{704, 690}";
},
{
name = caret_1;
position = "{377, 30}";
},
{
name = nukta;
position = "{102, -35}";
},
{
name = top;
position = "{513, 670}";
}
);
components = (
{
name = "iri-gurmukhi";
}
);
layerId = "0684C2B6-4C69-4B0A-A52B-80982EBE3DDB";
paths = (
{
closed = 1;
nodes = (
"516 646 LINE",
"516 826 OFFCURVE",
"414 938 OFFCURVE",
"230 938 CURVE SMOOTH",
"185 938 OFFCURVE",
"140 931 OFFCURVE",
"101 917 CURVE",
"124 827 LINE",
"161 836 OFFCURVE",
"203 842 OFFCURVE",
"242 842 CURVE SMOOTH",
"378 842 OFFCURVE",
"425 768 OFFCURVE",
"430 646 CURVE"
);
}
);
width = 630;
}
);
unicode = 0A0F;
},
{
glyphname = "ai-gurmukhi";
layers = (
{
anchors = (
{
name = _top;
position = "{696, 678}";
},
{
name = bindu;
position = "{850, 680}";
},
{
name = candra;
position = "{933, 690}";
},
{
name = top;
position = "{735, 678}";
}
);
components = (
{
name = "a-gurmukhi";
}
);
layerId = "0684C2B6-4C69-4B0A-A52B-80982EBE3DDB";
paths = (
{
closed = 1;
nodes = (
"741 664 LINE",
"739 919 OFFCURVE",
"618 1043 OFFCURVE",
"441 1043 CURVE",
"444 960 LINE",
"572 960 OFFCURVE",
"663 893 OFFCURVE",
"680 722 CURVE",
"691 745 LINE",
"649 842 OFFCURVE",
"536 896 OFFCURVE",
"413 896 CURVE SMOOTH",
"359 896 OFFCURVE",
"307 886 OFFCURVE",
"265 868 CURVE",
"287 784 LINE",
"324 797 OFFCURVE",
"374 805 OFFCURVE",
"426 805.007 CURVE SMOOTH",
"543 805 OFFCURVE",
"655 769 OFFCURVE",
"655 664 CURVE"
);
}
);
width = 853;
}
);
unicode = 0A10;
},
{
glyphname = "oo-gurmukhi";
layers = (
{
anchors = (
{
name = bindu;
position = "{640, 680}";
},
{
name = bottom;
position = "{385, 1}";
},
{
name = candra;
position = "{744, 650}";
},
{
name = caret_1;
position = "{381, 30}";
},
{
name = nukta;
position = "{92, -13}";
},
{
name = top;
position = "{534, 670}";
}
);
layerId = "0684C2B6-4C69-4B0A-A52B-80982EBE3DDB";
paths = (
{
closed = 1;
nodes = (
"515 -10 OFFCURVE",
"595 74 OFFCURVE",
"595 172 CURVE SMOOTH",
"595 268 OFFCURVE",
"527 362 OFFCURVE",
"377 384 CURVE",
"376 329 LINE",
"528 369 OFFCURVE",
"604 475 OFFCURVE",
"604 617 CURVE",
"495 634 LINE",
"495 509 OFFCURVE",
"439 412 OFFCURVE",
"271 412 CURVE SMOOTH",
"118 412 LINE",
"118 325 LINE",
"303 325 LINE SMOOTH",
"435 325 OFFCURVE",
"484 256 OFFCURVE",
"484 192 CURVE SMOOTH",
"484 130 OFFCURVE",
"437 89 OFFCURVE",
"370 89 CURVE SMOOTH",
"208 89 OFFCURVE",
"156 334 OFFCURVE",
"157 538 CURVE SMOOTH",
"157 712 OFFCURVE",
"201 843 OFFCURVE",
"355 843 CURVE SMOOTH",
"386 843 OFFCURVE",
"441 838 OFFCURVE",
"488 827 CURVE",
"511 918 LINE",
"458 932 OFFCURVE",
"393 940 OFFCURVE",
"348 940 CURVE SMOOTH",
"126 940 OFFCURVE",
"49 778 OFFCURVE",
"49 545 CURVE SMOOTH",
"49 262 OFFCURVE",
"147 -10 OFFCURVE",
"385 -10 CURVE SMOOTH"
);
},
{
closed = 1;
nodes = (
"666 590 LINE",
"666 688 LINE",
"-12 688 LINE",
"-12 590 LINE"
);
}
);
width = 654;
}
);
leftMetricsKey = "ura-gurmukhi";
rightMetricsKey = "ura-gurmukhi";
unicode = 0A13;
},
{
glyphname = "ka-gurmukhi";
layers = (
{
anchors = (
{
name = bindu;
position = "{542, 681}";
},
{
name = bottom;
position = "{566, 0}";
},
{
name = candra;
position = "{542, 691}";
},
{
name = caret_1;
position = "{316, 11}";
},
{
name = nukta;
position = "{107, -26}";
},
{
name = top;
position = "{546, 671}";
}
);
layerId = "0684C2B6-4C69-4B0A-A52B-80982EBE3DDB";
paths = (
{
closed = 1;
nodes = (
"622 0 LINE",
"622 20 LINE SMOOTH",
"622 119 OFFCURVE",
"591 226 OFFCURVE",
"535 315 CURVE",
"538 272 LINE",
"580 360 OFFCURVE",
"599 466 OFFCURVE",
"599 560 CURVE SMOOTH",
"599 610 LINE",
"492 610 LINE",
"492 565 LINE SMOOTH",
"492 503 OFFCURVE",
"484 445 OFFCURVE",
"468 393 CURVE",
"411 457 OFFCURVE",
"332 493 OFFCURVE",
"247 493 CURVE SMOOTH",
"108 493 OFFCURVE",
"31 396 OFFCURVE",
"31 291 CURVE SMOOTH",
"31 173 OFFCURVE",
"131 74 OFFCURVE",
"271 74 CURVE SMOOTH",
"369 74 OFFCURVE",
"443 123 OFFCURVE",
"494 207 CURVE",
"473 212 LINE",
"497 155 OFFCURVE",
"509 90 OFFCURVE",
"509 22 CURVE SMOOTH",
"509 0 LINE"
);
},
{
closed = 1;
nodes = (
"194 173 OFFCURVE",
"145 221 OFFCURVE",
"145 283 CURVE SMOOTH",
"145 346 OFFCURVE",
"191 394 OFFCURVE",
"269 394 CURVE SMOOTH",
"342 394 OFFCURVE",
"407 351 OFFCURVE",
"451 276 CURVE",
"449 318 LINE",
"412 224 OFFCURVE",
"348 173 OFFCURVE",
"270 173 CURVE SMOOTH"
);
},
{
closed = 1;
nodes = (
"685 590 LINE",
"685 688 LINE",
"0 688 LINE",
"0 590 LINE"
);
}
);
width = 684;
}
);
leftMetricsKey = "ra-gurmukhi";
rightMetricsKey = "STEM-GURM";
unicode = 0A15;
},
{
glyphname = "kha-gurmukhi";
layers = (
{
anchors = (
{
name = bindu;
position = "{516, 680}";
},
{
name = bottom;
position = "{532, 0}";
},
{
name = candra;
position = "{516, 690}";
},
{
name = caret_1;
position = "{325, 30}";
},
{
name = nukta;
position = "{106, 29}";
},
{
name = top;
position = "{516, 670}";
}
);
components = (
{
name = "pa-gurmukhi";
}
);
layerId = "0684C2B6-4C69-4B0A-A52B-80982EBE3DDB";
paths = (
{
closed = 1;
nodes = (
"525 380 LINE",
"525 477 LINE",
"178 477 LINE",
"179 380 LINE"
);
}
);
width = 673;
}
);
leftMetricsKey = "pa-gurmukhi";
rightMetricsKey = "pa-gurmukhi";
unicode = 0A16;
},
{
glyphname = "ga-gurmukhi";
layers = (
{
anchors = (
{
name = bindu;
position = "{665, 681}";
},
{
name = bottom;
position = "{680, 0}";
},
{
name = candra;
position = "{665, 690}";
},
{
name = caret_1;
position = "{444, 30}";
},
{
name = nukta;
position = "{64, -17}";
},
{
name = top;
position = "{675, 671}";
}
);
layerId = "0684C2B6-4C69-4B0A-A52B-80982EBE3DDB";
paths = (
{
closed = 1;
nodes = (
"430 -10 OFFCURVE",
"499 36 OFFCURVE",
"499 143 CURVE SMOOTH",
"500 639 LINE",
"387 639 LINE",
"387 413 LINE",
"420 446 LINE",
"212 446 LINE SMOOTH",
"103 446 OFFCURVE",
"35 382 OFFCURVE",
"35 273 CURVE SMOOTH",
"35 111 OFFCURVE",
"209 -10 OFFCURVE",
"343 -10 CURVE SMOOTH"
);
},
{
closed = 1;
nodes = (
"239 89 OFFCURVE",
"149 169 OFFCURVE",
"149 258 CURVE SMOOTH",
"149 310 OFFCURVE",
"177 349 OFFCURVE",
"236 349 CURVE SMOOTH",
"420 349 LINE",
"387 367 LINE",
"387 159 LINE SMOOTH",
"387 118 OFFCURVE",
"379 89 OFFCURVE",
"328 89 CURVE SMOOTH"
);
},
{
closed = 1;
nodes = (
"654 590 LINE",
"654 688 LINE",
"0 688 LINE",
"0 590 LINE"
);
},
{
closed = 1;
nodes = (
"736 0 LINE",
"736 638 LINE",
"707 590 LINE",
"822 590 LINE",
"822 688 LINE",
"623 688 LINE",
"623 0 LINE"
);
}
);
width = 821;
}
);
leftMetricsKey = "ra-gurmukhi";
rightMetricsKey = "STEM-GURM";
unicode = 0A17;
},
{
glyphname = "gha-gurmukhi";
layers = (
{
anchors = (
{
name = bindu;
position = "{701, 680}";
},
{
name = bottom;
position = "{716, 0}";
},
{
name = candra;
position = "{701, 690}";
},
{
name = caret_1;
position = "{435, 30}";
},
{
name = nukta;
position = "{109, 0}";
},
{
name = top;
position = "{701, 670}";
}
);
layerId = "0684C2B6-4C69-4B0A-A52B-80982EBE3DDB";
paths = (
{
closed = 1;
nodes = (
"343 111 OFFCURVE",
"412 136 OFFCURVE",
"438 204 CURVE",
"405 203 LINE",
"441 145 OFFCURVE",
"497 111 OFFCURVE",
"566 111 CURVE SMOOTH",
"624 111 OFFCURVE",
"672 126 OFFCURVE",
"706 159 CURVE",
"685 297 LINE",
"657 227 OFFCURVE",
"601 209 OFFCURVE",
"565 209 CURVE SMOOTH",
"501 209 OFFCURVE",
"469 248 OFFCURVE",
"459 293 CURVE",
"459 238 LINE",
"491 321 OFFCURVE",
"504 398 OFFCURVE",
"504 466 CURVE SMOOTH",
"504 524 OFFCURVE",
"497 582 OFFCURVE",
"485 639 CURVE",
"383 639 LINE",
"383 286 LINE",
"361 223 OFFCURVE",
"305 209 OFFCURVE",
"267 209 CURVE SMOOTH",
"195 209 OFFCURVE",
"159 250 OFFCURVE",
"151 298 CURVE",
"140 270 LINE",
"202 305 OFFCURVE",
"252 371 OFFCURVE",
"252 464 CURVE SMOOTH",
"252 569 OFFCURVE",
"175 688 OFFCURVE",
"26 688 CURVE SMOOTH",
"0 688 LINE",
"0 590 LINE",
"31 590 LINE SMOOTH",
"108 590 OFFCURVE",
"141 537 OFFCURVE",
"141 475 CURVE SMOOTH",
"141 411 OFFCURVE",
"107 360 OFFCURVE",
"46 321 CURVE",
"65 185 OFFCURVE",
"164 111 OFFCURVE",
"268 111 CURVE SMOOTH"
);
},
{
closed = 1;
nodes = (
"772 0 LINE",
"772 638 LINE",
"743 590 LINE",
"858 590 LINE",
"858 688 LINE",
"659 688 LINE",
"659 0 LINE"
);
}
);
width = 857;
}
);
leftMetricsKey = "pa-gurmukhi";
rightMetricsKey = "STEM-GURM";
unicode = 0A18;
},
{
glyphname = "nga-gurmukhi";
layers = (
{
anchors = (
{
name = bindu;
position = "{483, 680}";
},
{
name = bottom;
position = "{304, 0}";
},
{
name = candra;
position = "{483, 690}";
},
{
name = caret_1;
position = "{311, 30}";
},
{
name = nukta;
position = "{82, -59}";
},
{
name = top;
position = "{483, 670}";
}
);
layerId = "0684C2B6-4C69-4B0A-A52B-80982EBE3DDB";
paths = (
{
closed = 1;
nodes = (
"487 153 LINE",
"430 227 OFFCURVE",
"333 274 OFFCURVE",
"222 274 CURVE SMOOTH",
"119 274 OFFCURVE",
"52 230 OFFCURVE",
"52 153 CURVE SMOOTH",
"52 59 OFFCURVE",
"149 -10 OFFCURVE",
"297 -10 CURVE SMOOTH",
"491 -10 OFFCURVE",
"597 108 OFFCURVE",
"597 236 CURVE SMOOTH",
"597 354 OFFCURVE",
"508 467 OFFCURVE",
"325 467 CURVE SMOOTH",
"214 467 LINE",
"214 637 LINE",
"101 637 LINE",
"101 370 LINE",
"330 370 LINE SMOOTH",
"445 370 OFFCURVE",
"488 306 OFFCURVE",
"488 241 CURVE SMOOTH",
"488 159 OFFCURVE",
"419 76 OFFCURVE",
"286 76 CURVE SMOOTH",
"205 76 OFFCURVE",
"154 106 OFFCURVE",
"154 147 CURVE SMOOTH",
"154 178 OFFCURVE",
"186 197 OFFCURVE",
"242 197 CURVE SMOOTH",
"312 197 OFFCURVE",
"383 165 OFFCURVE",
"427 111 CURVE"
);
},
{
closed = 1;
nodes = (
"645 590 LINE",
"645 688 LINE",
"0 688 LINE",
"0 590 LINE"
);
}
);
width = 645;
}
);
rightMetricsKey = "ttha-gurmukhi";
unicode = 0A19;
},
{
glyphname = "ca-gurmukhi";
layers = (
{
anchors = (
{
name = bindu;
position = "{544, 680}";
},
{
name = bottom;
position = "{455, 1}";
},
{
name = candra;
position = "{544, 690}";
},
{
name = caret_1;
position = "{427, 30}";
},
{
name = nukta;
position = "{121, 0}";
},
{
name = top;
position = "{554, 670}";
}
);
layerId = "0684C2B6-4C69-4B0A-A52B-80982EBE3DDB";
paths = (
{
closed = 1;
nodes = (
"541 -10 OFFCURVE",
"616 37 OFFCURVE",
"616 149 CURVE",
"616 637 LINE",
"504 637 LINE",
"504 166 LINE",
"504 120 OFFCURVE",
"496 89 OFFCURVE",
"440 89 CURVE SMOOTH",
"336 89 OFFCURVE",
"237 194 OFFCURVE",
"237 312 CURVE",
"122 327 LINE",
"122 132 OFFCURVE",
"310 -10 OFFCURVE",
"455 -10 CURVE SMOOTH"
);
},
{
closed = 1;
nodes = (
"238 381 LINE",
"210 437 OFFCURVE",
"126 440 OFFCURVE",
"38 434 CURVE",
"20 341 LINE",
"68 310 OFFCURVE",
"133 302 OFFCURVE",
"188 311 CURVE"
);
},
{
closed = 1;
nodes = (
"522 307 LINE",
"522 405 LINE",
"144 405 LINE",
"144 307 LINE"
);
},
{
closed = 1;
nodes = (
"702 590 LINE",
"702 688 LINE",
"0 688 LINE",
"0 590 LINE"
);
}
);
width = 701;
}
);
leftMetricsKey = "da-gurmukhi";
rightMetricsKey = "STEM-GURM";
unicode = 0A1A;
},
{
glyphname = "cha-gurmukhi";
layers = (
{
anchors = (
{
name = bindu;
position = "{491, 680}";
},
{
name = bottom;
position = "{331, 2}";
},
{
name = candra;
position = "{491, 690}";
},
{
name = caret_1;
position = "{330, 30}";
},
{
name = nukta;
position = "{82, -59}";
},
{
name = top;
position = "{501, 670}";
}
);
layerId = "0684C2B6-4C69-4B0A-A52B-80982EBE3DDB";
paths = (
{
closed = 1;
nodes = (
"512 -10 OFFCURVE",
"625 44 OFFCURVE",
"625 149 CURVE SMOOTH",
"625 255 OFFCURVE",
"494 304 OFFCURVE",
"327 304 CURVE SMOOTH",
"304 304 OFFCURVE",
"282 303 OFFCURVE",
"260 303 CURVE SMOOTH",
"218 302 OFFCURVE",
"181 321 OFFCURVE",
"181 356 CURVE SMOOTH",
"181 378 OFFCURVE",
"196 406 OFFCURVE",
"253 406 CURVE SMOOTH",
"562 406 LINE",
"562 637 LINE",
"449 637 LINE",
"449 499 LINE",
"226 499 LINE SMOOTH",
"122 499 OFFCURVE",
"67 448 OFFCURVE",
"67 387 CURVE SMOOTH",
"67 319 OFFCURVE",
"115 276 OFFCURVE",
"180 259 CURVE",
"187 289 LINE",
"88 269 OFFCURVE",
"35 222 OFFCURVE",
"35 151 CURVE SMOOTH",
"35 45 OFFCURVE",
"154 -10 OFFCURVE",
"332 -10 CURVE SMOOTH"
);
},
{
closed = 1;
nodes = (
"209 79 OFFCURVE",
"144 97 OFFCURVE",
"144 148.993 CURVE SMOOTH",
"144 198 OFFCURVE",
"202 215 OFFCURVE",
"313 215 CURVE SMOOTH",
"442 215 OFFCURVE",
"516 200 OFFCURVE",
"516 147 CURVE SMOOTH",
"516 98 OFFCURVE",
"451 79 OFFCURVE",
"330 79 CURVE SMOOTH"
);
},
{
closed = 1;
nodes = (
"359 65 LINE",
"359 226 LINE",
"299 226 LINE",
"299 65 LINE"
);
},
{
closed = 1;
nodes = (
"662 590 LINE",
"662 688 LINE",
"0 688 LINE",
"0 590 LINE"
);
}
);
width = 662;
}
);
leftMetricsKey = "ttha-gurmukhi";
rightMetricsKey = "ttha-gurmukhi";
unicode = 0A1B;
},
{
glyphname = "ja-gurmukhi";
layers = (
{
anchors = (
{
name = bindu;
position = "{539, 680}";
},
{
name = bottom;
position = "{555, 0}";
},
{
name = candra;
position = "{539, 690}";
},
{
name = caret_1;
position = "{370, 30}";
},
{
name = nukta;
position = "{370, -71}";
},
{
name = top;
position = "{549, 670}";
}
);
layerId = "0684C2B6-4C69-4B0A-A52B-80982EBE3DDB";
paths = (
{
closed = 1;
nodes = (
"241 55 OFFCURVE",
"249 114 OFFCURVE",
"252 172 CURVE SMOOTH",
"253 208 OFFCURVE",
"253 242 OFFCURVE",
"249 276 CURVE",
"530 276 LINE",
"530 374 LINE",
"213 374 LINE",
"177 405 OFFCURVE",
"126 417 OFFCURVE",
"57 429 CURVE",
"21 341 LINE",
"49 316 OFFCURVE",
"92 293 OFFCURVE",
"140 283 CURVE",
"144 251 OFFCURVE",
"144 219 OFFCURVE",
"142 185 CURVE SMOOTH",
"139 128 OFFCURVE",
"130 68 OFFCURVE",
"119 13 CURVE",
"118 2 LINE",
"231 0 LINE"
);
},
{
closed = 1;
nodes = (
"611 590 LINE",
"611 688 LINE",
"0 688 LINE",
"0 590 LINE"
);
},
{
closed = 1;
nodes = (
"611 0 LINE",
"611 638 LINE",
"582 590 LINE",
"697 590 LINE",
"697 688 LINE",
"498 688 LINE",
"498 0 LINE"
);
}
);
width = 696;
}
);
leftMetricsKey = "da-gurmukhi";
rightMetricsKey = "STEM-GURM";
unicode = 0A1C;
},
{
glyphname = "jha-gurmukhi";
layers = (
{
anchors = (
{
name = bindu;
position = "{525, 680}";
},
{
name = bottom;
position = "{221, -64}";
},
{
name = candra;
position = "{525, 690}";
},
{
name = caret_1;
position = "{326, -13}";
},
{
name = nukta;
position = "{74, -23}";
},
{
name = top;
position = "{539, 670}";
}
);
layerId = "0684C2B6-4C69-4B0A-A52B-80982EBE3DDB";
paths = (
{
closed = 1;
nodes = (
"278 -64 LINE",
"289 74 LINE",
"259 41 LINE",
"278 39 OFFCURVE",
"297 38 OFFCURVE",
"314 38 CURVE SMOOTH",
"498 38 OFFCURVE",
"595 121 OFFCURVE",
"595 227 CURVE SMOOTH",
"595 304 OFFCURVE",
"544 376 OFFCURVE",
"413 413 CURVE",
"423 376 LINE",
"532 404 OFFCURVE",
"595 489 OFFCURVE",
"597 605 CURVE",
"487 608 LINE",
"479 487 OFFCURVE",
"399 435 OFFCURVE",
"322 435 CURVE SMOOTH",
"247 435 OFFCURVE",
"175 484 OFFCURVE",
"176 610 CURVE",
"63 604 LINE",
"65 514 OFFCURVE",
"114 455 OFFCURVE",
"176 422 CURVE",
"206 436 LINE",
"80 436 LINE",
"82 354 LINE",
"310 354 LINE SMOOTH",
"440 354 OFFCURVE",
"485 299 OFFCURVE",
"485 246 CURVE SMOOTH",
"485 187 OFFCURVE",
"433 130 OFFCURVE",
"299 130 CURVE SMOOTH",
"273 130 OFFCURVE",
"247 132 OFFCURVE",
"222 137 CURVE",
"271 126 LINE",
"244 157 OFFCURVE",
"205 174 OFFCURVE",
"172 184 CURVE SMOOTH",
"144 193 OFFCURVE",
"114 199 OFFCURVE",
"83 202 CURVE",
"49 120 LINE",
"80 90 OFFCURVE",
"126 66 OFFCURVE",
"173 53 CURVE",
"165 -52 LINE",
"165 -64 LINE"
);
},
{
closed = 1;
nodes = (
"650 590 LINE",
"650 688 LINE",
"0 688 LINE",
"0 590 LINE"
);
}
);
width = 650;
}
);
leftMetricsKey = "ta-gurmukhi";
rightMetricsKey = "ta-gurmukhi";
unicode = 0A1D;
},
{
glyphname = "nya-gurmukhi";
layers = (
{
anchors = (
{
name = bindu;
position = "{479, 680}";
},
{
name = bottom;
position = "{400, 1}";
},
{
name = candra;
position = "{479, 690}";
},
{
name = caret_1;
position = "{378, 30}";
},
{
name = nukta;
position = "{102, -28}";
},
{
name = top;
position = "{489, 670}";
}
);
components = (
{
name = "va-gurmukhi";
}
);
layerId = "0684C2B6-4C69-4B0A-A52B-80982EBE3DDB";
paths = (
{
closed = 1;
nodes = (
"369 481 LINE",
"255 481 OFFCURVE",
"166 524 OFFCURVE",
"166 611 CURVE",
"52 615 LINE",
"52 501 OFFCURVE",
"191 430 OFFCURVE",
"363 430 CURVE"
);
}
);
width = 635;
}
);
leftMetricsKey = "va-gurmukhi";
rightMetricsKey = "va-gurmukhi";
unicode = 0A1E;
},
{
glyphname = "tta-gurmukhi";
layers = (
{
anchors = (
{
name = bindu;
position = "{474, 680}";
},
{
name = bottom;
position = "{374, 1}";
},
{
name = candra;
position = "{474, 690}";
},
{
name = caret_1;
position = "{369, 30}";
},
{
name = nukta;
position = "{91, -26}";
},
{
name = top;
position = "{464, 670}";
}
);
layerId = "0684C2B6-4C69-4B0A-A52B-80982EBE3DDB";
paths = (
{
closed = 1;
nodes = (
"447 -10 OFFCURVE",
"514 5 OFFCURVE",
"564 29 CURVE",
"540 121 LINE",
"490 101 OFFCURVE",
"429 89 OFFCURVE",
"373 89 CURVE SMOOTH",
"232 89 OFFCURVE",
"150 175 OFFCURVE",
"133 245 CURVE",
"132 193 LINE",
"160 256 OFFCURVE",
"241 359 OFFCURVE",
"480 360 CURVE",
"517 360 LINE",
"517 640 LINE",
"404 640 LINE",
"404 404 LINE",
"445 458 LINE",
"198 456 OFFCURVE",
"79 336 OFFCURVE",
"35 245 CURVE",
"67 103 OFFCURVE",
"204 -10 OFFCURVE",
"382 -10 CURVE SMOOTH"
);
},
{
closed = 1;
nodes = (
"603 590 LINE",
"603 688 LINE",
"0 688 LINE",
"0 590 LINE"
);
}
);
width = 602;
}
);
leftMetricsKey = "ra-gurmukhi";
rightMetricsKey = "STEM-GURM";
unicode = 0A1F;
},
{
glyphname = "ttha-gurmukhi";
layers = (
{
anchors = (
{
name = bindu;
position = "{497, 680}";
},
{
name = bottom;
position = "{328, 2}";
},
{
name = candra;
position = "{328, 690}";
},
{
name = caret_1;
position = "{328, 30}";
},
{
name = nukta;
position = "{56, -26}";
},
{
name = top;
position = "{497, 670}";
}
);
layerId = "0684C2B6-4C69-4B0A-A52B-80982EBE3DDB";
paths = (
{
closed = 1;
nodes = (
"492 -10 OFFCURVE",
"621 80 OFFCURVE",
"621 227 CURVE SMOOTH",
"621 373 OFFCURVE",
"486 460 OFFCURVE",
"328 460 CURVE SMOOTH",
"165 460 OFFCURVE",
"35 373 OFFCURVE",
"35 227 CURVE SMOOTH",
"35 80 OFFCURVE",
"171 -10 OFFCURVE",
"329 -10 CURVE SMOOTH"
);
},
{
closed = 1;
nodes = (
"223 89 OFFCURVE",
"149 145 OFFCURVE",
"149 226 CURVE SMOOTH",
"149 307 OFFCURVE",
"224 361 OFFCURVE",
"327 361 CURVE SMOOTH",
"431 361 OFFCURVE",
"507 307 OFFCURVE",
"507 225 CURVE SMOOTH",
"507 145 OFFCURVE",
"433 89 OFFCURVE",
"328 89 CURVE SMOOTH"
);
},
{
closed = 1;
nodes = (
"384 398 LINE",
"384 648 LINE",
"272 648 LINE",
"272 398 LINE"
);
},
{
closed = 1;
nodes = (
"656 590 LINE",
"656 688 LINE",
"0 688 LINE",
"0 590 LINE"
);
}
);
width = 656;
}
);
unicode = 0A20;
},
{
glyphname = "dda-gurmukhi";
layers = (
{
anchors = (
{
name = bindu;
position = "{494, 680}";
},
{
name = bottom;
position = "{287, 2}";
},
{
name = candra;
position = "{494, 690}";
},
{
name = caret_1;
position = "{283, 30}";
},
{
name = nukta;
position = "{65, -49}";
},
{
name = top;
position = "{484, 670}";
}
);
layerId = "0684C2B6-4C69-4B0A-A52B-80982EBE3DDB";
paths = (
{
closed = 1;
nodes = (
"455 -10 OFFCURVE",
"555 94 OFFCURVE",
"555 208 CURVE SMOOTH",
"555 294 OFFCURVE",
"502 387 OFFCURVE",
"374 415 CURVE",
"375 380 LINE",
"480 414 OFFCURVE",
"538 497 OFFCURVE",
"538 623 CURVE",
"425 624 LINE",
"425 529 OFFCURVE",
"390 460 OFFCURVE",
"282 450 CURVE",
"340 449 LINE",
"305 466 OFFCURVE",
"251 472 OFFCURVE",
"201 472 CURVE SMOOTH",
"166 472 OFFCURVE",
"126 468 OFFCURVE",
"94 459 CURVE",
"100 363 LINE",
"135 354 OFFCURVE",
"172 349 OFFCURVE",
"213 349 CURVE SMOOTH",
"256 349 OFFCURVE",
"309 355 OFFCURVE",
"348 365 CURVE",
"281 366 LINE",
"405 361 OFFCURVE",
"444 290 OFFCURVE",
"444 226 CURVE SMOOTH",
"444 149 OFFCURVE",
"385 76 OFFCURVE",
"270 76 CURVE SMOOTH",
"192 76 OFFCURVE",
"139 107 OFFCURVE",
"139 147 CURVE SMOOTH",
"139 179 OFFCURVE",
"174 197 OFFCURVE",
"224 197 CURVE SMOOTH",
"288 197 OFFCURVE",
"359 163 OFFCURVE",
"405 111 CURVE",
"454 160 LINE",
"400 226 OFFCURVE",
"306 274 OFFCURVE",
"201 274 CURVE SMOOTH",
"110 274 OFFCURVE",
"37 233 OFFCURVE",
"37 153 CURVE SMOOTH",
"37 58.993 OFFCURVE",
"139 -10 OFFCURVE",
"280 -10 CURVE SMOOTH"
);
},
{
closed = 1;
nodes = (
"599 590 LINE",
"599 688 LINE",
"0 688 LINE",
"0 590 LINE"
);
}
);
width = 599;
}
);
leftMetricsKey = "ta-gurmukhi";
rightMetricsKey = "ta-gurmukhi";
unicode = 0A21;
},
{
glyphname = "ddha-gurmukhi";
layers = (
{
anchors = (
{
name = bindu;
position = "{557, 680}";
},
{
name = bottom;
position = "{438, 1}";
},
{
name = candra;
position = "{557, 690}";
},
{
name = caret_1;
position = "{414, 30}";
},
{
name = nukta;
position = "{115, 0}";
},
{
name = top;
position = "{547, 670}";
}
);
layerId = "0684C2B6-4C69-4B0A-A52B-80982EBE3DDB";
paths = (
{
closed = 1;
nodes = (
"585 -9 OFFCURVE",
"664 63 OFFCURVE",
"664 145 CURVE SMOOTH",
"664 229 OFFCURVE",
"582 277 OFFCURVE",
"476 277 CURVE SMOOTH",
"370 277 OFFCURVE",
"272 234 OFFCURVE",
"225 160 CURVE",
"276 116 LINE",
"319 168 OFFCURVE",
"393 200 OFFCURVE",
"466 200 CURVE SMOOTH",
"525 200 OFFCURVE",
"562 180 OFFCURVE",
"562 146 CURVE SMOOTH",
"562 106 OFFCURVE",
"511 76 OFFCURVE",
"418 76 CURVE SMOOTH",
"295 76 OFFCURVE",
"223 150 OFFCURVE",
"223 263 CURVE SMOOTH",
"223 390 LINE",
"197 358 LINE",
"601 358 LINE",
"601 662 LINE",
"489 662 LINE",
"489 446 LINE",
"168 446 LINE",
"231 431 LINE",
"189 462 OFFCURVE",
"134 476 OFFCURVE",
"38 476 CURVE",
"20 382 LINE",
"50 367 OFFCURVE",
"85 356 OFFCURVE",
"124 353 CURVE",
"124 273 LINE SMOOTH",
"124 110 OFFCURVE",
"258 -9 OFFCURVE",
"432 -9 CURVE SMOOTH"
);
},
{
closed = 1;
nodes = (
"700 590 LINE",
"700 688 LINE",
"0 688 LINE",
"0 590 LINE"
);
}
);
width = 700;
}
);
leftMetricsKey = "da-gurmukhi";
rightMetricsKey = "ttha-gurmukhi";
unicode = 0A22;
},
{
glyphname = "nna-gurmukhi";
layers = (
{
anchors = (
{
name = bindu;
position = "{443, 680}";
},
{
name = bottom;
position = "{387, 1}";
},
{
name = candra;
position = "{443, 690}";
},
{
name = caret_1;
position = "{366, 30}";
},
{
name = nukta;
position = "{93, -30}";
},
{
name = top;
position = "{443, 670}";
}
);
layerId = "0684C2B6-4C69-4B0A-A52B-80982EBE3DDB";
paths = (
{
closed = 1;
nodes = (
"450 -10 OFFCURVE",
"519 6 OFFCURVE",
"569 30 CURVE",
"543 123 LINE",
"491 103 OFFCURVE",
"427 89 OFFCURVE",
"366 89 CURVE SMOOTH",
"228 89 OFFCURVE",
"145 162 OFFCURVE",
"130 226 CURVE",
"129 170.007 LINE",
"152 209 OFFCURVE",
"225 277 OFFCURVE",
"405 283 CURVE",
"405 452 LINE",
"292 456 LINE",
"292 306 LINE",
"339 373 LINE",
"169 370 OFFCURVE",
"67 283 OFFCURVE",
"35 221 CURVE",
"65 91 OFFCURVE",
"204 -10 OFFCURVE",
"381 -10 CURVE SMOOTH"
);
},
{
closed = 1;
nodes = (
"558 455 LINE",
"362 464 OFFCURVE",
"268 529 OFFCURVE",
"268 628 CURVE",
"160 640 LINE",
"161 483 OFFCURVE",
"349 363 OFFCURVE",
"553 359 CURVE"
);
},
{
closed = 1;
nodes = (
"620 590 LINE",
"620 688 LINE",
"0 688 LINE",
"0 590 LINE"
);
}
);
width = 620;
}
);
leftMetricsKey = "ra-gurmukhi";
unicode = 0A23;
},
{
glyphname = "ta-gurmukhi";
layers = (
{
anchors = (
{
name = bindu;
position = "{489, 680}";
},
{
name = bottom;
position = "{276, 1}";
},
{
name = candra;
position = "{489, 690}";
},
{
name = caret_1;
position = "{266, 30}";
},
{
name = nukta;
position = "{64, -78}";
},
{
name = top;
position = "{479, 670}";
}
);
layerId = "0684C2B6-4C69-4B0A-A52B-80982EBE3DDB";
paths = (
{
closed = 1;
nodes = (
"445 -10 OFFCURVE",
"547 90 OFFCURVE",
"547 195 CURVE SMOOTH",
"547 277 OFFCURVE",
"490 361 OFFCURVE",
"355 379 CURVE",
"359 350 LINE",
"467 374 OFFCURVE",
"533 462 OFFCURVE",
"533 591 CURVE SMOOTH",
"533 619 LINE",
"420 620 LINE",
"420 598 LINE SMOOTH",
"420 501 OFFCURVE",
"383 424 OFFCURVE",
"274 411 CURVE",
"328 415 LINE",
"302 423 OFFCURVE",
"258 427 OFFCURVE",
"210 427 CURVE SMOOTH",
"173 427 OFFCURVE",
"128 423 OFFCURVE",
"89 416 CURVE",
"95 320 LINE",
"130 311 OFFCURVE",
"168 307 OFFCURVE",
"207 307 CURVE SMOOTH",
"250 307 OFFCURVE",
"299 314 OFFCURVE",
"338 321 CURVE",
"263 320 LINE",
"392 322 OFFCURVE",
"434 266 OFFCURVE",
"434 213 CURVE SMOOTH",
"434 147 OFFCURVE",
"369 89 OFFCURVE",
"252 89 CURVE SMOOTH",
"192 89 OFFCURVE",
"113 105 OFFCURVE",
"61 126 CURVE",
"37 33 LINE",
"97 9 OFFCURVE",
"184 -10 OFFCURVE",
"262 -10 CURVE SMOOTH"
);
},
{
closed = 1;
nodes = (
"594 590 LINE",
"594 688 LINE",
"0 688 LINE",
"0 590 LINE"
);
}
);
width = 594;
}
);
unicode = 0A24;
},
{
glyphname = "tha-gurmukhi";
layers = (
{
anchors = (
{
name = bindu;
position = "{516, 680}";
},
{
name = bottom;
position = "{532, 0}";
},
{
name = candra;
position = "{516, 690}";
},
{
name = caret_1;
position = "{314, 30}";
},
{
name = nukta;
position = "{109, 0}";
},
{
name = top;
position = "{526, 670}";
}
);
components = (
{
name = "dha-gurmukhi";
}
);
layerId = "0684C2B6-4C69-4B0A-A52B-80982EBE3DDB";
paths = (
{
closed = 1;
nodes = (
"531 380 LINE",
"531 442 LINE",
"174 442 LINE",
"174 380 LINE"
);
}
);
width = 673;
}
);
leftMetricsKey = "pa-gurmukhi";
rightMetricsKey = "pa-gurmukhi";
unicode = 0A25;
},
{
glyphname = "da-gurmukhi";
layers = (
{
anchors = (
{
name = bindu;
position = "{550, 680}";
},
{
name = bottom;
position = "{436, 1}";
},
{
name = candra;
position = "{550, 690}";
},
{
name = caret_1;
position = "{432, 30}";
},
{
name = nukta;
position = "{117, 0}";
},
{
name = top;
position = "{540, 670}";
}
);
layerId = "0684C2B6-4C69-4B0A-A52B-80982EBE3DDB";
paths = (
{
closed = 1;
nodes = (
"513 -10 OFFCURVE",
"574 7 OFFCURVE",
"617 29 CURVE",
"593 121 LINE",
"543 103 OFFCURVE",
"488 89 OFFCURVE",
"433 89 CURVE SMOOTH",
"314 89 OFFCURVE",
"231 145 OFFCURVE",
"231 262 CURVE SMOOTH",
"231 367 LINE",
"200 335 LINE",
"594 335 LINE",
"594 639 LINE",
"481 639 LINE",
"481 433 LINE",
"173 433 LINE",
"238 416 LINE",
"192 450 OFFCURVE",
"146 464 OFFCURVE",
"38 466 CURVE",
"20 373 LINE",
"47 359 OFFCURVE",
"83 347 OFFCURVE",
"124 343 CURVE",
"124 273 LINE SMOOTH",
"124 105 OFFCURVE",
"262 -10 OFFCURVE",
"442 -10 CURVE SMOOTH"
);
},
{
closed = 1;
nodes = (
"680 590 LINE",
"680 688 LINE",
"0 688 LINE",
"0 590 LINE"
);
}
);
width = 679;
}
);
rightMetricsKey = "STEM-GURM";
unicode = 0A26;
},
{
glyphname = "dha-gurmukhi";
layers = (
{
anchors = (
{
name = bindu;
position = "{516, 680}";
},
{
name = bottom;
position = "{532, 0}";
},
{
name = candra;
position = "{516, 690}";
},
{
name = caret_1;
position = "{314, 30}";
},
{
name = nukta;
position = "{109, 0}";
},
{
name = top;
position = "{526, 670}";
}
);
components = (
{
name = "pa-gurmukhi";
}
);
layerId = "0684C2B6-4C69-4B0A-A52B-80982EBE3DDB";
paths = (
{
closed = 1;
nodes = (
"596 590 LINE",
"596 688 LINE",
"6 688 LINE",
"6 590 LINE"
);
}
);
width = 673;
}
);
leftMetricsKey = "pa-gurmukhi";
rightMetricsKey = "pa-gurmukhi";
unicode = 0A27;
},
{
glyphname = "na-gurmukhi";
layers = (
{
anchors = (
{
name = bindu;
position = "{497, 680}";
},
{
name = bottom;
position = "{414, 9}";
},
{
name = candra;
position = "{328, 690}";
},
{
name = caret_1;
position = "{328, 30}";
},
{
name = nukta;
position = "{52, -26}";
},
{
name = top;
position = "{497, 670}";
}
);
layerId = "0684C2B6-4C69-4B0A-A52B-80982EBE3DDB";
paths = (
{
closed = 1;
nodes = (
"273 93 LINE",
"199 106 OFFCURVE",
"149 156 OFFCURVE",
"149 225 CURVE SMOOTH",
"149 311 OFFCURVE",
"224 361 OFFCURVE",
"328 361 CURVE SMOOTH",
"432 361 OFFCURVE",
"507 311 OFFCURVE",
"507 225 CURVE SMOOTH",
"507 158 OFFCURVE",
"459 107 OFFCURVE",
"385 93 CURVE",
"396 -6 LINE",
"525 12 OFFCURVE",
"621 99 OFFCURVE",
"621 225 CURVE SMOOTH",
"621 375 OFFCURVE",
"487 460 OFFCURVE",
"327 460 CURVE SMOOTH",
"167 460 OFFCURVE",
"35 375 OFFCURVE",
"35 226 CURVE SMOOTH",
"35 97 OFFCURVE",
"136 15 OFFCURVE",
"262 -6 CURVE"
);
},
{
closed = 1;
nodes = (
"384 396 LINE",
"384 652 LINE",
"272 652 LINE",
"272 396 LINE"
);
},
{
closed = 1;
nodes = (
"656 590 LINE",
"656 688 LINE",
"0 688 LINE",
"0 590 LINE"
);
}
);
width = 656;
}
);
leftMetricsKey = "ttha-gurmukhi";
rightMetricsKey = "ttha-gurmukhi";
unicode = 0A28;
},
{
glyphname = "pa-gurmukhi";
layers = (
{
anchors = (
{
name = bindu;
position = "{516, 680}";
},
{
name = bottom;
position = "{532, 0}";
},
{
name = candra;
position = "{516, 690}";
},
{
name = caret_1;
position = "{314, 30}";
},
{
name = nukta;
position = "{109, 0}";
},
{
name = top;
position = "{516, 670}";
}
);
layerId = "0684C2B6-4C69-4B0A-A52B-80982EBE3DDB";
paths = (
{
closed = 1;
nodes = (
"389 111 OFFCURVE",
"458 130 OFFCURVE",
"507 162 CURVE",
"486 297 LINE",
"442 231 OFFCURVE",
"362 209 OFFCURVE",
"302 209 CURVE SMOOTH",
"190 209 OFFCURVE",
"157 268 OFFCURVE",
"147 316 CURVE",
"120 259 LINE",
"186 292 OFFCURVE",
"253 359 OFFCURVE",
"253 464 CURVE SMOOTH",
"253 569 OFFCURVE",
"175 688 OFFCURVE",
"26 688 CURVE SMOOTH",
"0 688 LINE",
"0 590 LINE",
"32 590 LINE SMOOTH",
"108 590 OFFCURVE",
"142 537 OFFCURVE",
"142 475 CURVE SMOOTH",
"142 411 OFFCURVE",
"108 360 OFFCURVE",
"46 321 CURVE",
"69 184 OFFCURVE",
"179 111 OFFCURVE",
"303 111 CURVE SMOOTH"
);
},
{
closed = 1;
nodes = (
"588 0 LINE",
"588 638 LINE",
"559 590 LINE",
"674 590 LINE",
"674 688 LINE",
"475 688 LINE",
"475 0 LINE"
);
}
);
width = 673;
}
);
leftMetricsKey = "ma-gurmukhi";
rightMetricsKey = "STEM-GURM";
unicode = 0A2A;
},
{
glyphname = "pha-gurmukhi";
layers = (
{
anchors = (
{
name = bindu;
position = "{475, 680}";
},
{
name = bottom;
position = "{356, 1}";
},
{
name = candra;
position = "{475, 690}";
},
{
name = caret_1;
position = "{337, 30}";
},
{
name = nukta;
position = "{67, -26}";
},
{
name = top;
position = "{465, 670}";
}
);
layerId = "0684C2B6-4C69-4B0A-A52B-80982EBE3DDB";
paths = (
{
closed = 1;
nodes = (
"192 113 LINE",
"232 166 OFFCURVE",
"310 200 OFFCURVE",
"384 200 CURVE SMOOTH",
"443 200 OFFCURVE",
"480 180 OFFCURVE",
"480 146 CURVE SMOOTH",
"480 106 OFFCURVE",
"429 76 OFFCURVE",
"336 76 CURVE SMOOTH",
"224 76 OFFCURVE",
"132 137 OFFCURVE",
"132 232 CURVE SMOOTH",
"132 302 OFFCURVE",
"182 372 OFFCURVE",
"312 372 CURVE SMOOTH",
"519 372 LINE",
"519 640 LINE",
"406 640 LINE",
"406 470 LINE",
"299 470 LINE SMOOTH",
"116 470 OFFCURVE",
"36 361 OFFCURVE",
"36 246 CURVE SMOOTH",
"36 114 OFFCURVE",
"147 -9 OFFCURVE",
"349 -9 CURVE SMOOTH",
"503 -9 OFFCURVE",
"582 63 OFFCURVE",
"582 144 CURVE SMOOTH",
"582 229 OFFCURVE",
"499 276 OFFCURVE",
"391 276 CURVE SMOOTH",
"278 276 OFFCURVE",
"177 231 OFFCURVE",
"133 150 CURVE"
);
},
{
closed = 1;
nodes = (
"619 590 LINE",
"619 688 LINE",
"0 688 LINE",
"0 590 LINE"
);
}
);
width = 619;
}
);
leftMetricsKey = "ra-gurmukhi";
rightMetricsKey = "ttha-gurmukhi";
unicode = 0A2B;
},
{
glyphname = "ba-gurmukhi";
layers = (
{
anchors = (
{
name = bindu;
position = "{517, 680}";
},
{
name = bottom;
position = "{533, 0}";
},
{
name = candra;
position = "{517, 690}";
},
{
name = caret_1;
position = "{332, 30}";
},
{
name = nukta;
position = "{105, -32}";
},
{
name = top;
position = "{527, 670}";
}
);
layerId = "0684C2B6-4C69-4B0A-A52B-80982EBE3DDB";
paths = (
{
closed = 1;
nodes = (
"384 32 OFFCURVE",
"455 51 OFFCURVE",
"508 89 CURVE",
"496 219 LINE",
"445 151 OFFCURVE",
"369 130 OFFCURVE",
"308 130 CURVE SMOOTH",
"217 130 OFFCURVE",
"153 181 OFFCURVE",
"143 230 CURVE",
"142 197 LINE",
"172 253 OFFCURVE",
"255 331 OFFCURVE",
"452 334 CURVE SMOOTH",
"527 334 LINE",
"527 420 LINE",
"430 420 LINE SMOOTH",
"285 421 OFFCURVE",
"188 505 OFFCURVE",
"188 617 CURVE",
"75 622 LINE",
"75 511 OFFCURVE",
"160 412 OFFCURVE",
"286 373 CURVE",
"295 400 LINE",
"147 375 OFFCURVE",
"71 294 OFFCURVE",
"42 239 CURVE",
"81 103 OFFCURVE",
"206 32 OFFCURVE",
"324 32 CURVE SMOOTH"
);
},
{
closed = 1;
nodes = (
"560 590 LINE",
"560 688 LINE",
"0 688 LINE",
"0 590 LINE"
);
},
{
closed = 1;
nodes = (
"589 0 LINE",
"589 638 LINE",
"560 590 LINE",
"675 590 LINE",
"675 688 LINE",
"476 688 LINE",
"476 0 LINE"
);
}
);
width = 674;
}
);
leftMetricsKey = "ra-gurmukhi";
rightMetricsKey = "STEM-GURM";
unicode = 0A2C;
},
{
glyphname = "bha-gurmukhi";
layers = (
{
anchors = (
{
name = bindu;
position = "{493, 680}";
},
{
name = bottom;
position = "{273, 2}";
},
{
name = candra;
position = "{493, 690}";
},
{
name = caret_1;
position = "{269, 30}";
},
{
name = nukta;
position = "{58, -76}";
},
{
name = top;
position = "{483, 670}";
}
);
layerId = "0684C2B6-4C69-4B0A-A52B-80982EBE3DDB";
paths = (
{
closed = 1;
nodes = (
"444 -10 OFFCURVE",
"546 90 OFFCURVE",
"546 205 CURVE SMOOTH",
"546 271 OFFCURVE",
"511 334 OFFCURVE",
"451 385 CURVE",
"456 346 LINE",
"510 409 OFFCURVE",
"539 496 OFFCURVE",
"539 588 CURVE SMOOTH",
"539 618 LINE",
"429 618 LINE",
"429 594 LINE SMOOTH",
"429 514 OFFCURVE",
"413 459 OFFCURVE",
"379 416 CURVE",
"406 426 LINE",
"348 461 OFFCURVE",
"277 481 OFFCURVE",
"212 481 CURVE SMOOTH",
"126 481 OFFCURVE",
"50 442 OFFCURVE",
"50 360 CURVE SMOOTH",
"50 269 OFFCURVE",
"141 229 OFFCURVE",
"233 229 CURVE SMOOTH",
"313 229 OFFCURVE",
"375 257 OFFCURVE",
"425 307 CURVE",
"402 313 LINE",
"430 288 OFFCURVE",
"449 256 OFFCURVE",
"449 220 CURVE SMOOTH",
"449 146 OFFCURVE",
"378 89 OFFCURVE",
"254 89 CURVE SMOOTH",
"188 89 OFFCURVE",
"112 105 OFFCURVE",
"61 126 CURVE",
"37 33 LINE",
"97 9 OFFCURVE",
"184 -10 OFFCURVE",
"262 -10 CURVE SMOOTH"
);
},
{
closed = 1;
nodes = (
"183 317 OFFCURVE",
"146 331 OFFCURVE",
"146 360 CURVE SMOOTH",
"146 387 OFFCURVE",
"180 402 OFFCURVE",
"230 402 CURVE SMOOTH",
"283 402 OFFCURVE",
"338 386 OFFCURVE",
"376 351 CURVE",
"370 384 LINE",
"344 340 OFFCURVE",
"292 317 OFFCURVE",
"233 317 CURVE SMOOTH"
);
},
{
closed = 1;
nodes = (
"591 590 LINE",
"591 688 LINE",
"0 688 LINE",
"0 590 LINE"
);
}
);
width = 591;
}
);
leftMetricsKey = "ta-gurmukhi";
rightMetricsKey = "ta-gurmukhi";
unicode = 0A2D;
},
{
glyphname = "ma-gurmukhi";
layers = (
{
anchors = (
{
name = bindu;
position = "{543, 680}";
},
{
name = bottom;
position = "{558, 0}";
},
{
name = candra;
position = "{543, 690}";
},
{
name = caret_1;
position = "{351, 30}";
},
{
name = nukta;
position = "{244, 13}";
},
{
name = top;
position = "{543, 670}";
}
);
layerId = "0684C2B6-4C69-4B0A-A52B-80982EBE3DDB";
paths = (
{
closed = 1;
nodes = (
"203 129 OFFCURVE",
"253 279 OFFCURVE",
"253 423 CURVE SMOOTH",
"253 590 OFFCURVE",
"165 688 OFFCURVE",
"22 688 CURVE SMOOTH",
"0 688 LINE",
"0 590 LINE",
"33 590 LINE SMOOTH",
"118 590 OFFCURVE",
"147 515 OFFCURVE",
"147 435 CURVE SMOOTH",
"147 383 OFFCURVE",
"142 338 OFFCURVE",
"133 302 CURVE",
"157 343 LINE",
"86 291 OFFCURVE",
"66 165 OFFCURVE",
"61 71 CURVE",
"155 52 LINE"
);
},
{
closed = 1;
nodes = (
"541 241 LINE",
"541 338 LINE",
"189 338 LINE",
"183 241 LINE"
);
},
{
closed = 1;
nodes = (
"614 0 LINE",
"614 638 LINE",
"585 590 LINE",
"700 590 LINE",
"700 688 LINE",
"501 688 LINE",
"501 0 LINE"
);
}
);
width = 699;
}
);
rightMetricsKey = "STEM-GURM";
unicode = 0A2E;
},
{
glyphname = "ya-gurmukhi";
layers = (
{
anchors = (
{
name = bindu;
position = "{636, 680}";
},
{
name = bottom;
position = "{652, 0}";
},
{
name = candra;
position = "{636, 690}";
},
{
name = caret_1;
position = "{382, 30}";
},
{
name = nukta;
position = "{112, -6}";
},
{
name = top;
position = "{646, 670}";
}
);
layerId = "0684C2B6-4C69-4B0A-A52B-80982EBE3DDB";
paths = (
{
closed = 1;
nodes = (
"380 111 OFFCURVE",
"482 162 OFFCURVE",
"482 293 CURVE",
"482 348 LINE",
"450 320 LINE",
"611 320 LINE",
"611 418 LINE",
"378 418 LINE",
"378 311 LINE",
"378 225 OFFCURVE",
"309 209 OFFCURVE",
"269 209 CURVE SMOOTH",
"193 209 OFFCURVE",
"161 249 OFFCURVE",
"150 297 CURVE",
"140 269 LINE",
"202 306 OFFCURVE",
"252 371 OFFCURVE",
"252 464 CURVE SMOOTH",
"252 569 OFFCURVE",
"175 688 OFFCURVE",
"26 688 CURVE SMOOTH",
"0 688 LINE",
"0 590 LINE",
"31 590 LINE SMOOTH",
"108 590 OFFCURVE",
"141 537 OFFCURVE",
"141 475 CURVE SMOOTH",
"141 411 OFFCURVE",
"107 360 OFFCURVE",
"46 321 CURVE",
"66 184 OFFCURVE",
"165 111 OFFCURVE",
"275 111 CURVE SMOOTH"
);
},
{
closed = 1;
nodes = (
"646 590 LINE",
"646 688 LINE",
"7 688 LINE",
"7 590 LINE"
);
},
{
closed = 1;
nodes = (
"708 0 LINE",
"708 638 LINE",
"679 590 LINE",
"794 590 LINE",
"794 688 LINE",
"595 688 LINE",
"595 0 LINE"
);
}
);
width = 793;
}
);
leftMetricsKey = "pa-gurmukhi";
rightMetricsKey = "STEM-GURM";
unicode = 0A2F;
},
{
glyphname = "ra-gurmukhi";
layers = (
{
anchors = (
{
name = bindu;
position = "{457, 680}";
},
{
name = bottom;
position = "{372, 1}";
},
{
name = candra;
position = "{457, 690}";
},
{
name = caret_1;
position = "{340, 30}";
},
{
name = nukta;
position = "{72, -19}";
},
{
name = top;
position = "{471, 670}";
}
);
layerId = "0684C2B6-4C69-4B0A-A52B-80982EBE3DDB";
paths = (
{
closed = 1;
nodes = (
"460 -10 OFFCURVE",
"529 35 OFFCURVE",
"529 143 CURVE SMOOTH",
"529 641 LINE",
"416 641 LINE",
"416 414 LINE",
"449 447 LINE",
"212 447 LINE SMOOTH",
"103 447 OFFCURVE",
"35 382 OFFCURVE",
"35 273 CURVE SMOOTH",
"35 110 OFFCURVE",
"225 -10 OFFCURVE",
"372 -10 CURVE SMOOTH"
);
},
{
closed = 1;
nodes = (
"254 88 OFFCURVE",
"149 168 OFFCURVE",
"149 259 CURVE SMOOTH",
"149 310 OFFCURVE",
"177 350 OFFCURVE",
"236 350 CURVE SMOOTH",
"450 350 LINE",
"417 368 LINE",
"417 159 LINE SMOOTH",
"417 117 OFFCURVE",
"409 88 OFFCURVE",
"357 88 CURVE SMOOTH"
);
},
{
closed = 1;
nodes = (
"615 590 LINE",
"615 688 LINE",
"0 688 LINE",
"0 590 LINE"
);
}
);
width = 614;
}
);
rightMetricsKey = "STEM-GURM";
unicode = 0A30;
},
{
glyphname = "la-gurmukhi";
layers = (
{
anchors = (
{
name = bindu;
position = "{588, 680}";
},
{
name = bottom;
position = "{518, 22}";
},
{
name = candra;
position = "{365, 690}";
},
{
name = caret_1;
position = "{364, 30}";
},
{
name = nukta;
position = "{366, -23}";
},
{
name = top;
position = "{578, 670}";
}
);
layerId = "0684C2B6-4C69-4B0A-A52B-80982EBE3DDB";
paths = (
{
closed = 1;
nodes = (
"280 93 LINE",
"208 106 OFFCURVE",
"158 156 OFFCURVE",
"158 223 CURVE SMOOTH",
"158 276 OFFCURVE",
"190 317 OFFCURVE",
"240 339 CURVE",
"283 304 OFFCURVE",
"330 278 OFFCURVE",
"375 258 CURVE",
"414 279 OFFCURVE",
"457 304 OFFCURVE",
"494 336 CURVE",
"542 314 OFFCURVE",
"571 274 OFFCURVE",
"571 223 CURVE SMOOTH",
"571 158 OFFCURVE",
"523 107 OFFCURVE",
"451 93 CURVE",
"462 -6 LINE",
"589 11 OFFCURVE",
"685 96 OFFCURVE",
"685 216 CURVE SMOOTH",
"685 298 OFFCURVE",
"641 366 OFFCURVE",
"569 406 CURVE",
"608 457 OFFCURVE",
"634 522 OFFCURVE",
"635 604 CURVE",
"521 604 LINE",
"522 481 OFFCURVE",
"430 403 OFFCURVE",
"357 368 CURVE",
"283 404 OFFCURVE",
"210 470 OFFCURVE",
"211 605 CURVE",
"97 605 LINE",
"97 526 OFFCURVE",
"122 463 OFFCURVE",
"159 413 CURVE",
"90 374 OFFCURVE",
"44 310 OFFCURVE",
"44 224 CURVE SMOOTH",
"44 98 OFFCURVE",
"142 15 OFFCURVE",
"270 -6 CURVE"
);
},
{
closed = 1;
nodes = (
"729 590 LINE",
"729 688 LINE",
"0 688 LINE",
"0 590 LINE"
);
}
);
width = 729;
}
);
rightMetricsKey = "ta-gurmukhi";
unicode = 0A32;
},
{
glyphname = "va-gurmukhi";
layers = (
{
anchors = (
{
name = bindu;
position = "{479, 680}";
},
{
name = bottom;
position = "{408, 0}";
},
{
name = candra;
position = "{479, 690}";
},
{
name = caret_1;
position = "{378, 30}";
},
{
name = nukta;
position = "{102, -28}";
},
{
name = top;
position = "{489, 670}";
}
);
layerId = "0684C2B6-4C69-4B0A-A52B-80982EBE3DDB";
paths = (
{
closed = 1;
nodes = (
"512 204 LINE",
"514 286 LINE",
"231 286 LINE",
"177 286 OFFCURVE",
"149 312 OFFCURVE",
"149 343 CURVE SMOOTH",
"149 366 OFFCURVE",
"167 392 OFFCURVE",
"222 392 CURVE",
"550 392 LINE",
"550 634 LINE",
"437 634 LINE",
"437 453 LINE",
"469 481 LINE",
"194 481 LINE",
"88 481 OFFCURVE",
"40 420 OFFCURVE",
"40 357 CURVE SMOOTH",
"40 279 OFFCURVE",
"109 204 OFFCURVE",
"238 204 CURVE"
);
},
{
closed = 1;
nodes = (
"459 -10 OFFCURVE",
"511 -2 OFFCURVE",
"555 10 CURVE",
"532 103 LINE",
"490 94 OFFCURVE",
"444 88 OFFCURVE",
"395 88 CURVE SMOOTH",
"304 88 OFFCURVE",
"237 110 OFFCURVE",
"237 180 CURVE SMOOTH",
"237 196 OFFCURVE",
"237 214 OFFCURVE",
"239 236 CURVE",
"135 236 LINE",
"133 218 OFFCURVE",
"133 202 OFFCURVE",
"133 190 CURVE SMOOTH",
"133 62 OFFCURVE",
"244 -10 OFFCURVE",
"407 -10 CURVE SMOOTH"
);
},
{
closed = 1;
nodes = (
"636 590 LINE",
"636 688 LINE",
"0 688 LINE",
"0 590 LINE"
);
}
);
width = 635;
}
);
leftMetricsKey = "ra-gurmukhi";
unicode = 0A35;
},
{
glyphname = "sa-gurmukhi";
layers = (
{
anchors = (
{
name = bindu;
position = "{544, 680}";
},
{
name = bottom;
position = "{558, 0}";
},
{
name = candra;
position = "{544, 690}";
},
{
name = caret_1;
position = "{351, 30}";
},
{
name = nukta;
position = "{351, 31}";
},
{
name = top;
position = "{554, 670}";
}
);
components = (
{
name = "ma-gurmukhi";
}
);
layerId = "0684C2B6-4C69-4B0A-A52B-80982EBE3DDB";
paths = (
{
closed = 1;
nodes = (
"611 590 LINE",
"611 688 LINE",
"5 688 LINE",
"5 590 LINE"
);
}
);
width = 699;
}
);
leftMetricsKey = "ma-gurmukhi";
rightMetricsKey = "ma-gurmukhi";
unicode = 0A38;
},
{
glyphname = "ha-gurmukhi";
layers = (
{
anchors = (
{
name = bindu;
position = "{457, 680}";
},
{
name = bottom;
position = "{372, 1}";
},
{
name = candra;
position = "{457, 690}";
},
{
name = caret_1;
position = "{336, 30}";
},
{
name = nukta;
position = "{77, -19}";
},
{
name = top;
position = "{467, 670}";
}
);
layerId = "0684C2B6-4C69-4B0A-A52B-80982EBE3DDB";
paths = (
{
closed = 1;
nodes = (
"461 -10 OFFCURVE",
"529 35 OFFCURVE",
"529 143 CURVE",
"529 641 LINE",
"416 641 LINE",
"417 159 LINE",
"417 115 OFFCURVE",
"409 88 OFFCURVE",
"356 88 CURVE SMOOTH",
"263 88 OFFCURVE",
"149 160 OFFCURVE",
"149 261 CURVE SMOOTH",
"149 330 OFFCURVE",
"190 350 OFFCURVE",
"284 350 CURVE",
"273 447 LINE",
"119 447 OFFCURVE",
"35 404 OFFCURVE",
"35 277 CURVE SMOOTH",
"35 107 OFFCURVE",
"227 -10 OFFCURVE",
"370 -10 CURVE SMOOTH"
);
},
{
closed = 1;
nodes = (
"615 590 LINE",
"615 688 LINE",
"0 688 LINE",
"0 590 LINE"
);
}
);
width = 614;
}
);
rightMetricsKey = "STEM-GURM";
unicode = 0A39;
},
{
glyphname = "rra-gurmukhi";
layers = (
{
anchors = (
{
name = bindu;
position = "{497, 680}";
},
{
name = bottom;
position = "{315, 30}";
},
{
name = candra;
position = "{497, 690}";
},
{
name = caret_1;
position = "{315, 49}";
},
{
name = top;
position = "{487, 670}";
}
);
layerId = "0684C2B6-4C69-4B0A-A52B-80982EBE3DDB";
paths = (
{
closed = 1;
nodes = (
"137 0 LINE",
"137 40 LINE SMOOTH",
"137 64 OFFCURVE",
"148 76 OFFCURVE",
"170 76 CURVE SMOOTH",
"210 76 OFFCURVE",
"225 33 OFFCURVE",
"323 33 CURVE SMOOTH",
"367 33 OFFCURVE",
"407 41 OFFCURVE",
"434 57 CURVE",
"412 77 LINE",
"461 0 LINE",
"557 0 LINE",
"557 13 LINE",
"483 121 LINE",
"483 79 LINE",
"530 113 OFFCURVE",
"557 162 OFFCURVE",
"557 215 CURVE SMOOTH",
"557 293 OFFCURVE",
"507 375 OFFCURVE",
"386 397 CURVE",
"390 362 LINE",
"484 396 OFFCURVE",
"543 474 OFFCURVE",
"543 598 CURVE",
"543 612 LINE",
"430 612 LINE",
"430 599 LINE",
"430 507 OFFCURVE",
"399 438 OFFCURVE",
"288 428 CURVE",
"347 427 LINE",
"311 444 OFFCURVE",
"258 451 OFFCURVE",
"205 451 CURVE SMOOTH",
"171 451 OFFCURVE",
"131 446 OFFCURVE",
"99 437 CURVE",
"105 341 LINE",
"140 332 OFFCURVE",
"177 327 OFFCURVE",
"218 327 CURVE SMOOTH",
"263 327 OFFCURVE",
"315 332 OFFCURVE",
"358 344 CURVE",
"286 344 LINE",
"406 343 OFFCURVE",
"448 281 OFFCURVE",
"448 228 CURVE SMOOTH",
"448 171 OFFCURVE",
"397 126 OFFCURVE",
"308 126 CURVE SMOOTH",
"223 126 OFFCURVE",
"213 172 OFFCURVE",
"147 172 CURVE SMOOTH",
"82 172 OFFCURVE",
"37 128 OFFCURVE",
"37 47 CURVE SMOOTH",
"37 0 LINE"
);
},
{
closed = 1;
nodes = (
"610 590 LINE",
"610 688 LINE",
"0 688 LINE",
"0 590 LINE"
);
}
);
width = 610;
}
);
leftMetricsKey = "ta-gurmukhi";
rightMetricsKey = "ta-gurmukhi";
unicode = 0A5C;
},
{
glyphname = "iri-gurmukhi";
layers = (
{
anchors = (
{
name = bindu;
position = "{472, 680}";
},
{
name = bottom;
position = "{380, 2}";
},
{
name = candra;
position = "{472, 690}";
},
{
name = caret_1;
position = "{377, 30}";
},
{
name = nukta;
position = "{102, -35}";
},
{
name = top;
position = "{482, 670}";
}
);
layerId = "0684C2B6-4C69-4B0A-A52B-80982EBE3DDB";
paths = (
{
closed = 1;
nodes = (
"448 -10 OFFCURVE",
"514 5 OFFCURVE",
"564 29 CURVE",
"540 121 LINE",
"490 101 OFFCURVE",
"430 89 OFFCURVE",
"371 89 CURVE SMOOTH",
"236 89 OFFCURVE",
"155 156 OFFCURVE",
"137 208 CURVE",
"138 178 LINE",
"166 226 OFFCURVE",
"250 307 OFFCURVE",
"448 310 CURVE SMOOTH",
"544 310 LINE",
"544 640 LINE",
"431 640 LINE",
"431 372 LINE",
"461 405 LINE",
"413 405 LINE",
"266 405 OFFCURVE",
"168 494 OFFCURVE",
"168 611 CURVE",
"55 615 LINE",
"55 497 OFFCURVE",
"144 394 OFFCURVE",
"275 354 CURVE",
"283 380 LINE",
"138 356 OFFCURVE",
"63 272 OFFCURVE",
"35 216 CURVE",
"66 91 OFFCURVE",
"204 -10 OFFCURVE",
"380 -10 CURVE SMOOTH"
);
},
{
closed = 1;
nodes = (
"630 590 LINE",
"630 688 LINE",
"-12 688 LINE",
"-12 590 LINE"
);
}
);
width = 629;
}
);
rightMetricsKey = "STEM-GURM";
unicode = 0A72;
},
{
glyphname = "ura-gurmukhi";
layers = (
{
anchors = (
{
name = bindu;
position = "{662, 680}";
},
{
name = bottom;
position = "{384, 2}";
},
{
name = candra;
position = "{778, 650}";
},
{
name = caret_1;
position = "{381, 30}";
},
{
name = nukta;
position = "{92, -13}";
}
);
layerId = "0684C2B6-4C69-4B0A-A52B-80982EBE3DDB";
paths = (
{
closed = 1;
nodes = (
"516 -10 OFFCURVE",
"595 74 OFFCURVE",
"595 173 CURVE SMOOTH",
"595 267 OFFCURVE",
"527 362 OFFCURVE",
"377 384 CURVE",
"371 329 LINE",
"526 369 OFFCURVE",
"604 475 OFFCURVE",
"604 617 CURVE SMOOTH",
"604 806 OFFCURVE",
"494 937 OFFCURVE",
"318 937 CURVE SMOOTH",
"154 937 OFFCURVE",
"49 825 OFFCURVE",
"49 540 CURVE SMOOTH",
"49 261 OFFCURVE",
"151 -10 OFFCURVE",
"384 -10 CURVE SMOOTH"
);
},
{
closed = 1;
nodes = (
"209 89 OFFCURVE",
"157 335 OFFCURVE",
"157 534 CURVE SMOOTH",
"157 733 OFFCURVE",
"204 839 OFFCURVE",
"330 839 CURVE SMOOTH",
"441 839 OFFCURVE",
"495 761 OFFCURVE",
"495 634 CURVE SMOOTH",
"495 509 OFFCURVE",
"439 412 OFFCURVE",
"271 412 CURVE SMOOTH",
"117 412 LINE",
"117 325 LINE",
"303 325 LINE SMOOTH",
"435 325 OFFCURVE",
"484 256 OFFCURVE",
"484 192 CURVE SMOOTH",
"484 130 OFFCURVE",
"437 89 OFFCURVE",
"369 89 CURVE SMOOTH"
);
},
{
closed = 1;
nodes = (
"666 590 LINE",
"666 688 LINE",
"-12 688 LINE",
"-12 590 LINE"
);
}
);
width = 654;
}
);
unicode = 0A73;
},
{
glyphname = "ekonkar-gurmukhi";
layers = (
{
layerId = "0684C2B6-4C69-4B0A-A52B-80982EBE3DDB";
paths = (
{
closed = 1;
nodes = (
"1119 -10 OFFCURVE",
"1199 72 OFFCURVE",
"1199 169 CURVE SMOOTH",
"1199 252 OFFCURVE",
"1140 342 OFFCURVE",
"1009 368 CURVE",
"1002 335 LINE",
"1140 374 OFFCURVE",
"1205 472 OFFCURVE",
"1208 603 CURVE",
"1097 602 LINE",
"1090 491 OFFCURVE",
"1036 405 OFFCURVE",
"875 405 CURVE SMOOTH",
"759 405 LINE",
"772 318 LINE",
"907 318 LINE SMOOTH",
"1039 318 OFFCURVE",
"1088 249 OFFCURVE",
"1088 188 CURVE SMOOTH",
"1088 129 OFFCURVE",
"1042 89 OFFCURVE",
"976 89 CURVE SMOOTH",
"796 89 OFFCURVE",
"761 381 OFFCURVE",
"761 552 CURVE SMOOTH",
"761 772 OFFCURVE",
"819 907 OFFCURVE",
"1073 907 CURVE SMOOTH",
"1155 907 OFFCURVE",
"1199 893 OFFCURVE",
"1267 852 CURVE",
"1174 917 LINE",
"1201 821 OFFCURVE",
"1277 765 OFFCURVE",
"1373 779 CURVE",
"1411 852 LINE",
"1364 901 OFFCURVE",
"1285 947 OFFCURVE",
"1242 963 CURVE",
"1259 934 LINE",
"1255 951 OFFCURVE",
"1253 964 OFFCURVE",
"1253 983 CURVE SMOOTH",
"1253 1096 OFFCURVE",
"1326 1157 OFFCURVE",
"1418 1157 CURVE SMOOTH",
"1507 1157 OFFCURVE",
"1587 1099 OFFCURVE",
"1616 1011 CURVE",
"1692 1052 LINE",
"1650 1176 OFFCURVE",
"1534 1251 OFFCURVE",
"1413 1251 CURVE SMOOTH",
"1271 1251 OFFCURVE",
"1162 1148 OFFCURVE",
"1162 993 CURVE SMOOTH",
"1162 972 OFFCURVE",
"1164 962 OFFCURVE",
"1166 952 CURVE",
"1213 972 LINE",
"1141 999 OFFCURVE",
"1080 1002 OFFCURVE",
"1040 1002 CURVE SMOOTH",
"799 1002 OFFCURVE",
"653 892 OFFCURVE",
"653 550 CURVE SMOOTH",
"653 255 OFFCURVE",
"761 -10 OFFCURVE",
"991 -10 CURVE SMOOTH"
);
},
{
closed = 1;
nodes = (
"618 77 LINE",
"582 82 OFFCURVE",
"551 109 OFFCURVE",
"551 150 CURVE SMOOTH",
"551 410 LINE SMOOTH",
"551 588 OFFCURVE",
"436 699 OFFCURVE",
"281 699 CURVE SMOOTH",
"149 699 OFFCURVE",
"50 619 OFFCURVE",
"50 488 CURVE SMOOTH",
"50 350 OFFCURVE",
"160 259 OFFCURVE",
"294 259 CURVE SMOOTH",
"358 259 OFFCURVE",
"419 280 OFFCURVE",
"465 328 CURVE",
"441 341 LINE",
"441 158 LINE SMOOTH",
"441 56 OFFCURVE",
"513 -2 OFFCURVE",
"589 -15 CURVE"
);
},
{
closed = 1;
nodes = (
"210 358 OFFCURVE",
"156 407 OFFCURVE",
"156 477 CURVE SMOOTH",
"156 548 OFFCURVE",
"211 599 OFFCURVE",
"293 599 CURVE SMOOTH",
"388 599 OFFCURVE",
"453 530 OFFCURVE",
"447 413 CURVE",
"455 483 LINE",
"439 405 OFFCURVE",
"369 358 OFFCURVE",
"291 358 CURVE SMOOTH"
);
},
{
closed = 1;
nodes = (
"1267 590 LINE",
"1267 688 LINE",
"760 688 LINE",
"750 590 LINE"
);
}
);
width = 1327;
}
);
leftMetricsKey = "one-gurmukhi";
unicode = 0A74;
},
{
glyphname = "ya-gurmukhi.post";
layers = (
{
anchors = (
{
name = bindu;
position = "{359, 680}";
},
{
name = bottom;
position = "{375, 0}";
},
{
name = candra;
position = "{359, 690}";
},
{
name = caret_1;
position = "{162, 30}";
},
{
name = nukta;
position = "{161, -30}";
},
{
name = top;
position = "{359, 670}";
}
);
layerId = "0684C2B6-4C69-4B0A-A52B-80982EBE3DDB";
paths = (
{
closed = 1;
nodes = (
"-3 96 LINE SMOOTH",
"103 96 OFFCURVE",
"205 146 OFFCURVE",
"205 280 CURVE SMOOTH",
"205 348 LINE",
"174 320 LINE",
"333 320 LINE",
"333 418 LINE",
"100 418 LINE",
"100 297 LINE SMOOTH",
"100 210 OFFCURVE",
"32 192 OFFCURVE",
"-8 192 CURVE SMOOTH",
"-102 192 LINE",
"-102 96 LINE"
);
},
{
closed = 1;
nodes = (
"366 590 LINE",
"366 688 LINE",
"0 688 LINE",
"0 590 LINE"
);
},
{
closed = 1;
nodes = (
"431 0 LINE",
"431 638 LINE",
"402 590 LINE",
"517 590 LINE",
"517 688 LINE",
"318 688 LINE",
"318 0 LINE"
);
}
);
width = 516;
}
);
rightMetricsKey = "STEM-GURM";
},
{
glyphname = "ekonkar-gurmukhi.ss01";
layers = (
{
layerId = "0684C2B6-4C69-4B0A-A52B-80982EBE3DDB";
paths = (
{
closed = 1;
nodes = (
"1097 602 LINE",
"1090 491 OFFCURVE",
"1036 405 OFFCURVE",
"875 405 CURVE SMOOTH",
"759 405 LINE",
"772 318 LINE",
"907 318 LINE SMOOTH",
"1039 318 OFFCURVE",
"1088 249 OFFCURVE",
"1088 188 CURVE SMOOTH",
"1088 129 OFFCURVE",
"1041 89 OFFCURVE",
"977 89 CURVE SMOOTH",
"791 89 OFFCURVE",
"761 398 OFFCURVE",
"761 560 CURVE SMOOTH",
"761 751 OFFCURVE",
"802 906 OFFCURVE",
"1017 906 CURVE SMOOTH",
"1038 906 OFFCURVE",
"1057 902 OFFCURVE",
"1071 895 CURVE",
"1108 819 OFFCURVE",
"1181 798 OFFCURVE",
"1261 800 CURVE",
"1299 872 LINE",
"1260 914 OFFCURVE",
"1205 950 OFFCURVE",
"1144 976 CURVE",
"1142 987 OFFCURVE",
"1141 998 OFFCURVE",
"1141 1013 CURVE SMOOTH",
"1141 1250 OFFCURVE",
"1302 1379 OFFCURVE",
"1509 1379 CURVE SMOOTH",
"1638 1379 OFFCURVE",
"1749 1323 OFFCURVE",
"1807 1242 CURVE",
"1853 1307 LINE",
"1788 1407 OFFCURVE",
"1655 1475 OFFCURVE",
"1503 1475 CURVE SMOOTH",
"1256 1475 OFFCURVE",
"1050 1316 OFFCURVE",
"1050 1020 CURVE SMOOTH",
"1050 998 OFFCURVE",
"1050 979 OFFCURVE",
"1053 959 CURVE",
"1074 991 LINE",
"1054 1000 OFFCURVE",
"1031 1002 OFFCURVE",
"1013 1002 CURVE SMOOTH",
"789 1002 OFFCURVE",
"653 887 OFFCURVE",
"653 572 CURVE SMOOTH",
"653 249 OFFCURVE",
"761 -10 OFFCURVE",
"990 -10 CURVE SMOOTH",
"1119 -10 OFFCURVE",
"1199 72 OFFCURVE",
"1199 168 CURVE SMOOTH",
"1199 256 OFFCURVE",
"1140 341 OFFCURVE",
"1009 368 CURVE",
"1002 334 LINE",
"1140 373 OFFCURVE",
"1205 472 OFFCURVE",
"1208 603 CURVE"
);
},
{
closed = 1;
nodes = (
"618 77 LINE",
"582 82 OFFCURVE",
"551 109 OFFCURVE",
"551 150 CURVE SMOOTH",
"551 410 LINE SMOOTH",
"551 588 OFFCURVE",
"436 699 OFFCURVE",
"280 699 CURVE SMOOTH",
"149 699 OFFCURVE",
"50 619 OFFCURVE",
"50 488 CURVE SMOOTH",
"50 350 OFFCURVE",
"159 259 OFFCURVE",
"294 259 CURVE SMOOTH",
"357 259 OFFCURVE",
"419 280 OFFCURVE",
"465 328 CURVE",
"441 341 LINE",
"441 158 LINE SMOOTH",
"441 56 OFFCURVE",
"513 -2 OFFCURVE",
"589 -15 CURVE"
);
},
{
closed = 1;
nodes = (
"210 358 OFFCURVE",
"156 407 OFFCURVE",
"156 477 CURVE SMOOTH",
"156 548 OFFCURVE",
"211 599 OFFCURVE",
"293 599 CURVE SMOOTH",
"388 599 OFFCURVE",
"453 530 OFFCURVE",
"447 413 CURVE",
"455 483 LINE",
"439 405 OFFCURVE",
"369 358 OFFCURVE",
"291 358 CURVE SMOOTH"
);
},
{
closed = 1;
nodes = (
"1266 590 LINE",
"1266 688 LINE",
"759 688 LINE",
"749 590 LINE"
);
}
);
width = 1327;
}
);
leftMetricsKey = "one-gurmukhi";
},
{
glyphname = zero;
layers = (
{
layerId = "0684C2B6-4C69-4B0A-A52B-80982EBE3DDB";
paths = (
{
closed = 1;
nodes = (
"139 704 OFFCURVE",
"45 578 OFFCURVE",
"45 351 CURVE SMOOTH",
"45 123 OFFCURVE",
"139 -3 OFFCURVE",
"309 -3 CURVE SMOOTH",
"478 -3 OFFCURVE",
"572 123 OFFCURVE",
"572 351 CURVE SMOOTH",
"572 578 OFFCURVE",
"478 704 OFFCURVE",
"309 704 CURVE SMOOTH"
);
},
{
closed = 1;
nodes = (
"406 612 OFFCURVE",
"455 529 OFFCURVE",
"455 351 CURVE SMOOTH",
"455 173 OFFCURVE",
"406 89 OFFCURVE",
"309 89 CURVE SMOOTH",
"211 89 OFFCURVE",
"162 173 OFFCURVE",
"162 351 CURVE SMOOTH",
"162 529 OFFCURVE",
"211 612 OFFCURVE",
"309 612 CURVE SMOOTH"
);
}
);
width = 617;
}
);
note = zero;
unicode = 0030;
},
{
glyphname = one;
layers = (
{
layerId = "0684C2B6-4C69-4B0A-A52B-80982EBE3DDB";
paths = (
{
closed = 1;
nodes = (
"375 0 LINE",
"375 701 LINE",
"106 701 LINE",
"106 595 LINE",
"257 595 LINE",
"257 0 LINE"
);
}
);
width = 617;
}
);
note = one;
unicode = 0031;
},
{
glyphname = two;
layers = (
{
layerId = "0684C2B6-4C69-4B0A-A52B-80982EBE3DDB";
paths = (
{
closed = 1;
nodes = (
"209 706 OFFCURVE",
"118 668 OFFCURVE",
"40 606 CURVE",
"88 515 LINE",
"148 569 OFFCURVE",
"222 602 OFFCURVE",
"285 602 CURVE SMOOTH",
"362 602 OFFCURVE",
"408 569 OFFCURVE",
"408 512 CURVE SMOOTH",
"408 472 OFFCURVE",
"372 416 OFFCURVE",
"319 363 CURVE SMOOTH",
"52 87 LINE",
"52 0 LINE",
"565 0 LINE",
"565 106 LINE",
"207 106 LINE",
"399 300 LINE SMOOTH",
"476 380 OFFCURVE",
"531 459 OFFCURVE",
"531 529 CURVE SMOOTH",
"531 637 OFFCURVE",
"438 706 OFFCURVE",
"301 706 CURVE SMOOTH"
);
}
);
width = 617;
}
);
note = two;
unicode = 0032;
},
{
glyphname = three;
layers = (
{
layerId = "0684C2B6-4C69-4B0A-A52B-80982EBE3DDB";
paths = (
{
closed = 1;
nodes = (
"290 409 LINE",
"515 626 LINE",
"515 700 LINE",
"55 700 LINE",
"56 595 LINE",
"368 595 LINE",
"163 398 LINE",
"163 330 LINE",
"265 330 LINE SMOOTH",
"372 330 OFFCURVE",
"435 291 OFFCURVE",
"435 215 CURVE SMOOTH",
"435 142 OFFCURVE",
"373 94 OFFCURVE",
"267 94 CURVE SMOOTH",
"196 94 OFFCURVE",
"125 120 OFFCURVE",
"70 167 CURVE",
"21 71 LINE",
"85 25 OFFCURVE",
"182 -5 OFFCURVE",
"275 -5 CURVE SMOOTH",
"444 -5 OFFCURVE",
"550 86 OFFCURVE",
"550 217 CURVE SMOOTH",
"550 328 OFFCURVE",
"462 395 OFFCURVE",
"331 406 CURVE SMOOTH"
);
}
);
width = 617;
}
);
note = three;
unicode = 0033;
},
{
glyphname = four;
layers = (
{
layerId = "0684C2B6-4C69-4B0A-A52B-80982EBE3DDB";
paths = (
{
closed = 1;
nodes = (
"279 701 LINE",
"34 260 LINE",
"34 172 LINE",
"375 172 LINE",
"375 0 LINE",
"485 0 LINE",
"485 172 LINE",
"589 172 LINE",
"589 278 LINE",
"486 278 LINE",
"485 443 LINE",
"375 443 LINE",
"376 278 LINE",
"161 278 LINE",
"393 701 LINE"
);
}
);
width = 617;
}
);
note = four;
unicode = 0034;
},
{
glyphname = five;
layers = (
{
layerId = "0684C2B6-4C69-4B0A-A52B-80982EBE3DDB";
paths = (
{
closed = 1;
nodes = (
"90 701 LINE",
"90 330 LINE",
"140 336 OFFCURVE",
"238 340 OFFCURVE",
"283 340 CURVE SMOOTH",
"379 340 OFFCURVE",
"438 296 OFFCURVE",
"438 224 CURVE SMOOTH",
"438 146 OFFCURVE",
"379 98 OFFCURVE",
"281 98 CURVE SMOOTH",
"215 98 OFFCURVE",
"142 125 OFFCURVE",
"83 172 CURVE",
"35 76 LINE",
"107 28 OFFCURVE",
"208 -4 OFFCURVE",
"294 -4 CURVE SMOOTH",
"458 -4 OFFCURVE",
"564 89 OFFCURVE",
"564 232 CURVE SMOOTH",
"564 354 OFFCURVE",
"462 444 OFFCURVE",
"303 444 CURVE SMOOTH",
"276 444 OFFCURVE",
"230 444 OFFCURVE",
"199 443 CURVE",
"199 595 LINE",
"534 595 LINE",
"534 701 LINE"
);
}
);
width = 617;
}
);
note = five;
unicode = 0035;
},
{
glyphname = six;
layers = (
{
layerId = "0684C2B6-4C69-4B0A-A52B-80982EBE3DDB";
paths = (
{
closed = 1;
nodes = (
"166 706 OFFCURVE",
"49 560 OFFCURVE",
"49 336 CURVE SMOOTH",
"49 121 OFFCURVE",
"157 -5 OFFCURVE",
"334 -5 CURVE SMOOTH",
"483 -5 OFFCURVE",
"581 85 OFFCURVE",
"581 230 CURVE SMOOTH",
"581 367 OFFCURVE",
"495 454 OFFCURVE",
"355 454 CURVE SMOOTH",
"267 454 OFFCURVE",
"201 420 OFFCURVE",
"164 354 CURVE",
"159 506 OFFCURVE",
"223 608 OFFCURVE",
"359 608 CURVE SMOOTH",
"412 608 OFFCURVE",
"471 592 OFFCURVE",
"514 564 CURVE",
"560 653 LINE",
"503 685 OFFCURVE",
"420 706 OFFCURVE",
"351 706 CURVE SMOOTH"
);
},
{
closed = 1;
nodes = (
"418 361 OFFCURVE",
"471 311 OFFCURVE",
"471 231 CURVE SMOOTH",
"471 146 OFFCURVE",
"413 96 OFFCURVE",
"328 96 CURVE SMOOTH",
"227 96 OFFCURVE",
"182 166 OFFCURVE",
"183 227 CURVE SMOOTH",
"182 299 OFFCURVE",
"238 361 OFFCURVE",
"333 361 CURVE SMOOTH"
);
}
);
width = 617;
}
);
note = six;
unicode = 0036;
},
{
glyphname = seven;
layers = (
{
layerId = "0684C2B6-4C69-4B0A-A52B-80982EBE3DDB";
paths = (
{
closed = 1;
nodes = (
"48 701 LINE",
"48 497 LINE",
"153 497 LINE",
"154 595 LINE",
"450 595 LINE",
"161 0 LINE",
"286 0 LINE",
"581 611 LINE",
"581 701 LINE"
);
}
);
width = 617;
}
);
note = seven;
unicode = 0037;
},
{
glyphname = eight;
layers = (
{
layerId = "0684C2B6-4C69-4B0A-A52B-80982EBE3DDB";
paths = (
{
closed = 1;
nodes = (
"166 706 OFFCURVE",
"76 638 OFFCURVE",
"76 529 CURVE SMOOTH",
"76 461 OFFCURVE",
"117 405 OFFCURVE",
"184 375 CURVE",
"97 346 OFFCURVE",
"42 280 OFFCURVE",
"42 195 CURVE SMOOTH",
"42 71 OFFCURVE",
"145 -5 OFFCURVE",
"309 -5 CURVE SMOOTH",
"473 -5 OFFCURVE",
"576 72 OFFCURVE",
"576 197 CURVE SMOOTH",
"576 281 OFFCURVE",
"523 346 OFFCURVE",
"439 375 CURVE",
"502 403 OFFCURVE",
"541 457 OFFCURVE",
"541 524 CURVE SMOOTH",
"541 637 OFFCURVE",
"452 706 OFFCURVE",
"308 706 CURVE SMOOTH"
);
},
{
closed = 1;
nodes = (
"407 323 OFFCURVE",
"465 280 OFFCURVE",
"465 207 CURVE SMOOTH",
"465 131 OFFCURVE",
"407 88 OFFCURVE",
"309 88 CURVE SMOOTH",
"210 88 OFFCURVE",
"153 131 OFFCURVE",
"153 208 CURVE SMOOTH",
"153 281 OFFCURVE",
"210 323 OFFCURVE",
"308 323 CURVE SMOOTH"
);
},
{
closed = 1;
nodes = (
"393 621 OFFCURVE",
"441 583 OFFCURVE",
"441 518 CURVE SMOOTH",
"441 453 OFFCURVE",
"393 415 OFFCURVE",
"309 415 CURVE SMOOTH",
"225 415 OFFCURVE",
"176 453 OFFCURVE",
"176 518 CURVE SMOOTH",
"176 583 OFFCURVE",
"225 621 OFFCURVE",
"309 621 CURVE SMOOTH"
);
}
);
width = 617;
}
);
note = eight;
unicode = 0038;
},
{
glyphname = nine;
layers = (
{
layerId = "0684C2B6-4C69-4B0A-A52B-80982EBE3DDB";
paths = (
{
closed = 1;
nodes = (
"453 -5 OFFCURVE",
"570 141 OFFCURVE",
"570 365 CURVE SMOOTH",
"570 580 OFFCURVE",
"462 706 OFFCURVE",
"286 706 CURVE SMOOTH",
"138 706 OFFCURVE",
"41 616 OFFCURVE",
"41 471 CURVE SMOOTH",
"41 335 OFFCURVE",
"126 247 OFFCURVE",
"265 247 CURVE SMOOTH",
"353 247 OFFCURVE",
"418 281 OFFCURVE",
"455 347 CURVE",
"459 195 OFFCURVE",
"396 93 OFFCURVE",
"261 93 CURVE SMOOTH",
"208 93 OFFCURVE",
"150 109 OFFCURVE",
"107 137 CURVE",
"61 48 LINE",
"118 16 OFFCURVE",
"200 -5 OFFCURVE",
"269 -5 CURVE SMOOTH"
);
},
{
closed = 1;
nodes = (
"203 340 OFFCURVE",
"151 390 OFFCURVE",
"151 470 CURVE SMOOTH",
"151 555 OFFCURVE",
"208 605 OFFCURVE",
"292 605 CURVE SMOOTH",
"393 605 OFFCURVE",
"437 535 OFFCURVE",
"436 474 CURVE SMOOTH",
"437 402 OFFCURVE",
"382 340 OFFCURVE",
"287 340 CURVE SMOOTH"
);
}
);
width = 617;
}
);
note = nine;
unicode = 0039;
},
{
glyphname = zero.lf;
layers = (
{
layerId = "0684C2B6-4C69-4B0A-A52B-80982EBE3DDB";
paths = (
{
closed = 1;
nodes = (
"154 703 OFFCURVE",
"48 577 OFFCURVE",
"48 350 CURVE SMOOTH",
"48 123 OFFCURVE",
"154 -3 OFFCURVE",
"345 -3 CURVE SMOOTH",
"536 -3 OFFCURVE",
"643 123 OFFCURVE",
"643 350 CURVE SMOOTH",
"643 577 OFFCURVE",
"536 703 OFFCURVE",
"345 703 CURVE SMOOTH"
);
},
{
closed = 1;
nodes = (
"463 610 OFFCURVE",
"522 528 OFFCURVE",
"522 350 CURVE SMOOTH",
"522 173 OFFCURVE",
"463 90 OFFCURVE",
"346 90 CURVE SMOOTH",
"228 90 OFFCURVE",
"169 173 OFFCURVE",
"169 350 CURVE SMOOTH",
"169 528 OFFCURVE",
"228 610 OFFCURVE",
"346 610 CURVE SMOOTH"
);
}
);
width = 691;
}
);
},
{
glyphname = one.lf;
layers = (
{
layerId = "0684C2B6-4C69-4B0A-A52B-80982EBE3DDB";
paths = (
{
closed = 1;
nodes = (
"268 0 LINE",
"268 700 LINE",
"13 700 LINE",
"13 595 LINE",
"150 595 LINE",
"150 0 LINE"
);
}
);
width = 387;
}
);
},
{
glyphname = two.lf;
layers = (
{
layerId = "0684C2B6-4C69-4B0A-A52B-80982EBE3DDB";
paths = (
{
closed = 1;
nodes = (
"198 705 OFFCURVE",
"109 667 OFFCURVE",
"33 605 CURVE",
"80 514 LINE",
"139 568 OFFCURVE",
"210 602 OFFCURVE",
"271 602 CURVE SMOOTH",
"344 602 OFFCURVE",
"388 568 OFFCURVE",
"388 512 CURVE SMOOTH",
"388 472 OFFCURVE",
"354 415 OFFCURVE",
"303 363 CURVE SMOOTH",
"45 86 LINE",
"45 0 LINE",
"543 0 LINE",
"543 106 LINE",
"201 106 LINE",
"383 299 LINE SMOOTH",
"457 379 OFFCURVE",
"511 458 OFFCURVE",
"511 529 CURVE SMOOTH",
"511 636 OFFCURVE",
"420 705 OFFCURVE",
"288 705 CURVE SMOOTH"
);
}
);
width = 588;
}
);
},
{
glyphname = three.lf;
layers = (
{
layerId = "0684C2B6-4C69-4B0A-A52B-80982EBE3DDB";
paths = (
{
closed = 1;
nodes = (
"262 409 LINE",
"462 625 LINE",
"462 699 LINE",
"36 699 LINE",
"36 594 LINE",
"316 594 LINE SMOOTH",
"135 398 LINE",
"135 329 LINE",
"231 329 LINE SMOOTH",
"325 329 OFFCURVE",
"379 290 OFFCURVE",
"379 214 CURVE SMOOTH",
"380 142 OFFCURVE",
"325 94 OFFCURVE",
"232 94 CURVE SMOOTH",
"168 94 OFFCURVE",
"104 120 OFFCURVE",
"53 167 CURVE",
"4 71 LINE",
"64 25 OFFCURVE",
"154 -5 OFFCURVE",
"241 -5 CURVE SMOOTH",
"396 -5 OFFCURVE",
"495 86 OFFCURVE",
"495 217 CURVE SMOOTH",
"495 327 OFFCURVE",
"415 395 OFFCURVE",
"298 405 CURVE SMOOTH"
);
}
);
width = 539;
}
);
},
{
glyphname = four.lf;
layers = (
{
layerId = "0684C2B6-4C69-4B0A-A52B-80982EBE3DDB";
paths = (
{
closed = 1;
nodes = (
"269 700 LINE",
"30 260 LINE",
"30 172 LINE",
"364 172 LINE",
"364 0 LINE",
"474 0 LINE",
"474 172 LINE",
"576 172 LINE",
"576 277 LINE",
"475 277 LINE",
"474 443 LINE",
"364 443 LINE",
"365 277 LINE",
"156 277 LINE",
"383 700 LINE"
);
}
);
width = 599;
}
);
},
{
glyphname = five.lf;
layers = (
{
layerId = "0684C2B6-4C69-4B0A-A52B-80982EBE3DDB";
paths = (
{
closed = 1;
nodes = (
"79 700 LINE",
"79 330 LINE",
"126 335 OFFCURVE",
"222 339 OFFCURVE",
"263 339 CURVE SMOOTH",
"353 339 OFFCURVE",
"408 295 OFFCURVE",
"408 224 CURVE SMOOTH",
"409 145 OFFCURVE",
"353 98 OFFCURVE",
"262 98 CURVE SMOOTH",
"199 98 OFFCURVE",
"130 125 OFFCURVE",
"74 172 CURVE",
"26 76 LINE",
"95 28 OFFCURVE",
"192 -4 OFFCURVE",
"275 -4 CURVE SMOOTH",
"433 -4 OFFCURVE",
"534 89 OFFCURVE",
"534 231 CURVE SMOOTH",
"534 354 OFFCURVE",
"436 444 OFFCURVE",
"284 444 CURVE SMOOTH",
"259 444 OFFCURVE",
"216 443 OFFCURVE",
"188 443 CURVE",
"188 594 LINE",
"506 594 LINE",
"506 700 LINE"
);
}
);
width = 577;
}
);
},
{
glyphname = six.lf;
layers = (
{
layerId = "0684C2B6-4C69-4B0A-A52B-80982EBE3DDB";
paths = (
{
closed = 1;
nodes = (
"165 705 OFFCURVE",
"48 559 OFFCURVE",
"48 336 CURVE SMOOTH",
"48 121 OFFCURVE",
"156 -5 OFFCURVE",
"333 -5 CURVE SMOOTH",
"482 -5 OFFCURVE",
"579 85 OFFCURVE",
"579 230 CURVE SMOOTH",
"579 366 OFFCURVE",
"494 453 OFFCURVE",
"354 453 CURVE SMOOTH",
"266 453 OFFCURVE",
"200 419 OFFCURVE",
"163 354 CURVE",
"159 505 OFFCURVE",
"222 607 OFFCURVE",
"358 607 CURVE SMOOTH",
"411 607 OFFCURVE",
"470 591 OFFCURVE",
"513 563 CURVE",
"559 652 LINE",
"502 684 OFFCURVE",
"419 705 OFFCURVE",
"350 705 CURVE SMOOTH"
);
},
{
closed = 1;
nodes = (
"417 360 OFFCURVE",
"469 311 OFFCURVE",
"469 231 CURVE SMOOTH",
"469 146 OFFCURVE",
"412 97 OFFCURVE",
"327 97 CURVE SMOOTH",
"226 97 OFFCURVE",
"181 166 OFFCURVE",
"182 227 CURVE SMOOTH",
"181 299 OFFCURVE",
"237 360 OFFCURVE",
"332 360 CURVE SMOOTH"
);
}
);
width = 615;
}
);
leftMetricsKey = zero.lf;
},
{
glyphname = seven.lf;
layers = (
{
layerId = "0684C2B6-4C69-4B0A-A52B-80982EBE3DDB";
paths = (
{
closed = 1;
nodes = (
"37 700 LINE",
"37 496 LINE",
"142 496 LINE",
"142 594 LINE",
"415 594 LINE",
"143 0 LINE",
"268 0 LINE",
"546 610 LINE",
"546 700 LINE"
);
}
);
width = 570;
}
);
},
{
glyphname = eight.lf;
layers = (
{
layerId = "0684C2B6-4C69-4B0A-A52B-80982EBE3DDB";
paths = (
{
closed = 1;
nodes = (
"170 705 OFFCURVE",
"79 638 OFFCURVE",
"79 528 CURVE SMOOTH",
"79 460 OFFCURVE",
"120 405 OFFCURVE",
"188 374 CURVE",
"99 346 OFFCURVE",
"44 280 OFFCURVE",
"44 194 CURVE SMOOTH",
"44 71 OFFCURVE",
"148 -5 OFFCURVE",
"314 -5 CURVE SMOOTH",
"479 -5 OFFCURVE",
"583 71 OFFCURVE",
"583 196 CURVE SMOOTH",
"583 281 OFFCURVE",
"530 346 OFFCURVE",
"444 374 CURVE",
"509 403 OFFCURVE",
"548 456 OFFCURVE",
"548 524 CURVE SMOOTH",
"548 636 OFFCURVE",
"457 705 OFFCURVE",
"313 705 CURVE SMOOTH"
);
},
{
closed = 1;
nodes = (
"413 323 OFFCURVE",
"471 280 OFFCURVE",
"471 207 CURVE SMOOTH",
"471 131 OFFCURVE",
"413 88 OFFCURVE",
"314 88 CURVE SMOOTH",
"214 88 OFFCURVE",
"156 131 OFFCURVE",
"156 207 CURVE SMOOTH",
"156 280 OFFCURVE",
"214 323 OFFCURVE",
"313 323 CURVE SMOOTH"
);
},
{
closed = 1;
nodes = (
"398 620 OFFCURVE",
"448 582 OFFCURVE",
"448 517 CURVE SMOOTH",
"448 452 OFFCURVE",
"398 415 OFFCURVE",
"314 415 CURVE SMOOTH",
"229 415 OFFCURVE",
"179 452 OFFCURVE",
"179 517 CURVE SMOOTH",
"179 582 OFFCURVE",
"229 620 OFFCURVE",
"314 620 CURVE SMOOTH"
);
}
);
width = 626;
}
);
},
{
glyphname = zero.osf;
layers = (
{
layerId = "0684C2B6-4C69-4B0A-A52B-80982EBE3DDB";
paths = (
{
closed = 1;
nodes = (
"169 603 OFFCURVE",
"48 480 OFFCURVE",
"48 300 CURVE SMOOTH",
"48 120 OFFCURVE",
"169 -3 OFFCURVE",
"345 -3 CURVE SMOOTH",
"521 -3 OFFCURVE",
"643 120 OFFCURVE",
"643 300 CURVE SMOOTH",
"643 480 OFFCURVE",
"521 603 OFFCURVE",
"345 603 CURVE SMOOTH"
);
},
{
closed = 1;
nodes = (
"450 505 OFFCURVE",
"522 425 OFFCURVE",
"522 300 CURVE SMOOTH",
"522 175 OFFCURVE",
"450 95 OFFCURVE",
"345 95 CURVE SMOOTH",
"242 95 OFFCURVE",
"169 175 OFFCURVE",
"169 300 CURVE SMOOTH",
"169 425 OFFCURVE",
"242 505 OFFCURVE",
"345 505 CURVE SMOOTH"
);
}
);
width = 691;
}
);
},
{
glyphname = one.osf;
layers = (
{
layerId = "0684C2B6-4C69-4B0A-A52B-80982EBE3DDB";
paths = (
{
closed = 1;
nodes = (
"268 0 LINE",
"268 600 LINE",
"13 600 LINE",
"13 495 LINE",
"150 495 LINE",
"150 0 LINE"
);
}
);
width = 387;
}
);
},
{
glyphname = two.osf;
layers = (
{
layerId = "0684C2B6-4C69-4B0A-A52B-80982EBE3DDB";
paths = (
{
closed = 1;
nodes = (
"186 608 OFFCURVE",
"104 576 OFFCURVE",
"33 521 CURVE",
"79 430 LINE",
"134 477 OFFCURVE",
"198 506 OFFCURVE",
"253 506 CURVE SMOOTH",
"315 506 OFFCURVE",
"351 480 OFFCURVE",
"351 437 CURVE SMOOTH",
"351 406 OFFCURVE",
"322 360 OFFCURVE",
"278 318 CURVE SMOOTH",
"45 84 LINE",
"45 0 LINE",
"502 0 LINE",
"502 106 LINE",
"202 106 LINE",
"359 256 LINE",
"427 324 OFFCURVE",
"475 392 OFFCURVE",
"475 455 CURVE SMOOTH",
"475 548 OFFCURVE",
"391 608 OFFCURVE",
"270 608 CURVE SMOOTH"
);
}
);
width = 547;
}
);
leftMetricsKey = two.lf;
rightMetricsKey = two.lf;
},
{
glyphname = three.osf;
layers = (
{
layerId = "0684C2B6-4C69-4B0A-A52B-80982EBE3DDB";
paths = (
{
closed = 1;
nodes = (
"262 309 LINE",
"462 525 LINE",
"462 599 LINE",
"36 599 LINE",
"36 494 LINE",
"316 494 LINE SMOOTH",
"134 298 LINE",
"134 229 LINE",
"231 229 LINE SMOOTH",
"324 229 OFFCURVE",
"379 190 OFFCURVE",
"379 115 CURVE SMOOTH",
"379 42 OFFCURVE",
"325 -6 OFFCURVE",
"232 -6 CURVE SMOOTH",
"168 -6 OFFCURVE",
"103 20 OFFCURVE",
"53 67 CURVE",
"4 -29 LINE",
"64 -75 OFFCURVE",
"154 -105 OFFCURVE",
"240 -105 CURVE SMOOTH",
"396 -105 OFFCURVE",
"495 -14 OFFCURVE",
"495 117 CURVE SMOOTH",
"495 227 OFFCURVE",
"415 295 OFFCURVE",
"298 306 CURVE SMOOTH"
);
}
);
width = 539;
}
);
},
{
glyphname = four.osf;
layers = (
{
layerId = "0684C2B6-4C69-4B0A-A52B-80982EBE3DDB";
paths = (
{
closed = 1;
nodes = (
"269 600 LINE",
"30 160 LINE",
"30 71 LINE",
"364 71 LINE",
"364 -100 LINE",
"474 -100 LINE",
"474 71 LINE",
"576 71 LINE",
"576 177 LINE",
"474 177 LINE",
"474 343 LINE",
"364 343 LINE",
"364 177 LINE",
"156 177 LINE",
"383 600 LINE"
);
}
);
width = 599;
}
);
},
{
glyphname = five.osf;
layers = (
{
layerId = "0684C2B6-4C69-4B0A-A52B-80982EBE3DDB";
paths = (
{
closed = 1;
nodes = (
"79 600 LINE",
"79 230 LINE",
"126 235 OFFCURVE",
"221 239 OFFCURVE",
"263 239 CURVE SMOOTH",
"353 239 OFFCURVE",
"408 196 OFFCURVE",
"408 124 CURVE SMOOTH",
"408 46 OFFCURVE",
"353 -2 OFFCURVE",
"262 -2 CURVE SMOOTH",
"199 -2 OFFCURVE",
"129 25 OFFCURVE",
"73 72 CURVE",
"26 -24 LINE",
"95 -72 OFFCURVE",
"192 -104 OFFCURVE",
"275 -104 CURVE SMOOTH",
"432 -104 OFFCURVE",
"534 -11 OFFCURVE",
"534 132 CURVE SMOOTH",
"534 254 OFFCURVE",
"436 344 OFFCURVE",
"284 344 CURVE SMOOTH",
"259 344 OFFCURVE",
"216 343 OFFCURVE",
"188 342 CURVE",
"188 494 LINE",
"506 494 LINE",
"505 600 LINE"
);
}
);
width = 577;
}
);
},
{
glyphname = six.osf;
layers = (
{
layerId = "0684C2B6-4C69-4B0A-A52B-80982EBE3DDB";
paths = (
{
closed = 1;
nodes = (
"165 705 OFFCURVE",
"48 559 OFFCURVE",
"48 336 CURVE SMOOTH",
"48 121 OFFCURVE",
"156 -5 OFFCURVE",
"333 -5 CURVE SMOOTH",
"482 -5 OFFCURVE",
"579 85 OFFCURVE",
"579 230 CURVE SMOOTH",
"579 366 OFFCURVE",
"494 453 OFFCURVE",
"354 453 CURVE SMOOTH",
"266 453 OFFCURVE",
"200 419 OFFCURVE",
"163 354 CURVE",
"159 505 OFFCURVE",
"222 607 OFFCURVE",
"358 607 CURVE SMOOTH",
"411 607 OFFCURVE",
"470 591 OFFCURVE",
"513 563 CURVE",
"559 652 LINE",
"502 684 OFFCURVE",
"419 705 OFFCURVE",
"350 705 CURVE SMOOTH"
);
},
{
closed = 1;
nodes = (
"417 360 OFFCURVE",
"469 311 OFFCURVE",
"469 231 CURVE SMOOTH",
"469 146 OFFCURVE",
"412 97 OFFCURVE",
"327 97 CURVE SMOOTH",
"226 97 OFFCURVE",
"181 166 OFFCURVE",
"182 227 CURVE SMOOTH",
"181 299 OFFCURVE",
"237 360 OFFCURVE",
"332 360 CURVE SMOOTH"
);
}
);
width = 615;
}
);
leftMetricsKey = zero.lf;
},
{
glyphname = seven.osf;
layers = (
{
layerId = "0684C2B6-4C69-4B0A-A52B-80982EBE3DDB";
paths = (
{
closed = 1;
nodes = (
"37 600 LINE",
"37 396 LINE",
"141 396 LINE",
"142 494 LINE",
"414 494 LINE",
"142 -100 LINE",
"267 -100 LINE",
"546 510 LINE",
"546 600 LINE"
);
}
);
width = 570;
}
);
},
{
glyphname = eight.osf;
layers = (
{
layerId = "0684C2B6-4C69-4B0A-A52B-80982EBE3DDB";
paths = (
{
closed = 1;
nodes = (
"170 705 OFFCURVE",
"79 638 OFFCURVE",
"79 528 CURVE SMOOTH",
"79 460 OFFCURVE",
"120 405 OFFCURVE",
"188 374 CURVE",
"99 346 OFFCURVE",
"44 280 OFFCURVE",
"44 194 CURVE SMOOTH",
"44 71 OFFCURVE",
"148 -5 OFFCURVE",
"314 -5 CURVE SMOOTH",
"479 -5 OFFCURVE",
"583 71 OFFCURVE",
"583 196 CURVE SMOOTH",
"583 281 OFFCURVE",
"530 346 OFFCURVE",
"444 374 CURVE",
"509 403 OFFCURVE",
"548 456 OFFCURVE",
"548 524 CURVE SMOOTH",
"548 636 OFFCURVE",
"457 705 OFFCURVE",
"313 705 CURVE SMOOTH"
);
},
{
closed = 1;
nodes = (
"413 323 OFFCURVE",
"471 280 OFFCURVE",
"471 207 CURVE SMOOTH",
"471 131 OFFCURVE",
"413 88 OFFCURVE",
"314 88 CURVE SMOOTH",
"214 88 OFFCURVE",
"156 131 OFFCURVE",
"156 207 CURVE SMOOTH",
"156 280 OFFCURVE",
"214 323 OFFCURVE",
"313 323 CURVE SMOOTH"
);
},
{
closed = 1;
nodes = (
"398 620 OFFCURVE",
"448 582 OFFCURVE",
"448 517 CURVE SMOOTH",
"448 452 OFFCURVE",
"398 415 OFFCURVE",
"314 415 CURVE SMOOTH",
"229 415 OFFCURVE",
"179 452 OFFCURVE",
"179 517 CURVE SMOOTH",
"179 582 OFFCURVE",
"229 620 OFFCURVE",
"314 620 CURVE SMOOTH"
);
}
);
width = 626;
}
);
},
{
glyphname = zero.tosf;
layers = (
{
layerId = "0684C2B6-4C69-4B0A-A52B-80982EBE3DDB";
paths = (
{
closed = 1;
nodes = (
"148 604 OFFCURVE",
"38 480 OFFCURVE",
"38 301 CURVE SMOOTH",
"38 121 OFFCURVE",
"148 -3 OFFCURVE",
"309 -3 CURVE SMOOTH",
"470 -3 OFFCURVE",
"579 121 OFFCURVE",
"579 301 CURVE SMOOTH",
"579 480 OFFCURVE",
"470 604 OFFCURVE",
"309 604 CURVE SMOOTH"
);
},
{
closed = 1;
nodes = (
"401 509 OFFCURVE",
"466 428 OFFCURVE",
"466 301 CURVE SMOOTH",
"466 173 OFFCURVE",
"401 92 OFFCURVE",
"308 92 CURVE SMOOTH",
"216 92 OFFCURVE",
"151 173 OFFCURVE",
"151 301 CURVE SMOOTH",
"151 428 OFFCURVE",
"216 509 OFFCURVE",
"308 509 CURVE SMOOTH"
);
}
);
width = 617;
}
);
userData = {
RMXScaler = {
source = zero.osf;
};
};
},
{
glyphname = one.tosf;
layers = (
{
layerId = "0684C2B6-4C69-4B0A-A52B-80982EBE3DDB";
paths = (
{
closed = 1;
nodes = (
"389 0 LINE",
"389 601 LINE",
"119 601 LINE",
"119 495 LINE",
"272 495 LINE",
"272 0 LINE"
);
}
);
width = 617;
}
);
userData = {
RMXScaler = {
source = one.osf;
};
};
},
{
glyphname = two.tosf;
layers = (
{
layerId = "0684C2B6-4C69-4B0A-A52B-80982EBE3DDB";
paths = (
{
closed = 1;
nodes = (
"213 609 OFFCURVE",
"125 577 OFFCURVE",
"50 521 CURVE",
"97 431 LINE",
"155 478 OFFCURVE",
"225 507 OFFCURVE",
"286 507 CURVE SMOOTH",
"357 507 OFFCURVE",
"399 482 OFFCURVE",
"399 438 CURVE SMOOTH",
"399 406 OFFCURVE",
"366 362 OFFCURVE",
"317 318 CURVE SMOOTH",
"62 85 LINE",
"62 0 LINE",
"554 0 LINE",
"554 106 LINE",
"218 106 LINE",
"396 257 LINE",
"472 324 OFFCURVE",
"523 392 OFFCURVE",
"523 455 CURVE SMOOTH",
"523 549 OFFCURVE",
"433 609 OFFCURVE",
"302 609 CURVE SMOOTH"
);
}
);
width = 617;
}
);
userData = {
RMXScaler = {
source = two.osf;
};
};
},
{
glyphname = three.tosf;
layers = (
{
layerId = "0684C2B6-4C69-4B0A-A52B-80982EBE3DDB";
paths = (
{
closed = 1;
nodes = (
"290 309 LINE",
"515 526 LINE",
"515 600 LINE",
"55 600 LINE",
"56 495 LINE",
"368 495 LINE",
"163 298 LINE",
"163 230 LINE",
"265 230 LINE SMOOTH",
"372 230 OFFCURVE",
"435 191 OFFCURVE",
"435 115 CURVE SMOOTH",
"435 42 OFFCURVE",
"373 -6 OFFCURVE",
"267 -6 CURVE SMOOTH",
"196 -6 OFFCURVE",
"125 20 OFFCURVE",
"70 67 CURVE",
"21 -29 LINE",
"85 -75 OFFCURVE",
"182 -105 OFFCURVE",
"275 -105 CURVE SMOOTH",
"444 -105 OFFCURVE",
"550 -14 OFFCURVE",
"550 117 CURVE SMOOTH",
"550 228 OFFCURVE",
"462 295 OFFCURVE",
"331 306 CURVE SMOOTH"
);
}
);
width = 617;
}
);
},
{
glyphname = four.tosf;
layers = (
{
layerId = "0684C2B6-4C69-4B0A-A52B-80982EBE3DDB";
paths = (
{
closed = 1;
nodes = (
"279 601 LINE",
"34 160 LINE",
"34 72 LINE",
"375 72 LINE",
"375 -100 LINE",
"485 -100 LINE",
"485 72 LINE",
"589 72 LINE",
"589 178 LINE",
"486 178 LINE",
"485 343 LINE",
"375 343 LINE",
"376 178 LINE",
"161 178 LINE",
"393 601 LINE"
);
}
);
width = 617;
}
);
},
{
glyphname = five.tosf;
layers = (
{
layerId = "0684C2B6-4C69-4B0A-A52B-80982EBE3DDB";
paths = (
{
closed = 1;
nodes = (
"90 601 LINE",
"90 230 LINE",
"140 236 OFFCURVE",
"238 240 OFFCURVE",
"283 240 CURVE SMOOTH",
"379 240 OFFCURVE",
"438 196 OFFCURVE",
"438 124 CURVE SMOOTH",
"438 46 OFFCURVE",
"379 -2 OFFCURVE",
"281 -2 CURVE SMOOTH",
"215 -2 OFFCURVE",
"142 25 OFFCURVE",
"83 72 CURVE",
"35 -24 LINE",
"107 -72 OFFCURVE",
"208 -104 OFFCURVE",
"294 -104 CURVE SMOOTH",
"458 -104 OFFCURVE",
"564 -11 OFFCURVE",
"564 132 CURVE SMOOTH",
"564 254 OFFCURVE",
"462 344 OFFCURVE",
"303 344 CURVE SMOOTH",
"276 344 OFFCURVE",
"230 344 OFFCURVE",
"199 343 CURVE",
"199 495 LINE",
"534 495 LINE",
"534 601 LINE"
);
}
);
width = 617;
}
);
},
{
glyphname = six.tosf;
layers = (
{
layerId = "0684C2B6-4C69-4B0A-A52B-80982EBE3DDB";
paths = (
{
closed = 1;
nodes = (
"166 706 OFFCURVE",
"49 560 OFFCURVE",
"49 336 CURVE SMOOTH",
"49 121 OFFCURVE",
"157 -5 OFFCURVE",
"334 -5 CURVE SMOOTH",
"483 -5 OFFCURVE",
"581 85 OFFCURVE",
"581 230 CURVE SMOOTH",
"581 367 OFFCURVE",
"495 454 OFFCURVE",
"355 454 CURVE SMOOTH",
"267 454 OFFCURVE",
"201 420 OFFCURVE",
"164 354 CURVE",
"159 506 OFFCURVE",
"223 608 OFFCURVE",
"359 608 CURVE SMOOTH",
"412 608 OFFCURVE",
"471 592 OFFCURVE",
"514 564 CURVE",
"560 653 LINE",
"503 685 OFFCURVE",
"420 706 OFFCURVE",
"351 706 CURVE SMOOTH"
);
},
{
closed = 1;
nodes = (
"418 361 OFFCURVE",
"471 311 OFFCURVE",
"471 231 CURVE SMOOTH",
"471 146 OFFCURVE",
"413 96 OFFCURVE",
"328 96 CURVE SMOOTH",
"227 96 OFFCURVE",
"182 166 OFFCURVE",
"183 227 CURVE SMOOTH",
"182 299 OFFCURVE",
"238 361 OFFCURVE",
"333 361 CURVE SMOOTH"
);
}
);
width = 617;
}
);
},
{
glyphname = seven.tosf;
layers = (
{
layerId = "0684C2B6-4C69-4B0A-A52B-80982EBE3DDB";
paths = (
{
closed = 1;
nodes = (
"48 601 LINE",
"48 397 LINE",
"153 397 LINE",
"154 495 LINE",
"450 495 LINE",
"161 -100 LINE",
"286 -100 LINE",
"581 511 LINE",
"581 601 LINE"
);
}
);
width = 617;
}
);
},
{
glyphname = eight.tosf;
layers = (
{
layerId = "0684C2B6-4C69-4B0A-A52B-80982EBE3DDB";
paths = (
{
closed = 1;
nodes = (
"166 706 OFFCURVE",
"76 638 OFFCURVE",
"76 529 CURVE SMOOTH",
"76 461 OFFCURVE",
"117 405 OFFCURVE",
"184 375 CURVE",
"97 346 OFFCURVE",
"42 280 OFFCURVE",
"42 195 CURVE SMOOTH",
"42 71 OFFCURVE",
"145 -5 OFFCURVE",
"309 -5 CURVE SMOOTH",
"473 -5 OFFCURVE",
"576 72 OFFCURVE",
"576 197 CURVE SMOOTH",
"576 281 OFFCURVE",
"523 346 OFFCURVE",
"439 375 CURVE",
"502 403 OFFCURVE",
"541 457 OFFCURVE",
"541 524 CURVE SMOOTH",
"541 637 OFFCURVE",
"452 706 OFFCURVE",
"308 706 CURVE SMOOTH"
);
},
{
closed = 1;
nodes = (
"407 323 OFFCURVE",
"465 280 OFFCURVE",
"465 207 CURVE SMOOTH",
"465 131 OFFCURVE",
"407 88 OFFCURVE",
"309 88 CURVE SMOOTH",
"210 88 OFFCURVE",
"153 131 OFFCURVE",
"153 208 CURVE SMOOTH",
"153 281 OFFCURVE",
"210 323 OFFCURVE",
"308 323 CURVE SMOOTH"
);
},
{
closed = 1;
nodes = (
"393 621 OFFCURVE",
"441 583 OFFCURVE",
"441 518 CURVE SMOOTH",
"441 453 OFFCURVE",
"393 415 OFFCURVE",
"309 415 CURVE SMOOTH",
"225 415 OFFCURVE",
"176 453 OFFCURVE",
"176 518 CURVE SMOOTH",
"176 583 OFFCURVE",
"225 621 OFFCURVE",
"309 621 CURVE SMOOTH"
);
}
);
width = 617;
}
);
},
{
glyphname = nine.tosf;
layers = (
{
layerId = "0684C2B6-4C69-4B0A-A52B-80982EBE3DDB";
paths = (
{
closed = 1;
nodes = (
"453 -105 OFFCURVE",
"570 41 OFFCURVE",
"570 265 CURVE SMOOTH",
"570 480 OFFCURVE",
"462 606 OFFCURVE",
"286 606 CURVE SMOOTH",
"138 606 OFFCURVE",
"41 516 OFFCURVE",
"41 371 CURVE SMOOTH",
"41 235 OFFCURVE",
"126 147 OFFCURVE",
"265 147 CURVE SMOOTH",
"353 147 OFFCURVE",
"418 181 OFFCURVE",
"455 247 CURVE",
"459 95 OFFCURVE",
"396 -7 OFFCURVE",
"261 -7 CURVE SMOOTH",
"208 -7 OFFCURVE",
"150 9 OFFCURVE",
"107 37 CURVE",
"61 -52 LINE",
"118 -84 OFFCURVE",
"200 -105 OFFCURVE",
"269 -105 CURVE SMOOTH"
);
},
{
closed = 1;
nodes = (
"203 240 OFFCURVE",
"151 290 OFFCURVE",
"151 370 CURVE SMOOTH",
"151 455 OFFCURVE",
"208 505 OFFCURVE",
"292 505 CURVE SMOOTH",
"393 505 OFFCURVE",
"437 435 OFFCURVE",
"436 374 CURVE SMOOTH",
"437 302 OFFCURVE",
"382 240 OFFCURVE",
"287 240 CURVE SMOOTH"
);
}
);
width = 617;
}
);
},
{
glyphname = zero.dnom;
layers = (
{
layerId = "0684C2B6-4C69-4B0A-A52B-80982EBE3DDB";
paths = (
{
closed = 1;
nodes = (
"108 415 OFFCURVE",
"38 337 OFFCURVE",
"38 207 CURVE SMOOTH",
"38 76 OFFCURVE",
"108 -2 OFFCURVE",
"223 -2 CURVE SMOOTH",
"338 -2 OFFCURVE",
"408 76 OFFCURVE",
"408 207 CURVE SMOOTH",
"408 337 OFFCURVE",
"338 415 OFFCURVE",
"223 415 CURVE SMOOTH"
);
},
{
closed = 1;
nodes = (
"292 348 OFFCURVE",
"332 296 OFFCURVE",
"332 207 CURVE SMOOTH",
"332 117 OFFCURVE",
"292 66 OFFCURVE",
"223 66 CURVE SMOOTH",
"155 66 OFFCURVE",
"115 117 OFFCURVE",
"115 207 CURVE SMOOTH",
"115 296 OFFCURVE",
"155 348 OFFCURVE",
"223 348 CURVE SMOOTH"
);
}
);
width = 447;
}
);
},
{
glyphname = one.dnom;
layers = (
{
layerId = "0684C2B6-4C69-4B0A-A52B-80982EBE3DDB";
paths = (
{
closed = 1;
nodes = (
"182 413 LINE",
"16 413 LINE",
"16 345 LINE",
"99 345 LINE",
"99 0 LINE",
"182 0 LINE"
);
}
);
width = 262;
}
);
},
{
glyphname = two.dnom;
layers = (
{
layerId = "0684C2B6-4C69-4B0A-A52B-80982EBE3DDB";
paths = (
{
closed = 1;
nodes = (
"133 416 OFFCURVE",
"77 394 OFFCURVE",
"28 356 CURVE",
"61 295 LINE",
"98 327 OFFCURVE",
"142 347 OFFCURVE",
"178 347 CURVE",
"219 347 OFFCURVE",
"243 329 OFFCURVE",
"243 300 CURVE",
"243 278 OFFCURVE",
"223 246 OFFCURVE",
"194 217 CURVE SMOOTH",
"37 57 LINE",
"37 0 LINE",
"348 0 LINE",
"348 67 LINE",
"143 67 LINE",
"251 175 LINE SMOOTH",
"298 221 OFFCURVE",
"330 268 OFFCURVE",
"330 311 CURVE",
"330 375 OFFCURVE",
"273 416 OFFCURVE",
"191 416 CURVE"
);
}
);
width = 383;
}
);
},
{
glyphname = three.dnom;
layers = (
{
layerId = "0684C2B6-4C69-4B0A-A52B-80982EBE3DDB";
paths = (
{
closed = 1;
nodes = (
"181 243 LINE",
"299 363 LINE",
"299 412 LINE",
"31 412 LINE",
"31 349 LINE",
"204 349 LINE",
"92 235 LINE",
"92 189 LINE",
"154 189 LINE SMOOTH",
"207 189 OFFCURVE",
"237 168 OFFCURVE",
"237 127 CURVE SMOOTH",
"237 87 OFFCURVE",
"207 61 OFFCURVE",
"154 61 CURVE SMOOTH",
"115 61 OFFCURVE",
"76 77 OFFCURVE",
"46 108 CURVE",
"11 43 LINE",
"48 15 OFFCURVE",
"106 -3 OFFCURVE",
"161 -3 CURVE SMOOTH",
"258 -3 OFFCURVE",
"319 51 OFFCURVE",
"319 128 CURVE SMOOTH",
"319 193 OFFCURVE",
"271 233 OFFCURVE",
"203 240 CURVE SMOOTH"
);
}
);
width = 355;
}
);
},
{
glyphname = four.dnom;
layers = (
{
layerId = "0684C2B6-4C69-4B0A-A52B-80982EBE3DDB";
paths = (
{
closed = 1;
nodes = (
"252 413 LINE",
"171 413 LINE",
"28 156 LINE",
"28 97 LINE",
"233 97 LINE",
"233 0 LINE",
"311 0 LINE",
"311 97 LINE",
"372 97 LINE",
"372 159 LINE",
"311 159 LINE",
"311 261 LINE",
"233 261 LINE",
"233 159 LINE",
"113 159 LINE"
);
}
);
width = 394;
}
);
},
{
glyphname = five.dnom;
layers = (
{
layerId = "0684C2B6-4C69-4B0A-A52B-80982EBE3DDB";
paths = (
{
closed = 1;
nodes = (
"325 413 LINE",
"56 413 LINE",
"56 185 LINE",
"85 191 OFFCURVE",
"147 194 OFFCURVE",
"171 194 CURVE",
"222 194 OFFCURVE",
"253 171 OFFCURVE",
"253 132 CURVE",
"253 87 OFFCURVE",
"222 61 OFFCURVE",
"171 61 CURVE",
"132 61 OFFCURVE",
"90 79 OFFCURVE",
"57 111 CURVE",
"23 45 LINE",
"66 17 OFFCURVE",
"128 -3 OFFCURVE",
"180 -3 CURVE",
"279 -3 OFFCURVE",
"342 52 OFFCURVE",
"342 137 CURVE",
"342 210 OFFCURVE",
"282 257 OFFCURVE",
"187 257 CURVE",
"173 257 OFFCURVE",
"149 254 OFFCURVE",
"134 250 CURVE",
"134 347 LINE",
"325 347 LINE"
);
}
);
width = 377;
}
);
},
{
glyphname = six.dnom;
layers = (
{
layerId = "0684C2B6-4C69-4B0A-A52B-80982EBE3DDB";
paths = (
{
closed = 1;
nodes = (
"112 416 OFFCURVE",
"38 330 OFFCURVE",
"38 199 CURVE SMOOTH",
"38 72 OFFCURVE",
"105 -3 OFFCURVE",
"216 -3 CURVE SMOOTH",
"309 -3 OFFCURVE",
"370 50 OFFCURVE",
"370 136 CURVE SMOOTH",
"370 216 OFFCURVE",
"316 268 OFFCURVE",
"233 268 CURVE SMOOTH",
"175 268 OFFCURVE",
"135 243 OFFCURVE",
"119 205 CURVE",
"113 297 OFFCURVE",
"154 350 OFFCURVE",
"232 350 CURVE SMOOTH",
"266 350 OFFCURVE",
"300 341 OFFCURVE",
"327 324 CURVE",
"359 384 LINE",
"323 404 OFFCURVE",
"272 416 OFFCURVE",
"227 416 CURVE SMOOTH"
);
},
{
closed = 1;
nodes = (
"263 206 OFFCURVE",
"292 181 OFFCURVE",
"292 137 CURVE SMOOTH",
"292 91 OFFCURVE",
"261 65 OFFCURVE",
"212 65 CURVE SMOOTH",
"156 65 OFFCURVE",
"131 101 OFFCURVE",
"131 134 CURVE",
"131 175 OFFCURVE",
"162 206 OFFCURVE",
"215 206 CURVE SMOOTH"
);
}
);
width = 401;
}
);
},
{
glyphname = seven.dnom;
layers = (
{
layerId = "0684C2B6-4C69-4B0A-A52B-80982EBE3DDB";
paths = (
{
closed = 1;
nodes = (
"351 413 LINE",
"32 413 LINE",
"32 286 LINE",
"106 286 LINE",
"106 347 LINE",
"260 347 LINE",
"95 0 LINE",
"184 0 LINE",
"351 353 LINE"
);
}
);
width = 374;
}
);
},
{
glyphname = eight.dnom;
layers = (
{
layerId = "0684C2B6-4C69-4B0A-A52B-80982EBE3DDB";
paths = (
{
closed = 1;
nodes = (
"114 416 OFFCURVE",
"56 376 OFFCURVE",
"56 311 CURVE SMOOTH",
"56 272 OFFCURVE",
"81 239 OFFCURVE",
"121 221 CURVE",
"68 203 OFFCURVE",
"35 164 OFFCURVE",
"35 115 CURVE SMOOTH",
"35 42 OFFCURVE",
"100 -3 OFFCURVE",
"204 -3 CURVE SMOOTH",
"307 -3 OFFCURVE",
"372 42 OFFCURVE",
"372 116 CURVE SMOOTH",
"372 165 OFFCURVE",
"341 203 OFFCURVE",
"290 221 CURVE",
"327 238 OFFCURVE",
"351 270 OFFCURVE",
"351 308 CURVE SMOOTH",
"351 375 OFFCURVE",
"293 416 OFFCURVE",
"203 416 CURVE SMOOTH"
);
},
{
closed = 1;
nodes = (
"260 186 OFFCURVE",
"293 163 OFFCURVE",
"293 123 CURVE SMOOTH",
"293 82 OFFCURVE",
"260 59 OFFCURVE",
"204 59 CURVE SMOOTH",
"146 59 OFFCURVE",
"114 82 OFFCURVE",
"114 124 CURVE SMOOTH",
"114 163 OFFCURVE",
"147 186 OFFCURVE",
"203 186 CURVE SMOOTH"
);
},
{
closed = 1;
nodes = (
"252 360 OFFCURVE",
"280 339 OFFCURVE",
"280 304 CURVE SMOOTH",
"280 268 OFFCURVE",
"252 248 OFFCURVE",
"204 248 CURVE SMOOTH",
"155 248 OFFCURVE",
"127 268 OFFCURVE",
"127 304 CURVE SMOOTH",
"127 339 OFFCURVE",
"155 360 OFFCURVE",
"204 360 CURVE SMOOTH"
);
}
);
width = 407;
}
);
},
{
glyphname = nine.dnom;
layers = (
{
layerId = "0684C2B6-4C69-4B0A-A52B-80982EBE3DDB";
paths = (
{
closed = 1;
nodes = (
"291 -3 OFFCURVE",
"365 83 OFFCURVE",
"365 213 CURVE SMOOTH",
"365 340 OFFCURVE",
"298 416 OFFCURVE",
"187 416 CURVE SMOOTH",
"94 416 OFFCURVE",
"33 363 OFFCURVE",
"33 277 CURVE SMOOTH",
"33 197 OFFCURVE",
"86 144 OFFCURVE",
"170 144 CURVE SMOOTH",
"228 144 OFFCURVE",
"268 170 OFFCURVE",
"284 208 CURVE",
"291 116 OFFCURVE",
"249 63 OFFCURVE",
"171 63 CURVE SMOOTH",
"137 63 OFFCURVE",
"103 72 OFFCURVE",
"77 89 CURVE",
"44 29 LINE",
"80 9 OFFCURVE",
"131 -3 OFFCURVE",
"176 -3 CURVE SMOOTH"
);
},
{
closed = 1;
nodes = (
"141 207 OFFCURVE",
"112 233 OFFCURVE",
"112 276 CURVE SMOOTH",
"112 322 OFFCURVE",
"143 348 OFFCURVE",
"192 348 CURVE SMOOTH",
"248 348 OFFCURVE",
"273 312 OFFCURVE",
"273 278 CURVE",
"273 238 OFFCURVE",
"243 207 OFFCURVE",
"189 207 CURVE SMOOTH"
);
}
);
width = 403;
}
);
},
{
glyphname = zero.numr;
layers = (
{
layerId = "0684C2B6-4C69-4B0A-A52B-80982EBE3DDB";
paths = (
{
closed = 1;
nodes = (
"108 702 OFFCURVE",
"38 624 OFFCURVE",
"38 494 CURVE SMOOTH",
"38 363 OFFCURVE",
"108 284 OFFCURVE",
"223 284 CURVE SMOOTH",
"338 284 OFFCURVE",
"408 363 OFFCURVE",
"408 494 CURVE SMOOTH",
"408 624 OFFCURVE",
"338 702 OFFCURVE",
"223 702 CURVE SMOOTH"
);
},
{
closed = 1;
nodes = (
"292 634 OFFCURVE",
"332 583 OFFCURVE",
"332 494 CURVE SMOOTH",
"332 404 OFFCURVE",
"292 352 OFFCURVE",
"223 352 CURVE SMOOTH",
"155 352 OFFCURVE",
"115 404 OFFCURVE",
"115 494 CURVE SMOOTH",
"115 583 OFFCURVE",
"155 634 OFFCURVE",
"223 634 CURVE SMOOTH"
);
}
);
width = 447;
}
);
},
{
glyphname = one.numr;
layers = (
{
layerId = "0684C2B6-4C69-4B0A-A52B-80982EBE3DDB";
paths = (
{
closed = 1;
nodes = (
"182 700 LINE",
"16 700 LINE",
"16 631 LINE",
"99 631 LINE",
"99 287 LINE",
"182 287 LINE"
);
}
);
width = 262;
}
);
},
{
glyphname = two.numr;
layers = (
{
layerId = "0684C2B6-4C69-4B0A-A52B-80982EBE3DDB";
paths = (
{
closed = 1;
nodes = (
"133 703 OFFCURVE",
"77 680 OFFCURVE",
"28 643 CURVE",
"61 581 LINE",
"98 613 OFFCURVE",
"142 633 OFFCURVE",
"178 633 CURVE",
"219 633 OFFCURVE",
"243 616 OFFCURVE",
"243 586 CURVE",
"243 564 OFFCURVE",
"223 532 OFFCURVE",
"194 504 CURVE SMOOTH",
"37 343 LINE",
"37 287 LINE",
"348 287 LINE",
"348 353 LINE",
"143 353 LINE",
"251 462 LINE SMOOTH",
"298 508 OFFCURVE",
"330 555 OFFCURVE",
"330 598 CURVE",
"330 662 OFFCURVE",
"273 703 OFFCURVE",
"191 703 CURVE"
);
}
);
width = 383;
}
);
},
{
glyphname = three.numr;
layers = (
{
layerId = "0684C2B6-4C69-4B0A-A52B-80982EBE3DDB";
paths = (
{
closed = 1;
nodes = (
"181 529 LINE",
"299 649 LINE",
"299 698 LINE",
"31 698 LINE",
"31 636 LINE",
"204 636 LINE",
"92 522 LINE",
"92 476 LINE",
"154 476 LINE SMOOTH",
"207 476 OFFCURVE",
"237 455 OFFCURVE",
"237 414 CURVE SMOOTH",
"237 373 OFFCURVE",
"207 347 OFFCURVE",
"154 347 CURVE SMOOTH",
"115 347 OFFCURVE",
"76 364 OFFCURVE",
"46 395 CURVE",
"11 329 LINE",
"48 302 OFFCURVE",
"106 283 OFFCURVE",
"161 283 CURVE SMOOTH",
"258 283 OFFCURVE",
"319 338 OFFCURVE",
"319 415 CURVE SMOOTH",
"319 480 OFFCURVE",
"271 520 OFFCURVE",
"203 527 CURVE SMOOTH"
);
}
);
width = 355;
}
);
},
{
glyphname = four.numr;
layers = (
{
layerId = "0684C2B6-4C69-4B0A-A52B-80982EBE3DDB";
paths = (
{
closed = 1;
nodes = (
"252 700 LINE",
"171 700 LINE",
"28 443 LINE",
"28 384 LINE",
"233 384 LINE",
"233 287 LINE",
"311 287 LINE",
"311 384 LINE",
"372 384 LINE",
"372 446 LINE",
"311 446 LINE",
"311 547 LINE",
"233 547 LINE",
"233 446 LINE",
"113 446 LINE"
);
}
);
width = 394;
}
);
},
{
glyphname = five.numr;
layers = (
{
layerId = "0684C2B6-4C69-4B0A-A52B-80982EBE3DDB";
paths = (
{
closed = 1;
nodes = (
"325 700 LINE",
"56 700 LINE",
"56 472 LINE",
"85 477 OFFCURVE",
"147 480 OFFCURVE",
"171 480 CURVE",
"222 480 OFFCURVE",
"253 457 OFFCURVE",
"253 419 CURVE",
"253 374 OFFCURVE",
"222 348 OFFCURVE",
"171 348 CURVE",
"132 348 OFFCURVE",
"90 365 OFFCURVE",
"57 398 CURVE",
"23 332 LINE",
"66 303 OFFCURVE",
"128 284 OFFCURVE",
"180 284 CURVE",
"279 284 OFFCURVE",
"342 339 OFFCURVE",
"342 424 CURVE",
"342 497 OFFCURVE",
"282 543 OFFCURVE",
"187 543 CURVE",
"173 543 OFFCURVE",
"149 541 OFFCURVE",
"134 537 CURVE",
"134 633 LINE",
"325 633 LINE"
);
}
);
width = 377;
}
);
},
{
glyphname = six.numr;
layers = (
{
layerId = "0684C2B6-4C69-4B0A-A52B-80982EBE3DDB";
paths = (
{
closed = 1;
nodes = (
"112 703 OFFCURVE",
"38 617 OFFCURVE",
"38 486 CURVE SMOOTH",
"38 359 OFFCURVE",
"105 283 OFFCURVE",
"216 283 CURVE SMOOTH",
"309 283 OFFCURVE",
"370 337 OFFCURVE",
"370 422 CURVE SMOOTH",
"370 503 OFFCURVE",
"316 555 OFFCURVE",
"233 555 CURVE SMOOTH",
"175 555 OFFCURVE",
"135 530 OFFCURVE",
"119 491 CURVE",
"113 583 OFFCURVE",
"154 636 OFFCURVE",
"232 636 CURVE SMOOTH",
"266 636 OFFCURVE",
"300 627 OFFCURVE",
"327 610 CURVE",
"359 671 LINE",
"323 690 OFFCURVE",
"272 703 OFFCURVE",
"227 703 CURVE SMOOTH"
);
},
{
closed = 1;
nodes = (
"263 492 OFFCURVE",
"292 467 OFFCURVE",
"292 424 CURVE SMOOTH",
"292 378 OFFCURVE",
"261 352 OFFCURVE",
"212 352 CURVE SMOOTH",
"156 352 OFFCURVE",
"131 387 OFFCURVE",
"131 421 CURVE",
"131 461 OFFCURVE",
"162 492 OFFCURVE",
"215 492 CURVE SMOOTH"
);
}
);
width = 401;
}
);
},
{
glyphname = seven.numr;
layers = (
{
layerId = "0684C2B6-4C69-4B0A-A52B-80982EBE3DDB";
paths = (
{
closed = 1;
nodes = (
"351 699.995 LINE",
"32 700 LINE",
"32 572 LINE",
"106 572 LINE",
"106 633 LINE",
"260 633 LINE",
"95 287 LINE",
"184 287 LINE",
"351 640 LINE"
);
}
);
width = 374;
}
);
},
{
glyphname = eight.numr;
layers = (
{
layerId = "0684C2B6-4C69-4B0A-A52B-80982EBE3DDB";
paths = (
{
closed = 1;
nodes = (
"114 703 OFFCURVE",
"56 663 OFFCURVE",
"56 598 CURVE SMOOTH",
"56 558 OFFCURVE",
"81 526 OFFCURVE",
"121 508 CURVE",
"68 490 OFFCURVE",
"35 451 OFFCURVE",
"35 402 CURVE SMOOTH",
"35 329 OFFCURVE",
"100 283 OFFCURVE",
"204 283 CURVE SMOOTH",
"307 283 OFFCURVE",
"372 329 OFFCURVE",
"372 403 CURVE SMOOTH",
"372 451 OFFCURVE",
"341 490 OFFCURVE",
"290 508 CURVE",
"327 525 OFFCURVE",
"351 556 OFFCURVE",
"351 595 CURVE SMOOTH",
"351 662 OFFCURVE",
"293 703 OFFCURVE",
"203 703 CURVE SMOOTH"
);
},
{
closed = 1;
nodes = (
"260 473 OFFCURVE",
"293 450 OFFCURVE",
"293 410 CURVE SMOOTH",
"293 368 OFFCURVE",
"260 346 OFFCURVE",
"204 346 CURVE SMOOTH",
"146 346 OFFCURVE",
"114 369 OFFCURVE",
"114 410 CURVE SMOOTH",
"114 450 OFFCURVE",
"147 473 OFFCURVE",
"203 473 CURVE SMOOTH"
);
},
{
closed = 1;
nodes = (
"252 646 OFFCURVE",
"280 626 OFFCURVE",
"280 590 CURVE SMOOTH",
"280 555 OFFCURVE",
"252 535 OFFCURVE",
"204 535 CURVE SMOOTH",
"155 535 OFFCURVE",
"127 555 OFFCURVE",
"127 590 CURVE SMOOTH",
"127 626 OFFCURVE",
"155 646 OFFCURVE",
"204 646 CURVE SMOOTH"
);
}
);
width = 407;
}
);
},
{
glyphname = nine.numr;
layers = (
{
layerId = "0684C2B6-4C69-4B0A-A52B-80982EBE3DDB";
paths = (
{
closed = 1;
nodes = (
"291 283 OFFCURVE",
"365 369 OFFCURVE",
"365 500 CURVE SMOOTH",
"365 627 OFFCURVE",
"298 703 OFFCURVE",
"187 703 CURVE SMOOTH",
"94 703 OFFCURVE",
"33 650 OFFCURVE",
"33 564 CURVE SMOOTH",
"33 483 OFFCURVE",
"86 431 OFFCURVE",
"170 431 CURVE SMOOTH",
"228 431 OFFCURVE",
"268 457 OFFCURVE",
"284 495 CURVE",
"291 402 OFFCURVE",
"249 350 OFFCURVE",
"171 350 CURVE SMOOTH",
"137 350 OFFCURVE",
"103 359 OFFCURVE",
"77 376 CURVE",
"44 316 LINE",
"80 296 OFFCURVE",
"131 283 OFFCURVE",
"176 283 CURVE SMOOTH"
);
},
{
closed = 1;
nodes = (
"141 494 OFFCURVE",
"112 519 OFFCURVE",
"112 563 CURVE SMOOTH",
"112 608 OFFCURVE",
"143 634 OFFCURVE",
"192 634 CURVE SMOOTH",
"248 634 OFFCURVE",
"273 599 OFFCURVE",
"273 565 CURVE",
"273 525 OFFCURVE",
"243 494 OFFCURVE",
"189 494 CURVE SMOOTH"
);
}
);
width = 403;
}
);
},
{
glyphname = onesuperior;
layers = (
{
layerId = "0684C2B6-4C69-4B0A-A52B-80982EBE3DDB";
paths = (
{
closed = 1;
nodes = (
"182 700 LINE",
"16 700 LINE",
"16 631 LINE",
"99 631 LINE",
"99 287 LINE",
"182 287 LINE"
);
}
);
width = 262;
}
);
unicode = 00B9;
},
{
glyphname = twosuperior;
layers = (
{
layerId = "0684C2B6-4C69-4B0A-A52B-80982EBE3DDB";
paths = (
{
closed = 1;
nodes = (
"133 703 OFFCURVE",
"77 680 OFFCURVE",
"28 643 CURVE",
"61 581 LINE",
"98 613 OFFCURVE",
"142 633 OFFCURVE",
"178 633 CURVE",
"219 633 OFFCURVE",
"243 616 OFFCURVE",
"243 586 CURVE",
"243 564 OFFCURVE",
"223 532 OFFCURVE",
"194 504 CURVE SMOOTH",
"37 343 LINE",
"37 287 LINE",
"348 287 LINE",
"348 353 LINE",
"143 353 LINE",
"251 462 LINE SMOOTH",
"298 508 OFFCURVE",
"330 555 OFFCURVE",
"330 598 CURVE",
"330 662 OFFCURVE",
"273 703 OFFCURVE",
"191 703 CURVE"
);
}
);
width = 383;
}
);
unicode = 00B2;
},
{
glyphname = threesuperior;
layers = (
{
layerId = "0684C2B6-4C69-4B0A-A52B-80982EBE3DDB";
paths = (
{
closed = 1;
nodes = (
"181 529 LINE",
"299 649 LINE",
"299 698 LINE",
"31 698 LINE",
"31 636 LINE",
"204 636 LINE",
"92 522 LINE",
"92 476 LINE",
"154 476 LINE SMOOTH",
"207 476 OFFCURVE",
"237 455 OFFCURVE",
"237 414 CURVE SMOOTH",
"237 373 OFFCURVE",
"207 347 OFFCURVE",
"154 347 CURVE SMOOTH",
"115 347 OFFCURVE",
"76 364 OFFCURVE",
"46 395 CURVE",
"11 329 LINE",
"48 302 OFFCURVE",
"106 283 OFFCURVE",
"161 283 CURVE SMOOTH",
"258 283 OFFCURVE",
"319 338 OFFCURVE",
"319 415 CURVE SMOOTH",
"319 480 OFFCURVE",
"271 520 OFFCURVE",
"203 527 CURVE SMOOTH"
);
}
);
width = 355;
}
);
unicode = 00B3;
},
{
glyphname = fraction;
layers = (
{
layerId = "0684C2B6-4C69-4B0A-A52B-80982EBE3DDB";
paths = (
{
closed = 1;
nodes = (
"348 700 LINE",
"238 700 LINE",
"-277 0 LINE",
"-166 0 LINE"
);
}
);
width = 80;
}
);
unicode = 2044;
},
{
glyphname = "zero-gurmukhi";
layers = (
{
layerId = "0684C2B6-4C69-4B0A-A52B-80982EBE3DDB";
paths = (
{
closed = 1;
nodes = (
"571 42 OFFCURVE",
"689 179 OFFCURVE",
"689 341 CURVE SMOOTH",
"689 506 OFFCURVE",
"568 646 OFFCURVE",
"371 646 CURVE SMOOTH",
"177 646 OFFCURVE",
"60 510 OFFCURVE",
"60 348 CURVE SMOOTH",
"60 183 OFFCURVE",
"181 42 OFFCURVE",
"379 42 CURVE SMOOTH"
);
},
{
closed = 1;
nodes = (
"262 141 OFFCURVE",
"174 218 OFFCURVE",
"174 341 CURVE SMOOTH",
"174 467 OFFCURVE",
"265 548 OFFCURVE",
"378 548 CURVE SMOOTH",
"488 548 OFFCURVE",
"575 470 OFFCURVE",
"575 346 CURVE SMOOTH",
"575 220 OFFCURVE",
"485 141 OFFCURVE",
"373 141 CURVE SMOOTH"
);
}
);
width = 749;
}
);
unicode = 0A66;
},
{
glyphname = "one-gurmukhi";
layers = (
{
layerId = "0684C2B6-4C69-4B0A-A52B-80982EBE3DDB";
paths = (
{
closed = 1;
nodes = (
"551 0 LINE",
"551 410 LINE SMOOTH",
"551 588 OFFCURVE",
"437 699 OFFCURVE",
"278 699 CURVE SMOOTH",
"149 699 OFFCURVE",
"50 619 OFFCURVE",
"50 486 CURVE SMOOTH",
"50 350 OFFCURVE",
"161 259 OFFCURVE",
"292 259 CURVE SMOOTH",
"357 259 OFFCURVE",
"418 279 OFFCURVE",
"464 327 CURVE",
"441 341 LINE",
"441 0 LINE"
);
},
{
closed = 1;
nodes = (
"211 358 OFFCURVE",
"156 407 OFFCURVE",
"156 477 CURVE SMOOTH",
"156 548 OFFCURVE",
"212 599 OFFCURVE",
"292 599 CURVE SMOOTH",
"389 599 OFFCURVE",
"453 531 OFFCURVE",
"447 412 CURVE",
"455 484 LINE",
"438 403 OFFCURVE",
"368 358 OFFCURVE",
"291 358 CURVE SMOOTH"
);
}
);
width = 635;
}
);
unicode = 0A67;
},
{
glyphname = "two-gurmukhi";
layers = (
{
layerId = "0684C2B6-4C69-4B0A-A52B-80982EBE3DDB";
paths = (
{
closed = 1;
nodes = (
"570 8 LINE",
"569 112 OFFCURVE",
"513 232 OFFCURVE",
"395 290 CURVE",
"399 251 LINE",
"504 289 OFFCURVE",
"558 368 OFFCURVE",
"558 461 CURVE SMOOTH",
"558 609 OFFCURVE",
"432 701 OFFCURVE",
"269 701 CURVE SMOOTH",
"188 701 OFFCURVE",
"109 680 OFFCURVE",
"49 638 CURVE",
"93 552 LINE",
"146 580 OFFCURVE",
"215 599 OFFCURVE",
"283 599 CURVE SMOOTH",
"386 599 OFFCURVE",
"453 545 OFFCURVE",
"453 464 CURVE SMOOTH",
"453 388 OFFCURVE",
"394 324 OFFCURVE",
"273 318 CURVE",
"341 314 LINE",
"300 331 OFFCURVE",
"248 339 OFFCURVE",
"197 339 CURVE SMOOTH",
"162 339 OFFCURVE",
"121 334 OFFCURVE",
"83 322 CURVE",
"89 225 LINE",
"125 217 OFFCURVE",
"163 213 OFFCURVE",
"207 213 CURVE SMOOTH",
"254 213 OFFCURVE",
"310 218 OFFCURVE",
"355 229 CURVE",
"293 232 LINE",
"416 215 OFFCURVE",
"457 105 OFFCURVE",
"457 10 CURVE",
"457 1 LINE",
"570 0 LINE"
);
}
);
width = 627;
}
);
unicode = 0A68;
},
{
glyphname = "three-gurmukhi";
layers = (
{
layerId = "0684C2B6-4C69-4B0A-A52B-80982EBE3DDB";
paths = (
{
closed = 1;
nodes = (
"279 -119 LINE",
"291 14 LINE",
"249 -3 LINE",
"267 -8 OFFCURVE",
"286 -9 OFFCURVE",
"301 -9 CURVE SMOOTH",
"475 -9 OFFCURVE",
"574 77 OFFCURVE",
"574 183 CURVE SMOOTH",
"574 268 OFFCURVE",
"518 345 OFFCURVE",
"395 369 CURVE",
"403 337 LINE",
"518 362 OFFCURVE",
"569 425 OFFCURVE",
"569 502 CURVE SMOOTH",
"569 629 OFFCURVE",
"440 700 OFFCURVE",
"288 700 CURVE SMOOTH",
"206 700 OFFCURVE",
"121 679 OFFCURVE",
"62 638 CURVE",
"106 552 LINE",
"154 580 OFFCURVE",
"226 599 OFFCURVE",
"298 599 CURVE SMOOTH",
"394 599 OFFCURVE",
"459 566 OFFCURVE",
"459 502 CURVE SMOOTH",
"459 451 OFFCURVE",
"417 401 OFFCURVE",
"278 403 CURVE",
"360 396 LINE",
"315 413 OFFCURVE",
"262 418 OFFCURVE",
"212 418 CURVE SMOOTH",
"184 418 OFFCURVE",
"153 415 OFFCURVE",
"123 409 CURVE",
"129 313 LINE",
"162 304 OFFCURVE",
"198 300 OFFCURVE",
"236 300 CURVE SMOOTH",
"280 300 OFFCURVE",
"331 306 OFFCURVE",
"371 316 CURVE",
"299 315 LINE",
"423 316 OFFCURVE",
"463 257 OFFCURVE",
"463 201 CURVE SMOOTH",
"463 122 OFFCURVE",
"386 83 OFFCURVE",
"290 83 CURVE SMOOTH",
"270 83 OFFCURVE",
"251 85 OFFCURVE",
"232 88 CURVE",
"280 67 LINE",
"241 124 OFFCURVE",
"170 145 OFFCURVE",
"92 153 CURVE",
"64 72 LINE",
"92 43 OFFCURVE",
"133 20 OFFCURVE",
"176 7 CURVE",
"166 -105 LINE",
"166 -119 LINE"
);
}
);
width = 638;
}
);
unicode = 0A69;
},
{
glyphname = "four-gurmukhi";
layers = (
{
layerId = "0684C2B6-4C69-4B0A-A52B-80982EBE3DDB";
paths = (
{
closed = 1;
nodes = (
"507 -5 OFFCURVE",
"608 70 OFFCURVE",
"608 175 CURVE SMOOTH",
"608 250 OFFCURVE",
"553 310 OFFCURVE",
"461 339 CURVE",
"461 305 LINE",
"561 334 OFFCURVE",
"627 400 OFFCURVE",
"627 497 CURVE SMOOTH",
"627 604 OFFCURVE",
"533 680 OFFCURVE",
"412 696 CURVE",
"401 598 LINE",
"469 587 OFFCURVE",
"513 549 OFFCURVE",
"513 495 CURVE SMOOTH",
"513 426 OFFCURVE",
"442 384 OFFCURVE",
"344 384 CURVE SMOOTH",
"246 384 OFFCURVE",
"175 426 OFFCURVE",
"175 494 CURVE SMOOTH",
"175 550 OFFCURVE",
"221 587 OFFCURVE",
"289 598 CURVE",
"278 696 LINE",
"152 682 OFFCURVE",
"61 607 OFFCURVE",
"61 503 CURVE SMOOTH",
"61 417 OFFCURVE",
"127 356 OFFCURVE",
"229 332 CURVE",
"222 355 LINE",
"137 326 OFFCURVE",
"81 268 OFFCURVE",
"81 181 CURVE SMOOTH",
"81 72 OFFCURVE",
"183 -5 OFFCURVE",
"346 -5 CURVE SMOOTH"
);
},
{
closed = 1;
nodes = (
"246 80 OFFCURVE",
"193 130 OFFCURVE",
"193 188 CURVE SMOOTH",
"193 246 OFFCURVE",
"248 296 OFFCURVE",
"344 296 CURVE SMOOTH",
"441 296 OFFCURVE",
"496 248 OFFCURVE",
"496 190 CURVE SMOOTH",
"496 132 OFFCURVE",
"441 80 OFFCURVE",
"342 80 CURVE SMOOTH"
);
}
);
width = 688;
}
);
unicode = 0A6A;
},
{
glyphname = "five-gurmukhi";
layers = (
{
layerId = "0684C2B6-4C69-4B0A-A52B-80982EBE3DDB";
paths = (
{
closed = 1;
nodes = (
"393 118 OFFCURVE",
"474 135 OFFCURVE",
"526 169 CURVE",
"505 304 LINE",
"459 237 OFFCURVE",
"381 216 OFFCURVE",
"316 216 CURVE SMOOTH",
"191 216 OFFCURVE",
"155 280 OFFCURVE",
"146 323 CURVE",
"130 266 LINE",
"213 319 OFFCURVE",
"246 400 OFFCURVE",
"246 491 CURVE SMOOTH",
"246 557 OFFCURVE",
"229 628 OFFCURVE",
"206 688 CURVE",
"101 684 LINE",
"103 671 LINE",
"124 625 OFFCURVE",
"136 569 OFFCURVE",
"136 516 CURVE SMOOTH",
"136 443 OFFCURVE",
"109 374 OFFCURVE",
"45 328 CURVE",
"70 194 OFFCURVE",
"178 118 OFFCURVE",
"324 118 CURVE SMOOTH"
);
},
{
closed = 1;
nodes = (
"606 0 LINE",
"606 688 LINE",
"493 688 LINE",
"493 0 LINE"
);
}
);
width = 690;
}
);
unicode = 0A6B;
},
{
glyphname = "six-gurmukhi";
layers = (
{
layerId = "0684C2B6-4C69-4B0A-A52B-80982EBE3DDB";
paths = (
{
closed = 1;
nodes = (
"429 -11 OFFCURVE",
"503 5 OFFCURVE",
"553 32 CURVE",
"528 124 LINE",
"477 104 OFFCURVE",
"407 88 OFFCURVE",
"343 88 CURVE SMOOTH",
"243 88 OFFCURVE",
"165 124 OFFCURVE",
"165 196 CURVE SMOOTH",
"165 254 OFFCURVE",
"216 312 OFFCURVE",
"382 306 CURVE",
"297 313 LINE",
"331 302 OFFCURVE",
"373 299 OFFCURVE",
"405 299 CURVE SMOOTH",
"440 299 OFFCURVE",
"470 303 OFFCURVE",
"500 309 CURVE",
"506 405 LINE",
"470 413 OFFCURVE",
"430 417 OFFCURVE",
"396 417 CURVE SMOOTH",
"342 417 OFFCURVE",
"289 411 OFFCURVE",
"251 397 CURVE",
"318 395 LINE",
"207 402 OFFCURVE",
"173 450 OFFCURVE",
"173 496 CURVE SMOOTH",
"173 566 OFFCURVE",
"242 601 OFFCURVE",
"342 601 CURVE SMOOTH",
"360 601 OFFCURVE",
"376 599 OFFCURVE",
"392 597 CURVE",
"339 616 LINE",
"372 585 OFFCURVE",
"418 567 OFFCURVE",
"468 563 CURVE SMOOTH",
"488 562 OFFCURVE",
"508 563 OFFCURVE",
"528 567 CURVE",
"546 652 LINE",
"493 677 OFFCURVE",
"429 695 OFFCURVE",
"363 698 CURVE",
"413 678 LINE",
"392 689 OFFCURVE",
"378 713 OFFCURVE",
"378 744 CURVE SMOOTH",
"378 801.007 OFFCURVE",
"422 828 OFFCURVE",
"467 828 CURVE SMOOTH",
"484 828 OFFCURVE",
"502 825 OFFCURVE",
"517 817 CURVE",
"555 893 LINE",
"529 912 OFFCURVE",
"497 920 OFFCURVE",
"463 920 CURVE SMOOTH",
"374 920 OFFCURVE",
"287 865 OFFCURVE",
"287 746 CURVE SMOOTH",
"287 719 OFFCURVE",
"293 694 OFFCURVE",
"306 670 CURVE",
"332 695 LINE",
"320 696 OFFCURVE",
"306 697 OFFCURVE",
"292 696 CURVE SMOOTH",
"146 684 OFFCURVE",
"65 605 OFFCURVE",
"65 516 CURVE SMOOTH",
"65 446 OFFCURVE",
"112 368 OFFCURVE",
"234 334 CURVE",
"233 369 LINE",
"114 347 OFFCURVE",
"61 276 OFFCURVE",
"61 199 CURVE SMOOTH",
"61 67 OFFCURVE",
"207 -11 OFFCURVE",
"361 -11 CURVE SMOOTH"
);
}
);
width = 619;
}
);
unicode = 0A6C;
},
{
glyphname = "seven-gurmukhi";
layers = (
{
layerId = "0684C2B6-4C69-4B0A-A52B-80982EBE3DDB";
paths = (
{
closed = 1;
nodes = (
"207 699 OFFCURVE",
"126 598 OFFCURVE",
"126 490 CURVE SMOOTH",
"126 441 OFFCURVE",
"144 392 OFFCURVE",
"176 354 CURVE",
"270 397 LINE",
"251 417 OFFCURVE",
"238 455 OFFCURVE",
"238 486 CURVE SMOOTH",
"238 542 OFFCURVE",
"282 597 OFFCURVE",
"362 597 CURVE SMOOTH",
"466 597 OFFCURVE",
"516 500 OFFCURVE",
"516 374 CURVE SMOOTH",
"516 185 OFFCURVE",
"403 89 OFFCURVE",
"238 89 CURVE SMOOTH",
"181 89 OFFCURVE",
"122 101 OFFCURVE",
"65 124 CURVE",
"40 32 LINE",
"98 7 OFFCURVE",
"172 -10 OFFCURVE",
"249 -10 CURVE SMOOTH",
"463 -10 OFFCURVE",
"624 111 OFFCURVE",
"624 366 CURVE SMOOTH",
"624 558 OFFCURVE",
"528 699 OFFCURVE",
"356 699 CURVE SMOOTH"
);
}
);
width = 677;
}
);
unicode = 0A6D;
},
{
glyphname = "eight-gurmukhi";
layers = (
{
layerId = "0684C2B6-4C69-4B0A-A52B-80982EBE3DDB";
paths = (
{
closed = 1;
nodes = (
"555 -10 OFFCURVE",
"617 7 OFFCURVE",
"660 29 CURVE",
"635 121 LINE",
"585 103 OFFCURVE",
"531 89 OFFCURVE",
"475 89 CURVE SMOOTH",
"356 89 OFFCURVE",
"273 145 OFFCURVE",
"273 262 CURVE SMOOTH",
"273 465 LINE",
"639 465 LINE",
"639 563 LINE",
"252 563 LINE",
"215 601 OFFCURVE",
"148 616 OFFCURVE",
"73 622 CURVE",
"39 541 LINE",
"73 506 OFFCURVE",
"117 482 OFFCURVE",
"166 472 CURVE",
"166 273 LINE SMOOTH",
"166 105 OFFCURVE",
"305 -10 OFFCURVE",
"484 -10 CURVE SMOOTH"
);
}
);
width = 721;
}
);
unicode = 0A6E;
},
{
glyphname = "nine-gurmukhi";
layers = (
{
components = (
{
name = "eight-gurmukhi";
}
);
layerId = "0684C2B6-4C69-4B0A-A52B-80982EBE3DDB";
paths = (
{
closed = 1;
nodes = (
"625 455 OFFCURVE",
"651 459 OFFCURVE",
"674 468 CURVE",
"639 563 LINE",
"625 557 OFFCURVE",
"608 555 OFFCURVE",
"592 555 CURVE SMOOTH",
"546 555 OFFCURVE",
"501 583 OFFCURVE",
"501 645 CURVE SMOOTH",
"501 705 OFFCURVE",
"546 733 OFFCURVE",
"590 733 CURVE SMOOTH",
"607 733 OFFCURVE",
"625 729 OFFCURVE",
"640 721 CURVE",
"678 798 LINE",
"652 817 OFFCURVE",
"620 825 OFFCURVE",
"587 825 CURVE SMOOTH",
"496 825 OFFCURVE",
"410 769 OFFCURVE",
"410 647 CURVE SMOOTH",
"410 517 OFFCURVE",
"506 455 OFFCURVE",
"598 455 CURVE SMOOTH"
);
}
);
width = 734;
}
);
leftMetricsKey = "eight-gurmukhi";
unicode = 0A6F;
},
{
glyphname = asterisk;
layers = (
{
layerId = "0684C2B6-4C69-4B0A-A52B-80982EBE3DDB";
paths = (
{
closed = 1;
nodes = (
"322 514 LINE",
"231 565 LINE",
"322 614 LINE",
"292 670 LINE",
"203 618 LINE",
"204 720 LINE",
"143 720 LINE",
"144 618 LINE",
"55 671 LINE",
"25 614 LINE",
"115 565 LINE",
"25 514 LINE",
"55 459 LINE",
"145 511 LINE",
"143 409 LINE",
"204 409 LINE",
"202 511 LINE",
"292 458 LINE"
);
}
);
width = 348;
}
);
unicode = 002A;
},
{
glyphname = bullet;
layers = (
{
layerId = "0684C2B6-4C69-4B0A-A52B-80982EBE3DDB";
paths = (
{
closed = 1;
nodes = (
"85 372 OFFCURVE",
"46 332 OFFCURVE",
"46 277 CURVE SMOOTH",
"46 221 OFFCURVE",
"85 181 OFFCURVE",
"138 181 CURVE SMOOTH",
"191 181 OFFCURVE",
"230 221 OFFCURVE",
"230 277 CURVE SMOOTH",
"230 332 OFFCURVE",
"191 372 OFFCURVE",
"138 372 CURVE SMOOTH"
);
}
);
width = 275;
}
);
leftMetricsKey = period;
rightMetricsKey = period;
unicode = 2022;
},
{
glyphname = comma;
layers = (
{
layerId = "0684C2B6-4C69-4B0A-A52B-80982EBE3DDB";
paths = (
{
closed = 1;
nodes = (
"36 -82 LINE",
"95 -82 LINE",
"152 4 LINE SMOOTH",
"162 20 OFFCURVE",
"169 37 OFFCURVE",
"169 57 CURVE SMOOTH",
"169 97 OFFCURVE",
"141 121 OFFCURVE",
"108 121 CURVE SMOOTH",
"73 121 OFFCURVE",
"47 94 OFFCURVE",
"47 57 CURVE SMOOTH",
"47 22 OFFCURVE",
"70 -7 OFFCURVE",
"119 -7 CURVE",
"93 50 LINE"
);
}
);
width = 214;
}
);
unicode = 002C;
},
{
glyphname = exclam;
layers = (
{
components = (
{
name = period;
transform = "{1, 0, 0, 1, 10, 0}";
}
);
layerId = "0684C2B6-4C69-4B0A-A52B-80982EBE3DDB";
paths = (
{
closed = 1;
nodes = (
"65 692 LINE",
"65 519 LINE",
"84 223 LINE",
"156 223 LINE",
"174 519 LINE",
"174 692 LINE"
);
}
);
width = 239;
}
);
unicode = 0021;
},
